<?xml version="1.0" encoding="UTF-8"?>
<svg width="20px" height="20px" viewBox="0 0 20 20" version="1.1" xmlns="http://www.w3.org/2000/svg" xmlns:xlink="http://www.w3.org/1999/xlink">
    <!-- Generator: Sketch 46.2 (44496) - http://www.bohemiancoding.com/sketch -->
    <title>记账@2x</title>
    <desc>Created with Sketch.</desc>
    <defs></defs>
    <g id="Page-1" stroke="none" stroke-width="1" fill="none" fill-rule="evenodd">
        <g id="记账">
            <g id="Group-20">
                <circle id="Oval" fill="#FF9346" cx="10" cy="10" r="10"></circle>
                <g id="Group-19" transform="translate(4.000000, 4.000000)">
                    <path d="M9.42857143,6.85714286 L9.42857143,1 C9.42857143,0.44771525 8.98085618,-1.01453063e-16 8.42857143,0 L3.57142857,0 C3.01914382,1.01453063e-16 2.57142857,0.44771525 2.57142857,1 L2.57142857,1 L2.57142857,6.85714286 L1.20710678,6.85714286 C1.07449854,6.85714286 0.94732158,6.90982128 0.853553391,7.00358947 C0.658291245,7.19885161 0.658291245,7.5154341 0.853553391,7.71069625 L6.06091527,12.9180581 L11.2682771,7.71069625 L11.2682771,7.71069625 C11.3620453,7.61692806 11.4147238,7.4897511 11.4147238,7.35714286 C11.4147238,7.08100048 11.1908661,6.85714286 10.9147238,6.85714286 L10.9147238,6.85714286 L9.42857143,6.85714286 Z" id="Combined-Shape" fill="#FFFFFF"></path>
                    <path d="M6.95981315,5.36500406 C6.90938713,5.36500406 6.8524342,5.35953446 6.7928583,5.3484936 C6.73594603,5.33566343 6.72492551,5.30353718 6.75339181,5.2503662 C6.76620164,5.23113111 6.81577367,5.15404844 6.90562551,5.02470977 C6.99553835,4.89360213 7.09368609,4.75775688 7.2065143,4.61284308 C7.31747187,4.46607897 7.41749025,4.32937973 7.51657331,4.20099672 C7.61016643,4.07167839 7.66880701,3.99099676 7.68895709,3.95704053 C7.74308372,3.87265829 7.71008315,3.7708506 7.59357465,3.65161747 C7.57425823,3.62955609 7.53117245,3.59653518 7.46612696,3.55253441 C7.4055954,3.51032296 7.34687349,3.4782577 7.2945565,3.45715197 C7.20838495,3.42602204 7.14779239,3.41953579 7.11017621,3.44157684 C7.07626065,3.4627029 7.02947425,3.51032296 6.97725892,3.58647031 C6.95613286,3.61768157 6.9038362,3.69655356 6.81766465,3.81950764 C6.73415672,3.94602001 6.64432521,4.07637533 6.54884111,4.21663285 C6.45437366,4.35784603 6.36633146,4.48350442 6.28743915,4.59456365 C6.20681852,4.70918117 6.16273642,4.77524332 6.15348487,4.79815869 C6.1333958,4.83945516 6.09209933,4.85775493 6.03337742,4.8467954 C5.97561116,4.83577488 5.93705966,4.80907755 5.91699092,4.76601211 C5.90407942,4.74500805 5.85824868,4.6816502 5.77295144,4.57797186 C5.68761354,4.47803482 5.59676538,4.36339696 5.50323325,4.23228932 C5.40964012,4.10097834 5.31704332,3.98369719 5.22713048,3.868978 C5.13636365,3.7552958 5.07668608,3.67827413 5.04378717,3.6333177 C4.94830307,3.45072672 4.84838636,3.39206581 4.7438337,3.45713164 C4.66947566,3.49938376 4.60251886,3.54517384 4.54381728,3.59295656 C4.48603069,3.64340291 4.43105007,3.68372339 4.37873308,3.71672396 C4.2732451,3.79018735 4.25766997,3.88829442 4.33103169,4.00659223 C4.50988139,4.22116713 4.66947566,4.42026856 4.80708989,4.60460819 C4.92258173,4.75505258 5.03266498,4.89817707 5.14004393,5.04211488 C5.24457625,5.17972911 5.30785277,5.26043107 5.32806384,5.28426143 C5.35004389,5.3255579 5.32806384,5.34847327 5.26472633,5.34847327 L5.07666575,5.34847327 C5.02445042,5.34847327 4.94649343,5.35026258 4.8474307,5.35583384 C4.74560268,5.36136444 4.65294488,5.35951413 4.56762731,5.34847327 C4.48420072,5.34847327 4.41443795,5.36768802 4.36130763,5.41272577 C4.30990563,5.45404258 4.29341551,5.50806755 4.31539556,5.57223872 C4.32556209,5.61731714 4.33101136,5.68142731 4.33101136,5.76587056 L4.33101136,5.96308102 C4.33101136,6.01529634 4.3457325,6.04555195 4.37873308,6.05102155 C4.41085933,6.05561682 4.44658454,6.05754846 4.48967031,6.05754846 L5.4087658,6.05754846 C5.53346853,6.05754846 5.59674505,6.08414412 5.59674505,6.13825042 L5.59674505,6.44458848 C5.59674505,6.50058576 5.5876155,6.52718141 5.56561511,6.52718141 L4.50439146,6.52718141 C4.44196893,6.51612022 4.40067246,6.53263068 4.37873308,6.57386614 C4.35854234,6.61888356 4.34300787,6.66743894 4.33101136,6.72071159 C4.31999083,6.77658687 4.31999083,6.82619956 4.33101136,6.87286396 C4.34300787,6.92328997 4.34563084,6.96464744 4.34563084,6.99494372 C4.34563084,7.13611623 4.41443795,7.205818 4.55205218,7.205818 L5.50319259,7.205818 C5.55825454,7.205818 5.58853049,7.21315824 5.59768037,7.22879437 C5.60776557,7.24528449 5.61417049,7.28103003 5.61417049,7.33422135 C5.62519101,7.38838865 5.62885097,7.48466574 5.62151073,7.62408961 C5.61697645,7.76536379 5.61323517,7.85613062 5.61323517,7.90110737 C5.61323517,8.01940518 5.68204228,8.07816776 5.81870085,8.07816776 L6.3268853,8.07816776 C6.41118622,8.07816776 6.45435333,8.05155177 6.45435333,7.99565616 L6.45435333,7.35081313 C6.45435333,7.2417262 6.50299004,7.18753857 6.59564784,7.18753857 L6.73873166,7.18753857 C6.81207305,7.18753857 6.89647563,7.18574926 6.9844975,7.17838869 C7.07624031,7.1747084 7.16155788,7.17104845 7.24411015,7.17104845 L7.45047049,7.17104845 C7.5972346,7.17104845 7.67425628,7.11690148 7.67425628,7.01145417 L7.67425628,6.6546291 C7.67425628,6.5565017 7.62202061,6.50784466 7.51653264,6.50784466 L6.59564784,6.50784466 C6.49196951,6.53078037 6.4359519,6.50784466 6.4359519,6.44367349 C6.4359519,6.41343821 6.43416259,6.37214174 6.42861166,6.3234847 C6.42314206,6.27494966 6.42228808,6.23176222 6.42228808,6.18678547 C6.42228808,6.14552966 6.4387782,6.11159377 6.47639438,6.09148436 C6.51492555,6.06848766 6.55437171,6.0575688 6.59564784,6.0575688 L7.53115212,6.0575688 C7.63483045,6.0575688 7.68893675,6.02172159 7.68893675,5.94474059 L7.68893675,5.55670425 C7.68893675,5.51363881 7.67063699,5.47236267 7.63295981,5.42925656 C7.59540462,5.38419848 7.5504482,5.36500406 7.49908687,5.36500406 L6.95981315,5.36500406" id="Path" fill="#FF9346"></path>
                </g>
            </g>
        </g>
    </g>
</svg>