<svg width="300px" height="139px" viewBox="0 0 300 139" version="1.1" xmlns="http://www.w3.org/2000/svg" xmlns:xlink="http://www.w3.org/1999/xlink">
    <!-- Generator: Sketch 44.1 (41455) - http://www.bohemiancoding.com/sketch -->
    <desc>Created with Sketch.</desc>
    <defs>
        <linearGradient x1="97.4986979%" y1="78.9425223%" x2="4.82291667%" y2="25.8649554%" id="linearGradient-1">
            <stop stop-color="#3C5BFF" offset="0%"></stop>
            <stop stop-color="#2994FF" offset="100%"></stop>
        </linearGradient>
        <filter x="-16.7%" y="-9.3%" width="131.8%" height="121.6%" filterUnits="objectBoundingBox" id="filter-2">
            <feOffset dx="0" dy="2" in="SourceAlpha" result="shadowOffsetOuter1"></feOffset>
            <feGaussianBlur stdDeviation="3" in="shadowOffsetOuter1" result="shadowBlurOuter1"></feGaussianBlur>
            <feColorMatrix values="0 0 0 0 0.175919123   0 0 0 0 0.336525343   0 0 0 0 0.941007653  0 0 0 0.315896739 0" type="matrix" in="shadowBlurOuter1" result="shadowMatrixOuter1"></feColorMatrix>
            <feMerge>
                <feMergeNode in="shadowMatrixOuter1"></feMergeNode>
                <feMergeNode in="SourceGraphic"></feMergeNode>
            </feMerge>
        </filter>
        <filter x="-16.7%" y="-8.5%" width="131.8%" height="119.8%" filterUnits="objectBoundingBox" id="filter-3">
            <feOffset dx="0" dy="2" in="SourceAlpha" result="shadowOffsetOuter1"></feOffset>
            <feGaussianBlur stdDeviation="3" in="shadowOffsetOuter1" result="shadowBlurOuter1"></feGaussianBlur>
            <feColorMatrix values="0 0 0 0 0.22745098   0 0 0 0 0.412584585   0 0 0 0 1  0 0 0 0.398692255 0" type="matrix" in="shadowBlurOuter1" result="shadowMatrixOuter1"></feColorMatrix>
            <feMerge>
                <feMergeNode in="shadowMatrixOuter1"></feMergeNode>
                <feMergeNode in="SourceGraphic"></feMergeNode>
            </feMerge>
        </filter>
    </defs>
    <g id="Page-1" stroke="none" stroke-width="1" fill="none" fill-rule="evenodd">
        <g id="选择付款方式-同线上-copy-14" transform="translate(-300.000000, -133.000000)">
            <g id="图文-copy" transform="translate(300.000000, 133.000000)">
                <g id="Group-12" transform="translate(0.000000, -38.000000)">
                    <g id="Group-11">
                        <g id="Group-10">
                            <path d="M5,38 L295,38 L295,38 C297.761424,38 300,40.2385763 300,43 L300,96 C255.281538,108.666667 205.281538,115 150,115 C94.7184623,115 44.7184623,108.666667 -1.26217745e-29,96 L-1.26217745e-29,43 L-1.26217745e-29,43 C-3.38176876e-16,40.2385763 2.23857625,38 5,38 Z" id="Mask" fill="url(#linearGradient-1)"></path>
                            <g id="手" transform="translate(142.341360, 91.027652) rotate(-135.000000) translate(-142.341360, -91.027652) translate(76.841360, 29.027652)">
                                <polygon id="Rectangle-22" fill="#3472FF" opacity="0.100000001" points="84.6458895 39.0043345 86.6548617 39.5543956 86.6548617 72.0080021 84.6458895 72.0080021"></polygon>
                                <g id="Group-7" transform="translate(68.340928, 35.309479)" fill="#FFC4A4">
                                    <path d="M6.84840061,4.33444906 C11.4928912,1.63358737 27.134805,7.8374311 29.8127532,12.5092681 L42.2656017,34.4578525 C44.9455284,39.1331412 43.353956,45.1120987 38.7084442,47.8135543 C34.0639536,50.514416 26.2067318,56.2302171 23.5287836,51.5583801 C23.5287836,51.5583801 16.0171914,50.7989103 13.6606913,44.8689439 C11.3041912,38.9389775 9.7113744,16.7878432 9.7113744,16.7878432 C7.03144766,12.1125545 2.20288883,7.0359046 6.84840061,4.33444906 Z" id="Rectangle-538" transform="translate(24.239307, 28.506237) rotate(-12.000000) translate(-24.239307, -28.506237) "></path>
                                    <path d="M24.3986022,43.4178318 C22.2091081,39.6810586 23.5150563,34.8991077 27.2982898,32.7468472 L27.2982898,32.7468472 C31.0892371,30.5901983 35.9331249,31.8639434 38.1268369,35.6079152 L52.4087084,59.9825478 C54.5982025,63.719321 53.2922544,68.5012719 49.5090209,70.6535324 L49.5090209,70.6535324 C45.7180735,72.8101814 40.8741858,71.5364362 38.6804737,67.7924644 L24.3986022,43.4178318 L24.3986022,43.4178318 Z" id="Rectangle-538" transform="translate(38.403655, 51.700190) rotate(29.000000) translate(-38.403655, -51.700190) "></path>
                                </g>
                                <g id="Group-18" filter="url(#filter-2)" transform="translate(44.282353, 55.555578) rotate(-14.000000) translate(-44.282353, -55.555578) translate(11.282353, 7.055578)">
                                    <rect id="Rectangle-21" fill="#A4DEFF" x="0" y="0" width="65.2915952" height="93.0103361"></rect>
                                    <path d="M57.2557066,4.00044456 L8.03588864,4.00044456 C8.03588864,6.20982909 6.23699369,8.00088913 4.01794432,8.00088913 L4.01794432,96.0106695 L61.2736509,96.0106695 L61.2736509,8.00088913 C59.0546015,8.00088913 57.2557066,6.20982909 57.2557066,4.00044456 Z" id="Combined-Shape" fill="#CEF0FF"></path>
                                    <path d="M7.20819211,27.1830208 L6.01285368,27.1830208 L6.01285368,18.1100125 L4.33937987,18.1100125 L5.07064573,16.9338818 L7.20819211,16.9338818 L7.20819211,27.1830208 Z M13.1507318,16.6818538 C14.2570113,16.6818538 15.133584,17.1462341 15.7804763,18.0750086 C16.4273686,19.0037832 16.7508099,20.3339177 16.7508099,22.0654521 C16.7508099,23.7969865 16.422681,25.1247875 15.7664135,26.0488948 C15.110146,26.9730021 14.2312295,27.4350488 13.1296376,27.4350488 C12.0280456,27.4350488 11.1749107,26.9800028 10.570207,26.0698971 C9.96550338,25.1597914 9.66315609,23.8203226 9.66315609,22.0514505 C9.66315609,20.2825785 9.96550338,18.9454432 10.570207,18.0400048 C11.1749107,17.1345663 12.035077,16.6818538 13.1507318,16.6818538 Z M13.1788574,26.3289259 C13.9476279,26.3289259 14.5452911,25.9578884 14.971865,25.2158022 C15.3984389,24.473716 15.6117227,23.4212762 15.6117227,22.0584513 C15.6117227,20.6956264 15.3914076,19.6501873 14.9507708,18.9221028 C14.5101341,18.1940182 13.9171584,17.8299814 13.171826,17.8299814 C12.4264936,17.8299814 11.8475805,18.1940182 11.4350695,18.9221028 C11.0225585,19.6501873 10.8163061,20.7049607 10.8163061,22.0864544 C10.8163061,24.9147829 11.6038153,26.3289259 13.1788574,26.3289259 Z M22.950498,16.6818538 C24.0567775,16.6818538 24.9333502,17.1462341 25.5802425,18.0750086 C26.2271348,19.0037832 26.5505761,20.3339177 26.5505761,22.0654521 C26.5505761,23.7969865 26.2224472,25.1247875 25.5661797,26.0488948 C24.9099122,26.9730021 24.0309957,27.4350488 22.9294038,27.4350488 C21.8278118,27.4350488 20.9746769,26.9800028 20.3699732,26.0698971 C19.7652696,25.1597914 19.4629223,23.8203226 19.4629223,22.0514505 C19.4629223,20.2825785 19.7652696,18.9454432 20.3699732,18.0400048 C20.9746769,17.1345663 21.8348432,16.6818538 22.950498,16.6818538 Z M22.9786236,26.3289259 C23.7473941,26.3289259 24.3450573,25.9578884 24.7716312,25.2158022 C25.1982051,24.473716 25.4114889,23.4212762 25.4114889,22.0584513 C25.4114889,20.6956264 25.1911738,19.6501873 24.750537,18.9221028 C24.3099003,18.1940182 23.7169246,17.8299814 22.9715922,17.8299814 C22.2262598,17.8299814 21.6473467,18.1940182 21.2348357,18.9221028 C20.8223247,19.6501873 20.6160723,20.7049607 20.6160723,22.0864544 C20.6160723,24.9147829 21.4035815,26.3289259 22.9786236,26.3289259 Z" id="100" stroke="#4C5C98" fill="#4C5C98" opacity="0.200000003" transform="translate(15.444978, 22.058451) rotate(-270.000000) translate(-15.444978, -22.058451) "></path>
                                </g>
                                <g id="Group-18" filter="url(#filter-3)" transform="translate(52.114019, 57.992617) rotate(3.000000) translate(-52.114019, -57.992617) translate(19.114019, 4.992617)">
                                    <rect id="Rectangle-21" fill="#B9E8FF" x="0" y="0" width="65.2915952" height="105.928438"></rect>
                                    <path d="M8.18738754,100.233361 L56.447759,100.233361 C56.4477506,100.229829 56.4477464,100.226296 56.4477464,100.222762 C56.4477464,97.9119804 58.2466414,96.038722 60.4656907,96.038722 C60.7424372,96.038722 61.0126487,96.0678578 61.2736509,96.1233446 L61.2736509,8.18448441 C59.0546015,8.18448441 57.2557066,6.31122596 57.2557066,4.00044456 L8.03588864,4.00044456 C8.03588864,6.31122596 6.23699369,8.18448441 4.01794432,8.18448441 L4.01794432,95.5666725 C4.07708527,95.5639818 4.13655807,95.5626224 4.19633577,95.5626224 C6.41538514,95.5626224 8.21428009,97.4358809 8.21428009,99.7466623 C8.21428009,99.9112889 8.20514972,100.073695 8.18738754,100.233361 Z" id="Combined-Shape" fill="#F0FDFF"></path>
                                    <path d="M7.2303146,26.9306308 L6.03497617,26.9306308 L6.03497617,17.8576226 L4.36150236,17.8576226 L5.09276822,16.6814919 L7.2303146,16.6814919 L7.2303146,26.9306308 Z M13.1728543,16.4294639 C14.2791338,16.4294639 15.1557065,16.8938442 15.8025988,17.8226187 C16.4494911,18.7513932 16.7729324,20.0815277 16.7729324,21.8130621 C16.7729324,23.5445965 16.4448035,24.8723975 15.788536,25.7965048 C15.1322685,26.7206121 14.253352,27.1826588 13.15176,27.1826588 C12.0501681,27.1826588 11.1970332,26.7276128 10.5923295,25.8175071 C9.98762587,24.9074014 9.68527858,23.5679327 9.68527858,21.7990606 C9.68527858,20.0301885 9.98762587,18.6930533 10.5923295,17.7876148 C11.1970332,16.8821763 12.0571995,16.4294639 13.1728543,16.4294639 Z M13.2009799,26.0765359 C13.9697504,26.0765359 14.5674136,25.7054984 14.9939875,24.9634122 C15.4205614,24.221326 15.6338451,23.1688863 15.6338451,21.8060614 C15.6338451,20.4432364 15.4135301,19.3977974 14.9728933,18.6697128 C14.5322565,17.9416283 13.9392809,17.5775914 13.1939485,17.5775914 C12.4486161,17.5775914 11.869703,17.9416283 11.457192,18.6697128 C11.044681,19.3977974 10.8384286,20.4525707 10.8384286,21.8340645 C10.8384286,24.6623929 11.6259378,26.0765359 13.2009799,26.0765359 Z M22.9726205,16.4294639 C24.0789,16.4294639 24.9554727,16.8938442 25.602365,17.8226187 C26.2492573,18.7513932 26.5726986,20.0815277 26.5726986,21.8130621 C26.5726986,23.5445965 26.2445697,24.8723975 25.5883022,25.7965048 C24.9320347,26.7206121 24.0531182,27.1826588 22.9515262,27.1826588 C21.8499343,27.1826588 20.9967994,26.7276128 20.3920957,25.8175071 C19.7873921,24.9074014 19.4850448,23.5679327 19.4850448,21.7990606 C19.4850448,20.0301885 19.7873921,18.6930533 20.3920957,17.7876148 C20.9967994,16.8821763 21.8569657,16.4294639 22.9726205,16.4294639 Z M23.0007461,26.0765359 C23.7695166,26.0765359 24.3671798,25.7054984 24.7937537,24.9634122 C25.2203276,24.221326 25.4336113,23.1688863 25.4336113,21.8060614 C25.4336113,20.4432364 25.2132963,19.3977974 24.7726595,18.6697128 C24.3320227,17.9416283 23.7390471,17.5775914 22.9937147,17.5775914 C22.2483823,17.5775914 21.6694692,17.9416283 21.2569582,18.6697128 C20.8444472,19.3977974 20.6381948,20.4525707 20.6381948,21.8340645 C20.6381948,24.6623929 21.425704,26.0765359 23.0007461,26.0765359 Z" id="100" stroke="#4C5C98" fill="#4C5C98" opacity="0.300000012" transform="translate(15.467100, 21.806061) rotate(-270.000000) translate(-15.467100, -21.806061) "></path>
                                    <path d="M42.1899551,88.8185845 L40.9946166,88.8185845 L40.9946166,79.7455762 L39.3211428,79.7455762 L40.0524087,78.5694455 L42.1899551,78.5694455 L42.1899551,88.8185845 Z M48.1324947,78.3174175 C49.2387743,78.3174175 50.115347,78.7817978 50.7622393,79.7105723 C51.4091316,80.6393468 51.7325728,81.9694813 51.7325728,83.7010158 C51.7325728,85.4325502 51.404444,86.7603511 50.7481765,87.6844584 C50.091909,88.6085657 49.2129924,89.0706125 48.1114005,89.0706125 C47.0098086,89.0706125 46.1566736,88.6155665 45.55197,87.7054608 C44.9472663,86.7953551 44.6449191,85.4558863 44.6449191,83.6870142 C44.6449191,81.9181421 44.9472663,80.5810069 45.55197,79.6755684 C46.1566736,78.7701299 47.0168399,78.3174175 48.1324947,78.3174175 Z M48.1606203,87.9644896 C48.9293909,87.9644896 49.5270541,87.593452 49.953628,86.8513659 C50.3802019,86.1092797 50.5934856,85.0568399 50.5934856,83.694015 C50.5934856,82.3311901 50.3731706,81.285751 49.9325338,80.5576664 C49.491897,79.8295819 48.8989213,79.4655451 48.1535889,79.4655451 C47.4082565,79.4655451 46.8293435,79.8295819 46.4168325,80.5576664 C46.0043215,81.285751 45.7980691,82.3405243 45.7980691,83.7220181 C45.7980691,86.5503465 46.5855783,87.9644896 48.1606203,87.9644896 Z M57.9322609,78.3174175 C59.0385405,78.3174175 59.9151132,78.7817978 60.5620055,79.7105723 C61.2088978,80.6393468 61.532339,81.9694813 61.532339,83.7010158 C61.532339,85.4325502 61.2042102,86.7603511 60.5479427,87.6844584 C59.8916752,88.6085657 59.0127586,89.0706125 57.9111667,89.0706125 C56.8095748,89.0706125 55.9564398,88.6155665 55.3517362,87.7054608 C54.7470325,86.7953551 54.4446853,85.4558863 54.4446853,83.6870142 C54.4446853,81.9181421 54.7470325,80.5810069 55.3517362,79.6755684 C55.9564398,78.7701299 56.8166061,78.3174175 57.9322609,78.3174175 Z M57.9603865,87.9644896 C58.7291571,87.9644896 59.3268203,87.593452 59.7533942,86.8513659 C60.1799681,86.1092797 60.3932518,85.0568399 60.3932518,83.694015 C60.3932518,82.3311901 60.1729367,81.285751 59.7323,80.5576664 C59.2916632,79.8295819 58.6986875,79.4655451 57.9533551,79.4655451 C57.2080227,79.4655451 56.6291097,79.8295819 56.2165987,80.5576664 C55.8040877,81.285751 55.5978353,82.3405243 55.5978353,83.7220181 C55.5978353,86.5503465 56.3853445,87.9644896 57.9603865,87.9644896 Z" id="100-copy" stroke="#4C5C98" fill="#4C5C98" opacity="0.300000012" transform="translate(50.426741, 83.694015) rotate(-90.000000) translate(-50.426741, -83.694015) "></path>
                                    <path d="M56.9507733,11.3901547 L56.9507733,83.8274191" id="Path-5" stroke="#ABD5FC" opacity="0.229999989"></path>
                                    <path d="M11.3901547,37.5875104 L11.3901547,95.5389343" id="Path-5-Copy" stroke="#B8C5E0" opacity="0.200000003"></path>
                                </g>
                                <path d="M84.6458895,71.007891 C84.7200733,69.3571949 86.3938725,71.5079466 86.3938725,71.5079466 L99.7131807,82.5091691 L86.3938725,74.2356667 C86.3938725,74.2356667 84.5717057,72.6585871 84.6458895,71.007891 Z" id="Path-3419-Copy" fill="#F7AE90"></path>
                                <g id="Group-17" transform="translate(81.146186, 83.876954) rotate(-16.000000) translate(-81.146186, -83.876954) translate(57.646186, 49.876954)">
                                    <path d="M1.45660677,17.0076931 C-1.54069065,11.5843934 0.235683552,4.65106753 5.42679838,1.52013906 L5.42679838,1.52013906 C10.6167721,-1.61010116 17.2540156,0.249060302 20.2511641,5.67209052 L44.7497529,49.9997533 C47.7470503,55.423053 45.9706761,62.3563789 40.7795613,65.4873074 L40.7795613,65.4873074 C35.5895876,68.6175476 28.9523441,66.7583861 25.9551956,61.3353559 L1.45660677,17.0076931 L1.45660677,17.0076931 Z" id="Rectangle-538" fill="#FFC4A4"></path>
                                    <path d="M3.17885483,15.4130163 C0.770354617,11.1377136 2.1997341,5.67086486 6.37351254,3.20125522 L6.37351254,3.20125522 C10.5463735,0.732188458 15.8781786,2.1903217 18.2901211,6.47173459 L18.9198389,7.58953996 C21.3283391,11.8648426 19.8989597,17.3316914 15.7251812,19.801301 L15.7251812,19.801301 C11.5523203,22.2703678 6.22051513,20.8122345 3.80857269,16.5308216 L3.17885483,15.4130163 L3.17885483,15.4130163 Z" id="Rectangle-538" fill="#FFF0ED"></path>
                                </g>
                            </g>
                        </g>
                        <g id="复制成功图" transform="translate(235.500000, 102.500000) rotate(-61.000000) translate(-235.500000, -102.500000) translate(215.000000, 82.000000)" fill="#FFFFFF" opacity="0.229999989">
                            <g id="收银-(1)-copy" transform="translate(20.347838, 20.324158) rotate(23.000000) translate(-20.347838, -20.324158) translate(4.847838, 4.824158)">
                                <path d="M28.8784556,5.99949506 L23.3003182,5.99949506 L23.3003182,3.49601989 C23.3024618,3.03600144 23.1207786,2.59418515 22.7956593,2.26872736 C22.47054,1.94326957 22.0289117,1.76109745 21.5688933,1.7627522 C21.1088748,1.76109745 20.6672466,1.94326957 20.3421273,2.26872736 C20.0170079,2.59418515 19.8353247,3.03600144 19.8374684,3.49601989 L19.8374684,5.99949506 L18.1060434,5.99949506 L18.1060434,1.76215047 C18.1078486,1.30232006 17.926015,0.860804639 17.6009333,0.535610104 C17.2758515,0.210415569 16.8344113,0.0284690948 16.3746185,0.0300862297 C15.9146001,0.0284690948 15.4729342,0.210603608 15.1478149,0.536061397 C14.8227332,0.861519187 14.64105,1.30333547 14.6431936,1.76335392 L14.6431936,5.99889333 L12.9123704,5.99889333 L12.9123704,3.49601989 C12.9145141,3.03600144 12.7328309,2.59418515 12.4077115,2.26872736 C12.0825922,1.94326957 11.640964,1.76109745 11.1809455,1.7627522 C10.7209271,1.76109745 10.2792988,1.94326957 9.95417952,2.26872736 C9.6290602,2.59418515 9.44737698,3.03600144 9.44952062,3.49601989 L9.44952062,5.99949506 L7.71809571,5.99949506 L7.71809571,5.22928758 C7.72023936,4.76938195 7.53863135,4.32764088 7.21366246,4.0022207 C6.88869358,3.67676291 6.44721576,3.49455318 5.98727253,3.49601989 C5.52725408,3.49436515 5.08562583,3.67653727 4.76050651,4.00199506 C4.43538719,4.32745284 4.25374158,4.76926913 4.25584762,5.22928758 L4.25584762,5.99949506 L1.56320528,5.99949506 C0.601386123,5.99949506 0.0240313759,6.76970254 0.0240313759,7.53991002 L0.0240313759,23.1363106 C0.0240313759,23.9065181 0.793637131,24.6767256 1.56320528,24.6767256 L6.17952354,24.6767256 C7.1413803,28.1426592 10.9886945,30.8383854 15.6056521,30.8383854 C20.0297194,30.8383854 24.0692846,28.1426592 25.0311038,24.6767256 L29.2635593,24.6767256 C30.2247768,24.6767256 30.8021315,23.9065181 30.8021315,23.1363106 L30.8021315,7.53930829 C30.4176295,6.57684981 29.6480613,5.99889333 28.8784556,5.99889333 L28.8784556,5.99949506 Z M27.1470307,21.5958957 L24.8388904,21.5958957 L24.8388904,20.6328354 C24.840846,20.1729298 24.6591251,19.731264 24.3340058,19.405919 C24.0089241,19.080574 23.5673711,18.8985147 23.1074654,18.9001695 C22.6474094,18.8985147 22.2057811,19.0806869 21.8806618,19.4061446 C21.5555425,19.7316024 21.3738969,20.1734187 21.3760405,20.6334372 L21.3760405,21.5958957 L2.71731305,21.5958957 L2.71731305,9.07972325 L27.14767,9.07972325 L27.14767,21.5958957 L27.1470307,21.5958957 L27.1470307,21.5958957 Z" id="Fill-1"></path>
                                <path d="M13.6819762,15.8193396 L13.6819762,16.397296 L11.3737983,16.397296 C10.9886945,16.397296 10.6035908,16.397296 10.4119791,16.589547 C10.2191264,16.7823998 10.0268754,16.9746508 10.0268754,17.3597545 C10.0268754,17.7448583 10.0268754,17.937711 10.2191264,18.129962 C10.4119791,18.3228147 10.7964811,18.3228147 11.1809455,18.3228147 L13.4897252,18.3228147 L13.4897252,20.4405844 C13.4897252,20.6334372 13.4897252,20.8256882 13.8742272,21.0185409 C14.0664406,21.2107919 14.4515443,21.2107919 14.8360464,21.2107919 C15.2205484,21.2107919 15.6056521,21.2107919 15.7978655,21.0179392 C15.9901165,20.8256882 16.1823675,20.6334372 16.1823675,20.4405844 L16.1823675,18.322213 L18.8756116,18.322213 C19.0678626,18.322213 19.4529663,18.322213 19.4529663,18.129962 C19.6452173,17.9371093 19.6452173,17.7448583 19.6452173,17.3597545 C19.6452173,16.781798 19.2607153,16.3966943 18.6833982,16.3966943 L15.9907559,16.3966943 L15.9907559,15.8193396 L19.2607153,11.1980947 C19.4529663,10.8129909 19.6452173,10.6201382 19.6452173,10.4278872 C19.6452173,10.2350345 19.4529663,10.0427835 19.0678626,9.84993073 C18.6833982,9.65767972 18.2988962,9.65767972 18.1066452,9.65767972 C17.7215414,9.65767972 17.5292904,9.85053246 17.3364377,10.2356362 L14.6437954,14.0866736 L11.7583003,10.2356362 C11.5660493,10.0427835 11.3737983,9.85053246 10.9886945,9.85053246 C10.6042301,9.85053246 10.4119791,9.85053246 10.0274771,10.0427835 C9.83462436,10.2356362 9.64237335,10.4278872 9.64237335,10.6207399 C9.64237335,10.8129909 9.64237335,11.0058437 9.83462436,11.1980947 L13.6819762,15.8193396" id="Fill-2"></path>
                            </g>
                        </g>
                        <path d="M55.2943092,88.6562677 L52.3910583,92.5272979 L53.8723017,92.5272979 C54.3083903,92.5272979 54.6622866,92.8811941 54.6622866,93.3172828 C54.6622866,93.7533715 54.3083903,94.1072677 53.8723017,94.1072677 L51.2060375,94.1072677 L51.1072677,94.2388017 L51.1072677,95.2922885 L53.8723017,95.2922885 C54.3083903,95.2922885 54.6622866,95.6462281 54.6622866,96.0823168 C54.6622866,96.518362 54.3083903,96.8723017 53.8723017,96.8723017 L51.1072677,96.8723017 L51.1072677,99.6373356 C51.1072677,100.073381 50.7533715,100.427321 50.3172828,100.427321 C49.8811941,100.427321 49.5272979,100.073381 49.5272979,99.6373356 L49.5272979,96.8723017 L46.7622639,96.8723017 C46.3261752,96.8723017 45.972279,96.518362 45.972279,96.0823168 C45.972279,95.6462281 46.3261752,95.2922885 46.7622639,95.2922885 L49.5272979,95.2922885 L49.5272979,94.2388017 L49.4285281,94.1072677 L46.7622639,94.1072677 C46.3261752,94.1072677 45.972279,93.7533715 45.972279,93.3172828 C45.972279,92.8811941 46.3261752,92.5272979 46.7622639,92.5272979 L48.2435073,92.5272979 L45.3402564,88.6562677 C45.0783602,88.3070583 45.149096,87.8117337 45.4978715,87.5502715 C45.8486432,87.2875941 46.3427526,87.3598488 46.6038677,87.7078432 L50.218513,92.5272979 L50.4164432,92.5272979 L54.0306979,87.7082337 C54.2922035,87.3598488 54.7867469,87.2879847 55.1366941,87.550662 C55.4854696,87.8117337 55.5562054,88.3070583 55.2943092,88.6562677 Z M61.7723243,93.3172828 C61.7723243,99.6436281 56.6436281,104.772324 50.3172828,104.772324 C43.9909375,104.772324 38.8622413,99.6436281 38.8622413,93.3172828 C38.8622413,86.9909375 43.9909375,81.8622413 50.3172828,81.8622413 C56.6436281,81.8622413 61.7723243,86.9909375 61.7723243,93.3172828 Z M59.8905337,93.3172828 C59.8905337,88.0301903 55.6043752,83.7440318 50.3172828,83.7440318 C45.0301903,83.7440318 40.7440318,88.0301903 40.7440318,93.3172828 C40.7440318,98.6043752 45.0301903,102.890534 50.3172828,102.890534 C55.6043752,102.890534 59.8905337,98.6043752 59.8905337,93.3172828 L59.8905337,93.3172828 Z" id="人民币-(1)-copy" fill="#FFFFFF" opacity="0.188688859" transform="translate(50.317283, 93.317283) rotate(26.000000) translate(-50.317283, -93.317283) "></path>
                    </g>
                    <path d="M257.735631,50.7409145 C257.440815,50.7191356 257.214273,50.5962901 257.055964,50.3724602 C256.897677,50.1486304 256.802075,49.9002067 256.769345,49.6272715 C256.802075,49.3542542 256.897677,49.1304243 257.055964,48.9557408 C257.214273,48.7810368 257.440815,48.6828057 257.735631,48.6610062 L260.896555,48.6610062 L260.896555,47.6291369 L257.735631,47.6128233 C257.440815,47.5909621 257.214273,47.4872451 257.055964,47.3016311 C256.897677,47.1159966 256.802075,46.8812156 256.769345,46.5973293 C256.802075,46.3243941 256.897677,46.1005642 257.055964,45.9258602 C257.214273,45.7511768 257.440815,45.652925 257.735631,45.6310639 L260.094043,45.6310639 L257.899384,41.7658792 C257.790202,41.6349179 257.686505,41.4684118 257.588274,41.266402 C257.48994,41.0644332 257.44628,40.8432744 257.45721,40.6031309 C257.511822,40.2973834 257.620984,40.0489598 257.784757,39.8579216 C257.94851,39.6668423 258.254258,39.5439763 258.701897,39.4894057 C258.963984,39.5112873 259.198744,39.6013001 259.406178,39.7596082 C259.613674,39.917978 259.782892,40.0899289 259.913853,40.2755018 L262.403329,44.8285309 L265.138351,40.2427717 C265.269415,40.0571577 265.438654,39.8933843 265.646129,39.7514103 C265.853543,39.6095185 266.088303,39.5221357 266.350328,39.4894057 C266.514163,39.5003362 266.664253,39.5221357 266.800762,39.5549274 C266.937209,39.5876574 267.057322,39.642228 267.161039,39.7187008 C267.264756,39.7951531 267.352138,39.9043354 267.423105,40.0462066 C267.494112,40.1882011 267.545971,40.3738357 267.57868,40.6031309 C267.57868,40.9197266 267.469498,41.2199882 267.251133,41.5038745 L264.712594,45.6310639 L267.120131,45.6310639 C267.403997,45.652925 267.627827,45.7511768 267.7916,45.9258602 C267.955353,46.1005642 268.048222,46.3243941 268.070001,46.5973293 C268.048222,46.8812156 267.952723,47.1214207 267.783402,47.3180064 C267.614164,47.5144893 267.387601,47.6237333 267.103735,47.6455328 L263.975624,47.6619286 L263.975624,48.6610062 L267.120131,48.6610062 C267.403997,48.6828057 267.627827,48.7919674 267.7916,48.9885531 C267.955353,49.185036 268.048222,49.4197759 268.070001,49.6928138 C268.048222,49.9766795 267.955374,50.2141726 267.7916,50.4052108 C267.627827,50.5963107 267.403997,50.7027603 267.120131,50.7246214 L263.975624,50.7082256 L263.975624,52.4442939 C263.931881,53.3723846 263.424185,53.8364196 262.452434,53.8364196 C261.972065,53.8364196 261.598063,53.7217926 261.330593,53.4924152 C261.063041,53.2631201 260.918396,52.9138148 260.896555,52.4442939 L260.896555,50.7409145 L257.735631,50.7409145 Z" id="人民币-(2)" fill="#FFFFFF" opacity="0.100000001" transform="translate(262.419673, 46.662913) rotate(-29.000000) translate(-262.419673, -46.662913) "></path>
                </g>
            </g>
        </g>
    </g>
</svg>