<?xml version="1.0" encoding="UTF-8"?>
<svg width="24px" height="24px" viewBox="0 0 24 24" version="1.1" xmlns="http://www.w3.org/2000/svg" xmlns:xlink="http://www.w3.org/1999/xlink">
    <!-- Generator: Sketch 46.2 (44496) - http://www.bohemiancoding.com/sketch -->
    <title>Combined Shape@2x</title>
    <desc>Created with Sketch.</desc>
    <defs>
        <circle id="path-1" cx="12" cy="12" r="12"></circle>
    </defs>
    <g id="Page-1" stroke="none" stroke-width="1" fill="none" fill-rule="evenodd">
        <g id="选择付款方式-同线上-copy-25" transform="translate(-190.000000, -292.000000)">
            <g id="Group-5" transform="translate(14.000000, 149.000000)">
                <g id="Group-4" transform="translate(0.000000, 122.000000)">
                    <g id="Combined-Shape" transform="translate(176.000000, 21.000000)">
                        <mask id="mask-2" fill="white">
                            <use xlink:href="#path-1"></use>
                        </mask>
                        <use id="Mask" fill="#389BF2" xlink:href="#path-1"></use>
                        <path d="M14.408967,14.701452 C12.7379935,16.7757211 10.5771787,18.0339543 8.34002504,18.0339543 C4.55064724,18.0339543 3.2634887,14.6907709 5.05745267,12.4904648 C5.44974975,12.0162241 6.11347401,11.5569369 7.14829011,11.3005906 C8.76200947,10.8989813 11.3320855,11.5483921 13.7410017,12.3494744 C14.1905529,11.5142125 14.5489216,10.6319539 14.8118667,9.71765198 L7.38790941,9.71765198 L7.38790941,8.96143029 L11.2154567,8.96143029 L11.2154567,7.60279471 L6.57998947,7.60279471 L6.57998947,6.84230058 L11.2154567,6.84230058 L11.2154567,4.90261331 C11.2154567,4.90261331 11.2154567,4.57790795 11.544138,4.57790795 L13.4165614,4.57790795 L13.4165614,6.84230058 L18.001136,6.84230058 L18.001136,7.60065849 L13.4165614,7.60065849 L13.4165614,8.96143029 L17.1571671,8.96143029 C16.8178831,10.3734714 16.2835109,11.7321069 15.5710146,12.9946126 C16.7097364,13.406903 17.7285723,13.8038041 18.4888567,14.0584499 C21.3,15 23.5893191,15.869174 23.5850781,15.869174 L22.7414064,18.2869575 C22.7414064,18.2869575 16.9069452,15.9126884 14.408967,14.701452 Z M7.4727304,12.4349231 C6.99561232,12.4797837 6.10499191,12.6955419 5.62151226,13.1291945 C4.16047068,14.4109261 5.03624742,16.7564951 7.98801793,16.7564951 C9.705643,16.7564951 11.4211476,15.6499334 12.7676808,13.8790075 C10.8507264,12.9369347 9.2264044,12.2597531 7.4727304,12.4349231 Z" fill="#FFFFFF" mask="url(#mask-2)"></path>
                    </g>
                </g>
            </g>
        </g>
    </g>
</svg>