<?xml version="1.0" encoding="UTF-8"?>
<svg width="18px" height="18px" viewBox="0 0 18 18" version="1.1" xmlns="http://www.w3.org/2000/svg" xmlns:xlink="http://www.w3.org/1999/xlink">
    <!-- Generator: Sketch 46.2 (44496) - http://www.bohemiancoding.com/sketch -->
    <title>Group 7@2x</title>
    <desc>Created with Sketch.</desc>
    <defs></defs>
    <g id="Page-1" stroke="none" stroke-width="1" fill="none" fill-rule="evenodd">
        <g id="选择付款方式-同线上-copy-11" transform="translate(-549.000000, -491.000000)">
            <g id="Group-10-Copy" transform="translate(314.000000, 145.000000)">
                <g id="Group-8-Copy" transform="translate(14.000000, 335.000000)">
                    <g id="Group-7" transform="translate(221.000000, 11.000000)">
                        <circle id="Oval-2" fill="#1188F6" cx="9" cy="9" r="9"></circle>
                        <path d="M9.38030916,11.1045554 C9.38963514,11.1092183 9.39773276,11.1173279 9.40701104,11.1208222 C9.57644092,11.2020607 9.78532135,11.1753708 9.92107276,11.0314621 L13.0229025,7.75210487 C13.1923324,7.57340864 13.1841751,7.29142303 13.0054789,7.12199315 C12.8267827,6.95261098 12.5447971,6.96072052 12.3753672,7.13941675 L9.59152706,10.0822517 L6.76701993,7.15102056 C6.59643325,6.97348113 6.31444764,6.96881814 6.13690822,7.13941675 C6.0464033,7.22643933 6,7.34364612 6,7.45968418 C6,7.57107118 6.04178801,7.68250588 6.12531634,7.76835974 L9.25733029,11.0175328 C9.26310237,11.0233645 9.27241643,11.02569 9.27820044,11.0326308 C9.2828515,11.0372938 9.28629806,11.0418972 9.29096105,11.0477289 C9.317651,11.0744189 9.35012496,11.0871795 9.38030916,11.1045554 Z" id="箭头-(4)" fill="#FFFFFF" transform="translate(9.572457, 9.083100) rotate(-90.000000) translate(-9.572457, -9.083100) "></path>
                    </g>
                </g>
            </g>
        </g>
    </g>
</svg>