<?xml version="1.0" encoding="UTF-8"?>
<svg width="20px" height="20px" viewBox="0 0 20 20" version="1.1" xmlns="http://www.w3.org/2000/svg" xmlns:xlink="http://www.w3.org/1999/xlink">
    <!-- Generator: Sketch 46.2 (44496) - http://www.bohemiancoding.com/sketch -->
    <title>百度@2x</title>
    <desc>Created with Sketch.</desc>
    <defs>
        <circle id="path-1" cx="10" cy="10" r="10"></circle>
    </defs>
    <g id="Page-1" stroke="none" stroke-width="1" fill="none" fill-rule="evenodd">
        <g id="百度">
            <mask id="mask-2" fill="white">
                <use xlink:href="#path-1"></use>
            </mask>
            <use id="Mask" fill="#F25448" xlink:href="#path-1"></use>
            <g id="百度钱包" mask="url(#mask-2)" fill="#FFFFFF">
                <g transform="translate(5.000000, 3.750000)">
                    <path d="M10.5617568,6.40234456 C10.5406654,6.32024884 10.4774222,6.0123711 10.4352703,5.95079555 C9.61310847,3.8161715 7.96878475,3.46723837 6.70392034,3.50829375 C6.2190505,3.52881392 5.75527203,3.67250023 5.37581271,3.83669167 C7.18877473,3.89826722 8.6433688,5.33504006 8.6433688,7.12073098 C8.6433688,8.92694208 7.12553151,10.4047553 5.2704022,10.4047553 C3.41527288,10.4047553 1.89743559,8.92694208 1.89743559,7.12073098 C1.89743559,6.71022231 1.98175474,6.34076901 2.10824118,5.97131572 L2.10824118,5.95079555 C3.30986237,3.03620953 7.94769338,1.55839635 9.17040593,1.4968208 C9.86608136,1.45578045 9.69742762,1.06579195 9.69742762,1.06579195 C9.29689237,-0.309390301 8.03202797,0.0395428219 8.03202797,0.0395428219 C3.26769507,1.72260282 0.147701349,0.0190076168 0.147701349,0.0190076168 C0.147701349,0.0190076168 0.358506936,1.92784964 2.4877005,2.58466051 L2.44553321,2.68729144 C2.44553321,2.68729144 2.23472762,2.83096271 2.04499796,2.99516918 C0.759057625,3.9393226 0.000138981212,5.43765595 0.000138981212,7.12073098 C-0.0209523857,9.99424659 2.36121406,12.3135973 5.31256949,12.3135973 C8.24283355,12.3135973 10.625,9.99424659 10.625,7.14125115 C10.625,6.89494896 10.6039086,6.64864676 10.5617568,6.40234456" id="Fill-1"></path>
                    <path d="M5.37305787,9.28779465 L6.762666,7.97581828 C6.88899401,7.85282143 6.88899401,7.66832616 6.762666,7.54532931 L5.52043541,6.33587033 C5.3941074,6.21287348 5.20461538,6.21287348 5.07828737,6.33587033 L3.62551524,7.66832616 L5.37305787,9.28779465" id="Fill-2"></path>
                </g>
            </g>
        </g>
    </g>
</svg>