<?xml version="1.0" encoding="UTF-8"?>
<svg width="24px" height="24px" viewBox="0 0 24 24" version="1.1" xmlns="http://www.w3.org/2000/svg" xmlns:xlink="http://www.w3.org/1999/xlink">
    <!-- Generator: Sketch 46.2 (44496) - http://www.bohemiancoding.com/sketch -->
    <title>会员卡图标@2x</title>
    <desc>Created with Sketch.</desc>
    <defs>
        <linearGradient x1="27.8701491%" y1="9.66553836%" x2="75.0176266%" y2="86.8899646%" id="linearGradient-1">
            <stop stop-color="#43FA96" offset="0%"></stop>
            <stop stop-color="#3EDB9D" offset="100%"></stop>
        </linearGradient>
    </defs>
    <g id="Page-1" stroke="none" stroke-width="1" fill="none" fill-rule="evenodd">
        <g id="选择付款方式-同线上-copy-25" transform="translate(-258.000000, -373.000000)">
            <g id="Group-5" transform="translate(14.000000, 149.000000)">
                <g id="Group-4-Copy-3" transform="translate(0.000000, 203.000000)">
                    <g id="会员卡图标" transform="translate(244.000000, 21.000000)">
                        <circle id="Oval" fill="url(#linearGradient-1)" cx="12" cy="12" r="12"></circle>
                        <path d="M3.75002223,9.89395541 C3.75002223,9.57608279 3.80422376,9.34940569 3.90649079,9.21201215 C4.0107587,9.07661949 4.24043712,9.0104127 4.60046155,9.0104127 L6.81492078,9.0104127 L6.81492078,17.8417491 L5.86408191,17.8417491 C5.60941477,17.8417491 5.35966088,17.8397705 5.11197457,17.8337901 C4.86224292,17.8297661 4.69372464,17.8257421 4.60148422,17.8257421 C4.28961423,17.8378141 4.06996242,17.7846352 3.9426622,17.665294 C3.81620679,17.547976 3.7510449,17.322366 3.7510449,16.9933774 L3.7510449,14.4511745 C3.7510449,14.3217178 3.77301008,14.2233636 3.81227173,14.1613142 C3.85131106,14.0971305 3.93554797,14.0519552 4.06293712,14.0278335 C4.11002442,14.0278335 4.17122902,14.0098034 4.25442103,13.9747658 C4.33370021,13.9376829 4.41491358,13.8804578 4.4951932,13.8042244 C4.57538389,13.727991 4.64559243,13.6297924 4.70275081,13.5043374 C4.75988696,13.3819949 4.78996681,13.2325739 4.78996681,13.054029 C4.78996681,12.7832881 4.71884676,12.5727292 4.57436122,12.419262 C4.42996462,12.2668174 4.27545247,12.1765111 4.11302574,12.1554797 C3.98768193,12.1324252 3.89439661,12.0923409 3.83721599,12.0401625 C3.77905718,11.985005 3.75,11.8947432 3.75,11.7653754 L3.75,9.89395541 L3.75002223,9.89395541 M5.18720754,8.21617579 L5.18720754,7.75586298 C5.18720754,7.52222727 5.27835859,7.30244207 5.45592529,7.10293243 C5.63342529,6.90340055 5.82802167,6.80206726 6.03557928,6.80206726 L8.42649361,6.80206726 L8.42649361,8.21619802 L5.18720754,8.21619802 L5.18720754,8.21617579 M19.3007697,12.0481883 C19.2104857,12.0731547 19.1422558,12.1224208 19.1011044,12.2005217 C19.0639992,12.2748654 19.0399887,12.360992 19.0399887,12.453388 C19.0399887,12.5495413 19.0630877,12.6398475 19.1011044,12.7271524 C19.1422558,12.8174142 19.2104857,12.8795525 19.3007697,12.9137008 C19.3930101,12.9507838 19.4672204,13.0209701 19.5184428,13.1253047 C19.5715328,13.2325961 19.6005899,13.3428667 19.6045917,13.4622301 C19.6105943,13.5795259 19.5946095,13.6928867 19.5614394,13.7971991 C19.5263796,13.9025564 19.4752461,13.9797457 19.4070385,14.0278557 C19.1763596,14.1692732 19.0620651,14.3277204 19.0620651,14.5041978 C19.0620651,14.6807196 19.1754259,14.8592422 19.4070385,15.0327849 C19.4542369,15.0698901 19.4952771,15.135052 19.536384,15.2262697 C19.5755345,15.3226453 19.5955433,15.4159306 19.5955433,15.5121728 C19.5955433,15.6064141 19.5745118,15.6866715 19.5273134,15.7567466 C19.4802038,15.8290227 19.4000132,15.864127 19.2846737,15.864127 L18.350042,15.864127 C18.2838574,15.864127 18.2445958,15.8580577 18.2406607,15.8441405 C18.2346136,15.8320018 18.2426393,15.812949 18.2636708,15.7848923 C18.2868365,15.7538565 18.3148932,15.7216868 18.350042,15.6845817 C18.3850795,15.6495663 18.4131363,15.6083483 18.4382584,15.5612165 C18.4953723,15.3968111 18.4953723,15.2554158 18.4382584,15.1380311 C18.3790991,15.0186232 18.2838796,14.9204468 18.142351,14.8381663 C18.0501995,14.791079 17.9818806,14.7168465 17.9447977,14.614535 C17.9037575,14.516292 17.8876838,14.4130245 17.8937309,14.3066668 C17.897666,14.1993531 17.916741,14.1070904 17.9528235,14.0248544 C17.9879722,13.940573 18.0411511,13.8814805 18.1072911,13.8463317 C18.2016214,13.8112052 18.2697623,13.7460433 18.3148932,13.6527802 C18.3620917,13.5604287 18.3850795,13.4592065 18.3850795,13.3528266 C18.3850795,13.24658 18.3650708,13.149293 18.3339238,13.0610543 C18.2988862,12.9728379 18.2477749,12.9105884 18.175521,12.8764401 C18.0852148,12.8273741 18.0130721,12.7591887 17.959871,12.6629021 C17.907737,12.5726403 17.8827038,12.4673719 17.8827038,12.3490534 C17.8827038,12.2297122 17.9037131,12.1163292 17.9508226,12.0039689 C17.9979321,11.8917419 18.070186,11.800413 18.1744761,11.7302267 C18.24673,11.6830949 18.3038217,11.6189335 18.3489748,11.536653 C18.3981297,11.4524828 18.4191611,11.3661783 18.4291655,11.2718925 C18.4352571,11.1766286 18.4131807,11.0863668 18.3759867,10.9981281 C18.3349465,10.9088668 18.2626926,10.8366129 18.1584024,10.7774759 C18.0451083,10.7193171 17.9588706,10.6320344 17.907737,10.5217416 C17.8566035,10.4094924 17.8295028,10.2930636 17.8295028,10.176746 C17.8295028,10.057427 17.8566035,9.94704534 17.907737,9.83982058 C17.9588706,9.73553044 18.0311244,9.65129352 18.1233649,9.5910449 C18.318895,9.48679922 18.4291878,9.34129102 18.4443277,9.15985596 C18.4623578,8.97733154 18.4482628,8.80779058 18.401131,8.65739135 C18.3640481,8.53805016 18.2968631,8.43273735 18.1955076,8.33840713 C18.0902837,8.24318763 17.9569141,8.19710076 17.7964216,8.19710076 L9.48449054,8.19710076 L9.48449054,6.80204503 L19.2344962,6.80204503 C19.3147758,6.80204503 19.3809381,6.83214711 19.438141,6.89028369 C19.4973002,6.94944295 19.5363618,7.01962926 19.5534804,7.1029102 C19.5715105,7.18516846 19.5655301,7.27040581 19.5353613,7.35864448 C19.5083495,7.44592717 19.4531698,7.52211611 19.370956,7.58127536 C19.3007697,7.64050132 19.2395206,7.71473384 19.1884093,7.80995334 C19.1353416,7.90419464 19.110175,8.00054797 19.1001929,8.10179233 C19.0961467,8.20308116 19.1121537,8.30130198 19.1453238,8.4026575 C19.1783827,8.50190099 19.2415882,8.57611129 19.3348513,8.62330974 C19.4641968,8.69349605 19.5585271,8.79078313 19.6206654,8.91317009 C19.6847824,9.03651303 19.7179747,9.15987819 19.7179747,9.282154 C19.7179747,9.40758674 19.6847824,9.52185903 19.6217103,9.62719408 C19.5585271,9.73448553 19.4712221,9.81167491 19.35486,9.85682803 C19.2274709,9.90602737 19.1332518,9.97216746 19.0770939,10.0604284 C19.0179124,10.1496452 18.9888552,10.246999 18.9808072,10.3512669 C18.9747379,10.4576246 18.9969032,10.5609143 19.0469918,10.6601578 C19.1001929,10.7615133 19.1844965,10.8487738 19.2997248,10.9188712 C19.4150642,10.9871233 19.5013464,11.0813424 19.5524577,11.2007725 C19.6036802,11.3171123 19.6247116,11.4344304 19.6205987,11.5537716 C19.6146183,11.6709563 19.5855389,11.7794038 19.5344276,11.8806037 C19.4812487,11.9789357 19.4059935,12.0361385 19.3007697,12.0481883 M17.050228,11.7834278 C16.9128567,11.8184654 16.8056764,11.8877179 16.7292873,11.985005 C16.655077,12.087272 16.6159932,12.1885831 16.6079675,12.2968305 C16.6039435,12.4022545 16.6330229,12.5085011 16.6942275,12.6158148 C16.7604121,12.7201049 16.8527414,12.7962938 16.9820203,12.8434701 C17.0954033,12.892536 17.1835975,12.9628557 17.2408226,13.0549627 C17.2999818,13.1513383 17.3311288,13.2506263 17.337087,13.3569617 C17.3430674,13.4632528 17.3211022,13.5645638 17.2759713,13.6568042 C17.2308404,13.7511345 17.160543,13.8233439 17.0683915,13.8684081 C16.780532,14.0118709 16.6291101,14.1823456 16.6200395,14.3818997 C16.6059444,14.5814761 16.7163039,14.7398566 16.9469827,14.8602649 C17.0512729,14.9073522 17.1354875,14.9796283 17.1976481,15.0798722 C17.261854,15.1801829 17.2959579,15.2855179 17.3029832,15.3987675 C17.3089413,15.5081266 17.2868872,15.6103936 17.2397999,15.6966314 C17.1946468,15.788983 17.1184801,15.8470529 17.0161241,15.8851362 C16.8766852,15.9202849 16.7714391,15.9833793 16.6932048,16.0788211 C16.6209732,16.1709726 16.5819116,16.2723059 16.5759312,16.3765738 C16.5679055,16.485955 16.5969404,16.590134 16.6620801,16.6955802 C16.7252856,16.802805 16.8265966,16.890977 16.9639902,16.9622304 C17.0582982,17.0094289 17.1223929,17.0836169 17.1635443,17.1819711 C17.2046734,17.2842159 17.2187685,17.3795021 17.2087641,17.4737434 C17.1946468,17.5680514 17.1635443,17.6542447 17.1103432,17.7284328 C17.0592986,17.8066671 16.9870892,17.84375 16.8927812,17.84375 L7.83683523,17.84375 L7.83683523,9.0104127 L16.9971603,9.0104127 C17.0894007,9.0104127 17.1636332,9.04660634 17.2167231,9.12575213 C17.2679233,9.20203 17.2949352,9.28622244 17.3029832,9.38157534 C17.3089413,9.47679484 17.2869761,9.57010239 17.2397999,9.66334325 C17.1946468,9.7566508 17.1184801,9.82279089 17.0161241,9.85691696 C16.911834,9.89299944 16.8276193,9.95215869 16.7634134,10.034417 C16.6992964,10.1156303 16.6631028,10.2089156 16.6501193,10.3071142 C16.6401149,10.4084698 16.6641477,10.5037782 16.7203056,10.5990421 C16.7794649,10.6942394 16.8767519,10.7645591 17.0161241,10.8106015 C17.1184579,10.8578222 17.2046289,10.9279196 17.2668784,11.0231613 C17.329039,11.1184031 17.3671668,11.2137337 17.3711686,11.3129772 C17.377149,11.4162669 17.3530273,11.5086185 17.3029387,11.5989025 C17.2518496,11.6851625 17.167546,11.748368 17.050228,11.7834278 M12.8763324,12.9688361 C12.8211971,12.9688361 12.7589254,12.9628557 12.6937857,12.9507838 C12.6315584,12.9367554 12.6195087,12.9016289 12.6506335,12.8434923 C12.6646396,12.8224609 12.7188411,12.7381795 12.8170842,12.596762 C12.9153939,12.4534103 13.0227076,12.3048785 13.1460728,12.1464313 C13.2673926,11.985961 13.3767516,11.8364955 13.485088,11.6961229 C13.5874217,11.5547276 13.6515387,11.4665111 13.6735706,11.4293838 C13.7327521,11.3371211 13.6966696,11.2258057 13.5692804,11.0954374 C13.5481601,11.0713158 13.5010505,11.035211 13.4299305,10.9871011 C13.3637459,10.9409475 13.29954,10.9058877 13.2423372,10.8828109 C13.1481181,10.8487738 13.0818669,10.8416818 13.0407377,10.8657813 C13.0036548,10.8888803 12.9524991,10.9409475 12.8954074,11.0242062 C12.8723084,11.0583323 12.8151278,11.1445701 12.7209087,11.2790068 C12.629602,11.417334 12.5313812,11.5598632 12.4269799,11.7132193 C12.3236902,11.8676202 12.2274258,12.0050138 12.1411658,12.1264448 C12.053016,12.2517663 12.0048171,12.323998 11.9947016,12.3490534 C11.9727364,12.3942065 11.9275833,12.4142153 11.8633774,12.4022323 C11.8002164,12.3901826 11.7580646,12.360992 11.7361216,12.3139047 C11.7220043,12.2909391 11.6718935,12.2216643 11.5786304,12.1083035 C11.4853228,11.9990334 11.3859904,11.8736896 11.2837234,11.7303379 C11.1813897,11.5867638 11.0801453,11.4585299 10.9818355,11.3330971 C10.8825921,11.2087982 10.8173412,11.1245835 10.7813699,11.0754287 C10.6769686,10.8757856 10.5677208,10.8116464 10.453404,10.8827887 C10.3721017,10.9289867 10.2988918,10.9790531 10.2347082,11.0312982 C10.1715249,11.0864557 10.1114097,11.1305417 10.0542069,11.1666242 C9.93886742,11.2469483 9.92183774,11.3542175 10.0020507,11.4835631 C10.197603,11.718177 10.3721017,11.9358724 10.5225676,12.1374274 C10.6488452,12.3019217 10.769209,12.4584124 10.886616,12.6157925 C11.0009106,12.7662585 11.0700964,12.8544971 11.092195,12.880553 C11.1162278,12.9257061 11.092195,12.9507615 11.0229424,12.9507615 L10.817319,12.9507615 C10.7602273,12.9507615 10.67499,12.9527179 10.5666759,12.9588095 C10.4553382,12.9648566 10.3540271,12.9628335 10.2607418,12.9507615 C10.169524,12.9507615 10.0932462,12.9717707 10.0351541,13.0210145 C9.97895165,13.0661899 9.96092153,13.1252602 9.98495428,13.1954243 C9.99607027,13.2447126 10.0020284,13.3148099 10.0020284,13.4071393 L10.0020284,13.6227671 C10.0020284,13.6798588 10.0181244,13.7129399 10.0542069,13.7189203 C10.0893334,13.7239448 10.1283949,13.7260568 10.1755044,13.7260568 L11.1804337,13.7260568 C11.3167823,13.7260568 11.3859682,13.7551362 11.3859682,13.8142955 L11.3859682,14.1492422 C11.3859682,14.2104691 11.375986,14.2395485 11.351931,14.2395485 L10.1916004,14.2395485 C10.1233483,14.2274543 10.0781951,14.2455066 10.0542069,14.2905931 C10.0321305,14.3398146 10.0151453,14.3929046 10.0020284,14.4511523 C9.98997871,14.5122457 9.98997871,14.5664917 10.0020284,14.6175141 C10.0151453,14.6726494 10.0180132,14.7178692 10.0180132,14.7509948 C10.0180132,14.9053513 10.0932462,14.9815625 10.2437121,14.9815625 L11.2836789,14.9815625 C11.3438831,14.9815625 11.3769865,14.9895882 11.3869909,15.0066846 C11.3980179,15.0247147 11.405021,15.0637985 11.405021,15.1219574 C11.4170707,15.1811833 11.4210725,15.2864517 11.4130467,15.4388962 C11.408089,15.5933639 11.4039983,15.6926074 11.4039983,15.7417845 C11.4039983,15.8711301 11.4792313,15.9353804 11.6286523,15.9353804 L12.1842958,15.9353804 C12.2764695,15.9353804 12.323668,15.9062788 12.323668,15.8451631 L12.323668,15.1400986 C12.323668,15.0208241 12.3768468,14.961576 12.4781579,14.961576 L12.6346042,14.961576 C12.7147949,14.961576 12.8070798,14.9596196 12.903322,14.9515716 C13.0036326,14.9475476 13.0969179,14.9435458 13.1871797,14.9435458 L13.4128119,14.9435458 C13.5732822,14.9435458 13.6574969,14.8843421 13.6574969,14.7690472 L13.6574969,14.3788984 C13.6574969,14.271607 13.600383,14.2184059 13.4850435,14.2184059 L12.4781579,14.2184059 C12.3647971,14.2434835 12.303548,14.2184059 12.303548,14.1482418 C12.303548,14.1151829 12.3015916,14.0700297 12.2955223,14.0168287 C12.2895419,13.963761 12.2886082,13.9165403 12.2886082,13.8673632 C12.2886082,13.8222545 12.3066383,13.7851494 12.3477674,13.7631619 C12.389897,13.7380176 12.433027,13.726079 12.4781579,13.726079 L13.5010283,13.726079 C13.6143891,13.726079 13.6735483,13.6868841 13.6735483,13.6027139 L13.6735483,13.1784391 C13.6735483,13.1313518 13.6535396,13.0862209 13.6123437,13.0390891 C13.5712813,12.9898231 13.5221264,12.9688361 13.4659685,12.9688361 L12.8763324,12.9688361" id="现金-(1)" fill="#FFFFFF"></path>
                    </g>
                </g>
            </g>
        </g>
    </g>
</svg>