<svg width="11px" height="11px" viewBox="0 0 11 11" version="1.1" xmlns="http://www.w3.org/2000/svg" xmlns:xlink="http://www.w3.org/1999/xlink">
    <!-- Generator: Sketch 44.1 (41455) - http://www.bohemiancoding.com/sketch -->
    <desc>Created with Sketch.</desc>
    <defs></defs>
    <g id="Page-1" stroke="none" stroke-width="1" fill="none" fill-rule="evenodd">
        <g id="选择付款方式-同线上-copy-19" transform="translate(-721.000000, -105.000000)" fill="#333333">
            <g id="Group-24-Copy" transform="translate(150.000000, 87.000000)">
                <path d="M581.781728,27.7246294 L577.556301,23.4996343 L581.781012,19.2750342 C582.07274,18.9832618 582.07274,18.509139 581.781012,18.2188293 C581.489254,17.9270569 581.016573,17.9270569 580.72486,18.2188293 L576.500061,22.4435172 L572.27497,18.2188439 C571.983213,17.9270715 571.510576,17.9270715 571.218818,18.2188439 C570.927061,18.5106163 570.927061,18.9832618 571.218818,19.2750342 L575.443397,23.5001463 L571.218818,27.7246002 C570.927061,28.0163579 570.927061,28.4890473 571.218818,28.7808343 C571.509845,29.0725628 571.983213,29.0725628 572.27497,28.7808343 L576.49952,24.556395 L580.724874,28.7822677 C581.016603,29.0725774 581.49,29.0725774 581.781743,28.7822677 C582.072755,28.4904953 582.072755,28.0163579 581.781728,27.7246294 L581.781728,27.7246294 Z" id="Shape-Copy-2"></path>
            </g>
        </g>
    </g>
</svg>