<svg width="99px" height="77px" viewBox="0 0 99 77" version="1.1" xmlns="http://www.w3.org/2000/svg" xmlns:xlink="http://www.w3.org/1999/xlink">
    <!-- Generator: Sketch 44.1 (41455) - http://www.bohemiancoding.com/sketch -->
    <desc>Created with Sketch.</desc>
    <defs></defs>
    <g id="Page-1" stroke="none" stroke-width="1" fill="none" fill-rule="evenodd">
        <g id="选择付款方式-同线上-copy-19" transform="translate(-400.000000, -243.000000)" fill="#CCCCCC">
            <g id="Group-24-Copy" transform="translate(150.000000, 87.000000)">
                <g id="Rectangle-4">
                    <g id="Group-7" transform="translate(234.000000, 156.000000)">
                        <g id="敬请期待" transform="translate(16.000000, 0.000000)">
                            <path d="M60.297726,49.0731777 C60.3170558,46.9070258 61.4220339,45.1718057 62.771949,45.1874533 C64.1220021,45.2029624 65.2112402,46.9635233 65.2112402,49.1298136 C65.2112402,51.2962424 64.1220021,53.0566649 62.771949,53.0723124 C61.4220339,53.0878215 60.3170558,51.3526014 60.297726,49.186588 L60.297726,49.0731777" id="Fill-1"></path>
                            <path d="M33.1686715,49.0731777 C33.1881394,46.9070258 34.2931175,45.1718057 35.6430326,45.1874533 C36.9929477,45.2029624 38.0821857,46.9635233 38.0821857,49.1298136 C38.0821857,51.2962424 36.9929477,53.0566649 35.6430326,53.0723124 C34.2931175,53.0878215 33.1881394,51.3526014 33.1686715,49.186588 L33.1686715,49.0731777" id="Fill-2"></path>
                            <path d="M19.7729354,60.4305542 C19.7743161,60.4295849 19.7756968,60.4286156 19.7772156,60.4276463 C20.0804184,60.9139676 20.6546535,61.2199956 21.2740377,61.2199956 C22.1832318,61.2199956 22.8981607,60.4736197 22.8981607,59.5530432 C22.8981607,59.2285982 22.8093814,58.9258936 22.6546044,58.6697164 C22.6559851,58.669024 22.6573658,58.6683316 22.6587465,58.6675008 C20.5624224,54.6024523 19.3777777,49.9912616 19.3777777,45.1076921 C19.3777777,28.7795074 32.6239835,15.4942931 48.9053926,15.4942931 C57.1965249,15.4942931 64.7005175,18.9393926 70.0689739,24.4769757 C75.242889,29.8139097 78.4332836,37.0943289 78.4332836,45.1078306 C78.4332836,49.6360753 77.4147376,53.9300216 75.5952449,57.7717112 C75.4571744,58.0078097 75.3768174,58.2783883 75.3768174,58.5657222 C75.3768174,59.4880988 76.2052402,60.2358595 77.1096019,60.2358595 C77.6966776,60.2358595 78.2184459,59.9362013 78.5119838,59.4735591 L78.5190253,59.4768824 C78.5318659,59.4505723 78.5444303,59.4241238 78.5572709,59.3978137 C78.5910981,59.3373005 78.6213356,59.2741562 78.6472928,59.2090733 C80.6719583,54.9310516 81.8053789,50.1496761 81.8053789,45.1079691 C81.8053789,44.3330675 81.7785932,43.5645357 81.7259884,42.8029276 L81.7259884,5.27586684 L88.6101825,11.2777539 C89.2941837,11.8740238 90.3348209,11.8018787 90.9312854,11.113662 C91.5266453,10.4266915 91.4556771,9.38301147 90.7702952,8.78549532 L81.2872004,0.51789349 C81.019896,0.28484142 80.6981917,0.153983305 80.3698601,0.121995766 C80.2756961,0.105240388 80.1786325,0.0963780399 80.0794979,0.0963780399 C79.1720987,0.0963780399 78.4332836,0.835691768 78.4332836,1.74768282 L78.4332836,30.5634705 C73.0633084,19.6428415 61.8443915,12.1124763 48.9053926,12.1124763 C30.764036,12.1124763 16.0055443,26.91426 16.0055443,45.1079691 C16.0056824,50.6350281 17.3677477,55.8492739 19.7729354,60.4305542" id="Fill-3"></path>
                            <path d="M98.5418683,65.7030977 C96.3638065,63.3682843 93.2769648,65.1010119 90.8712247,66.0193727 C89.5954535,66.506525 88.8556719,66.366943 87.6968463,65.6531085 C86.4216274,64.8675444 85.2669439,64.0040193 83.7289769,63.8397889 C82.1305349,63.6689118 80.68687,64.3161401 79.3604269,65.1450467 C77.6333032,66.224453 75.8029029,66.629767 73.8454777,65.7973986 C72.3547307,65.1634637 71.1062974,64.0753335 69.4879733,63.7470112 C67.7133534,63.3868398 66.0773563,64.1892978 64.6688993,65.1892199 C63.2448404,66.200497 62.2543228,66.2920284 60.6772817,65.4861086 C59.0077335,64.6333845 57.2478871,63.8259415 55.3235989,64.2647662 C53.5761789,64.6635719 52.0933019,65.7515636 50.365764,66.2063129 C48.4707467,66.705097 46.6831482,65.2648269 45.0845682,64.501834 C43.5911979,63.7891074 41.8995583,63.5974591 40.3433659,64.2171311 C38.8147877,64.8253098 37.610675,66.2428701 35.9147553,66.385637 C33.8859476,66.5563757 32.2060441,65.2410093 30.3964924,64.5997353 C28.5285369,63.9378286 26.7737991,64.3391269 25.0577211,65.2394861 C24.1015831,65.741455 23.1541434,66.5850398 21.9993219,66.4269023 C20.8591359,66.2711188 20.0566703,65.2851826 19.0343964,64.8388802 C16.1880735,63.5960743 14.2070382,65.6712486 11.6994022,66.554437 C9.97573028,67.1613694 7.81023286,65.0897955 6.27571754,64.5113888 C4.01647027,63.6594955 1.90564877,64.3652985 0.412692666,66.2298535 C-0.959589839,67.9436102 1.4541583,69.5363404 2.8409382,67.8040282 C3.68882902,66.7452545 4.27659506,66.4663674 5.51909131,67.0529441 C6.83172737,67.6731701 8.01430103,68.4825517 9.39514391,68.9659651 C10.8941751,69.4909208 12.3825749,69.1573365 13.7857852,68.5387722 C15.1604149,67.9328092 16.5812982,66.4090391 18.1014542,67.3838975 C19.5143294,68.2902111 20.6753641,68.9647189 22.414776,69.0249551 C24.1816639,69.0864377 25.6887032,67.9308705 27.1735132,67.1515378 C28.8748176,66.2586562 30.4830626,67.6242887 32.0400834,68.2305287 C33.9892244,68.9893673 36.1896536,69.2710238 38.1715173,68.4922449 C39.4942325,67.9721358 40.5485387,66.8582494 41.899006,66.4536278 C43.4404249,65.9918164 45.5696098,67.8671724 46.9584607,68.3908818 C48.6034324,69.0111077 50.4078755,68.9759353 52.0600269,68.4357474 C53.883938,67.8393391 55.482656,66.3488029 57.4838496,66.9074078 C59.1075584,67.3606338 60.3588912,68.574914 62.1220512,68.6789081 C63.8897676,68.7830407 65.2797231,68.0993936 66.6832096,67.1027948 C67.2802263,66.6787869 67.8983679,66.2712573 68.6501616,66.2371927 C69.3200796,66.2068668 70.0524054,66.7870737 70.5952985,67.1081953 C72.3460322,68.1438438 74.138049,68.7887182 76.183149,68.8226444 C77.4460796,68.843554 78.5876464,68.543065 79.7337694,68.0464965 C80.6805187,67.6364744 81.4563367,66.9026996 82.4247631,66.5353276 C84.0334223,65.9250718 85.504149,67.5702837 86.822584,68.2540693 C88.5880913,69.1696607 90.293814,69.0484958 92.0989474,68.3593097 C92.9576078,68.0315413 93.7910012,67.6449213 94.6600168,67.3436015 C94.9900052,67.2293603 95.3405662,67.1238429 95.6887799,67.0968405 C96.1208025,67.0634682 95.8842877,67.0313422 96.1134847,67.2774108 C97.6296367,68.902267 100.052912,67.3228303 98.5418683,65.7030977" id="Fill-4"></path>
                            <path d="M85.3405355,74.2196761 C84.2670375,74.6220821 83.6444777,74.5067331 82.6692859,73.91711 C81.5962021,73.2680814 80.6244621,72.5546624 79.3301894,72.4190961 C77.9852449,72.2781294 76.7703627,72.8127783 75.6542009,73.4973947 C74.2008711,74.3891685 72.6605568,74.7239991 71.0132379,74.0363363 C69.7588676,73.5126269 68.7082893,72.6137909 67.3463621,72.3425199 C65.8529918,72.0449389 64.476291,72.7078148 63.2912321,73.5339519 C62.0927803,74.3692282 61.2593869,74.4448352 59.9322534,73.7790512 C58.5272482,73.074633 57.0464423,72.4076028 55.4271517,72.7702667 C53.9568392,73.0995583 52.7088201,73.9983943 51.2552141,74.3739364 C49.6605,74.7860356 48.1563602,73.5962653 46.8111395,72.9659307 C45.5545601,72.3772769 44.1310534,72.2188625 42.8213169,72.7308016 C41.5350523,73.2331859 40.521753,74.4041237 39.0946565,74.5221038 C37.387415,74.6630705 35.9738495,73.5766019 34.4510701,73.0467997 C32.8792758,72.5001036 31.4024739,72.8314723 29.9585328,73.5753557 C29.1539961,73.9899474 28.3566391,74.6867496 27.3848991,74.5561684 C26.4254473,74.4273874 25.7501446,73.6130207 24.8899655,73.2442639 C22.4947188,72.2176162 20.8276558,73.9317883 18.7176627,74.6614088 C17.2672323,75.1629623 15.4448401,73.4515597 14.1536049,72.9736853 C12.2525125,72.2699594 10.4762358,72.8529358 9.2197944,74.3931843 C8.06511097,75.8089444 10.0961277,77.2619542 11.2630994,75.8309618 C11.9767857,74.9562204 12.4713542,74.7257993 13.5168239,75.210459 C14.6213877,75.7228135 15.6165998,76.3913669 16.7784628,76.7907265 C18.0398748,77.2242892 19.2924502,76.948864 20.4732289,76.4378942 C21.6298453,75.9374485 22.8256737,74.6785796 24.1047587,75.4836686 C25.2938217,76.232537 26.2708084,76.7896187 27.7344935,76.8394694 C29.2212365,76.8902894 30.4894138,75.9356483 31.7389517,75.2918818 C33.1706045,74.5542298 34.5239713,75.6825175 35.8341221,76.1831017 C37.4742614,76.8101129 39.3260626,77.0426111 40.9936779,76.3993984 C42.1068021,75.969713 42.994043,75.049552 44.1305011,74.7152753 C45.4275352,74.3337788 47.2192759,75.8830281 48.3880425,76.3156215 C49.7723371,76.8281145 51.2905601,76.7988965 52.6809299,76.3525941 C54.2155832,75.8600414 55.5610801,74.6285904 57.2449877,75.0899864 C58.6113331,75.4644207 59.6642586,76.4675277 61.147964,76.5533817 C62.6356734,76.6395127 63.8052685,76.0746764 64.9861853,75.2514473 C65.4884857,74.9012461 66.0087353,74.5646153 66.6413742,74.5363666 C67.205254,74.5111643 67.8214626,74.990562 68.2783378,75.256017 C69.7514118,76.1113721 71.2595556,76.6442208 72.9804661,76.6721926 C74.0431946,76.6895019 75.0037509,76.4413561 75.9683113,76.0310571 C76.7648399,75.6922107 77.4177752,75.0861091 78.2326672,74.7827122 C79.5864482,74.2785276 80.8239739,75.6376519 81.9335083,76.2024881 C83.4191467,76.9588342 84.8543893,76.8587173 86.3735788,76.2894499 C87.0959636,76.0187329 87.7972236,75.6992729 88.528721,75.4504348 C88.8063807,75.3561338 89.1012992,75.2687566 89.3944229,75.2464623 C89.7578244,75.2189059 89.5588648,75.1924573 89.7517493,75.395599 C91.0276586,76.7379678 93.0669596,75.2958976 91.7953305,73.9578214 C89.9623068,72.0294298 87.3647868,73.460976 85.3405355,74.2196761" id="Fill-5"></path>
                            <path d="M7.14611385,17.4879061 C7.3156644,17.4362552 8.7950896,17.0272025 9.3488903,18.2893948 C9.36904859,18.4532097 9.403152,18.6227021 9.45520457,18.7989798 C9.53846107,19.0809133 9.79803357,19.2639761 10.0801116,19.2639761 C10.1404484,19.2639761 10.2020278,19.2555292 10.2630549,19.237666 C10.6082311,19.1375492 10.8062242,18.778901 10.7052947,18.4365928 C10.3007482,17.0640366 11.7602912,16.4681821 11.9305321,16.4039301 C12.2663195,16.2794418 12.4379412,15.9093003 12.3136777,15.5755775 C12.1891381,15.2406084 11.8142768,15.0701467 11.4771087,15.1931118 C10.9210989,15.3965303 10.1331306,15.8854827 9.68136401,16.6553993 C8.7300584,15.9418417 7.45911963,16.0325423 6.75219877,16.2568705 C6.41075047,16.3651573 6.22338883,16.726298 6.33080767,17.0651444 C6.43850264,17.4041292 6.80369906,17.593285 7.14611385,17.4879061" id="Fill-6"></path>
                            <path d="M16.8592341,10.8036182 C17.0826321,10.7347966 19.0327396,10.1894852 19.7628563,11.8722236 C19.7895039,12.0907359 19.8343768,12.3168642 19.9031359,12.551578 C20.0127638,12.9276739 20.3550406,13.171527 20.7267263,13.171527 C20.806393,13.171527 20.8875784,13.1603106 20.9679354,13.136493 C21.4230157,13.0031424 21.6839689,12.5248525 21.550869,12.06858 C21.0175027,10.238505 22.9415149,9.44407859 23.1658794,9.35822459 C23.6086714,9.1923325 23.8346928,8.698672 23.6709412,8.25375441 C23.5067754,7.80703665 23.0127592,7.5798005 22.5683104,7.74375395 C21.8354323,8.01502489 20.7964519,8.66682293 20.2012301,9.69347061 C18.947274,8.74201442 17.2719267,8.86304087 16.3402271,9.16214513 C15.8899793,9.30657371 15.6429712,9.78791002 15.7847696,10.2398898 C15.926568,10.692008 16.4078817,10.9440311 16.8592341,10.8036182" id="Fill-7"></path>
                        </g>
                    </g>
                </g>
            </g>
        </g>
    </g>
</svg>