<svg width="12px" height="12px" viewBox="0 0 12 12" version="1.1" xmlns="http://www.w3.org/2000/svg" xmlns:xlink="http://www.w3.org/1999/xlink">
    <!-- Generator: Sketch 46.2 (44496) - http://www.bohemiancoding.com/sketch -->
    <desc>Created with Sketch.</desc>
    <defs></defs>
    <g id="Page-1" stroke="none" stroke-width="1" fill="none" fill-rule="evenodd">
        <g id="账本" transform="translate(-797.000000, -239.000000)" fill="#BBBBBB">
            <g id="Group-2-Copy" transform="translate(20.000000, 227.000000)">
                <g id="Group-10" transform="translate(692.000000, 11.000000)">
                    <g id="Group-12" transform="translate(85.000000, 0.000000)">
                        <path d="M11.6339622,6.24347479 L10.8380726,6.24347479 C10.6441673,6.24347479 10.4869496,6.40069247 10.4869496,6.59459783 L10.4869496,11.4869496 L1.49813565,11.4869496 L1.49813565,6.59459783 C1.49813565,6.40069247 1.34091797,6.24347479 1.14701261,6.24347479 L0.351123047,6.24347479 C0.157217685,6.24347479 8.8817842e-16,6.40069247 8.8817842e-16,6.59459783 L8.8817842e-16,12.6339622 C8.8817842e-16,12.8278675 0.157217685,12.9850852 0.351123047,12.9850852 L11.6339622,12.9850852 C11.8278675,12.9850852 11.9850852,12.8278675 11.9850852,12.6339622 L11.9850852,6.59459783 C11.9850852,6.40069247 11.8278675,6.24347479 11.6339622,6.24347479 L11.6339622,6.24347479 Z M5.24347479,3.99627131 L5.24347479,8.86521218 C5.24347479,9.07204812 5.41117276,9.23974609 5.6180087,9.23974609 L6.36707653,9.23974609 C6.57391246,9.23974609 6.74161044,9.07204812 6.74161044,8.86521218 L6.74161044,3.99627131 L8.98881392,3.99627131 L5.99254261,1 L2.99627131,3.99627131 L5.24347479,3.99627131 L5.24347479,3.99627131 Z" id="Shape"></path>
                    </g>
                </g>
            </g>
        </g>
    </g>
</svg>