<svg width="9px" height="11px" viewBox="0 0 9 11" version="1.1" xmlns="http://www.w3.org/2000/svg" xmlns:xlink="http://www.w3.org/1999/xlink">
    <!-- Generator: Sketch 44.1 (41455) - http://www.bohemiancoding.com/sketch -->
    <desc>Created with Sketch.</desc>
    <defs></defs>
    <g id="Page-1" stroke="none" stroke-width="1" fill="none" fill-rule="evenodd">
        <g id="会员-copy-4" transform="translate(-61.000000, -239.000000)" stroke="#FFFFFF" stroke-width="0.5" fill="#FFFFFF">
            <g id="Group-9" transform="translate(20.000000, 160.000000)">
                <g id="Group" transform="translate(37.000000, 77.000000)">
                    <path d="M8.48417698,3 C6.56282305,3 5,4.56445805 5,6.48417698 C5,8.29960232 6.39497013,9.79398269 8.17128537,9.95369309 C8.17128537,9.95803865 8.17019898,10.1747828 8.1680262,10.6039255 L6.90179888,10.6039255 C6.72742762,10.6039255 6.5856481,10.7456942 6.5856481,10.9200655 C6.5856481,11.0944368 6.72742762,11.2362271 6.90179888,11.2362271 L8.16967203,11.2362271 L8.16967203,12.4267138 C8.16967203,12.6010851 8.31144072,12.7428754 8.48581198,12.7428754 C8.66018325,12.7428754 8.80197359,12.6010851 8.80197359,12.4267138 L8.80197359,11.2362271 L10.0698251,11.2362271 C10.2441963,11.2362271 10.3859759,11.0944368 10.3859759,10.9200655 C10.3859759,10.7456942 10.2441963,10.6039255 10.0698251,10.6039255 L8.80197359,10.6039255 L8.80197359,9.96998896 C10.5733947,9.79398269 11.9699998,8.30123732 11.9699998,6.48417698 C11.9699998,4.56282305 10.4055309,3 8.48417698,3 Z M8.48418781,9.33605239 C6.91321141,9.33605239 5.6323124,8.05678838 5.6323124,6.48580115 C5.6323124,4.91482476 6.91157641,3.63392574 8.48418781,3.63392574 C10.0567884,3.63392574 11.3344282,4.91320058 11.3344282,6.48580115 C11.3360632,8.05678838 10.0567884,9.33605239 8.48418781,9.33605239" id="女-(1)"></path>
                </g>
            </g>
        </g>
    </g>
</svg>