
<svg width="13px" height="16px" viewBox="0 0 13 16" version="1.1" xmlns="http://www.w3.org/2000/svg" xmlns:xlink="http://www.w3.org/1999/xlink">
    <!-- Generator: Sketch 46.2 (44496) - http://www.bohemiancoding.com/sketch -->
    <desc>Created with Sketch.</desc>
    <defs>
        <polygon id="path-1" points="0.00115303878 0.00151816773 0.00115303878 15.2201312 12.5942391 15.2201312 12.5942391 0.00151816773"></polygon>
    </defs>
    <g id="Page-1" stroke="none" stroke-width="1" fill="none" fill-rule="evenodd">
        <g id="商品-首页(常规态)-copy-21" transform="translate(-837.000000, -122.000000)">
            <g id="Group-4" transform="translate(600.000000, 110.000000)">
                <g id="Group-9" transform="translate(237.000000, 12.000000)">
                    <g id="删除-(1)">
                        <mask id="mask-2" fill="white">
                            <use xlink:href="#path-1"></use>
                        </mask>
                        <g id="Clip-2"></g>
                        <path d="M11.8070787,1.57583889 L7.87144987,1.57583889 L7.87144987,0.789216613 C7.87144987,0.354194297 7.51929261,0.00151816773 7.08428951,0.00151816773 L5.50996879,0.00151816773 C5.07494647,0.00151816773 4.7228853,0.354194297 4.7228853,0.789216613 L4.7228853,1.57583889 L0.787160361,1.57583889 C0.35267613,1.57583889 0,1.92843815 0,2.36292238 L0,3.15062083 L12.5942391,3.15062083 L12.5942391,2.36292238 C12.5942391,1.92843815 12.2421779,1.57583889 11.8070787,1.57583889 Z M0.787160361,14.4329708 C0.787160361,14.8669362 1.13922154,15.2201312 1.57432072,15.2201312 L11.0199952,15.2201312 C11.4544987,15.2201312 11.8070787,14.8669362 11.8070787,14.4329708 L11.8070787,3.93776197 L0.787160361,3.93776197 L0.787160361,14.4329708 Z M8.65853336,6.29864732 C8.65853336,5.86416308 9.01067141,5.51148696 9.44515564,5.51148696 C9.88017795,5.51148696 10.232316,5.86416308 10.232316,6.29864732 L10.232316,12.8581312 C10.232316,13.2926923 9.88017795,13.6452916 9.44515564,13.6452916 C9.01067141,13.6452916 8.65853336,13.2926923 8.65853336,12.8581312 L8.65853336,6.29864732 Z M5.50996879,6.29864732 C5.50996879,5.86416308 5.86210683,5.51148696 6.29712915,5.51148696 C6.73161338,5.51148696 7.08428951,5.86416308 7.08428951,6.29864732 L7.08428951,12.8581312 C7.08428951,13.2926923 6.73161338,13.6452916 6.29712915,13.6452916 C5.86210683,13.6452916 5.50996879,13.2926923 5.50996879,12.8581312 L5.50996879,6.29864732 Z M2.36140421,6.29864732 C2.36140421,5.86416308 2.71354226,5.51148696 3.14856457,5.51148696 C3.58358689,5.51148696 3.93572494,5.86416308 3.93572494,6.29864732 L3.93572494,12.8581312 C3.93572494,13.2926923 3.58358689,13.6452916 3.14856457,13.6452916 C2.71354226,13.6452916 2.36140421,13.2926923 2.36140421,12.8581312 L2.36140421,6.29864732 Z" id="Fill-1" fill="#999999" mask="url(#mask-2)"></path>
                    </g>
                </g>
            </g>
        </g>
    </g>
</svg>