<?xml version="1.0" encoding="UTF-8" standalone="no"?>
<svg width="85px" height="58px" viewBox="0 0 85 58" version="1.1" xmlns="http://www.w3.org/2000/svg" xmlns:xlink="http://www.w3.org/1999/xlink">
    <!-- Generator: Sketch 46.2 (44496) - http://www.bohemiancoding.com/sketch -->
    <title>潜水 (1)@2x</title>
    <desc>Created with Sketch.</desc>
    <defs>
        <polygon id="path-1" points="4.30208451e-15 57.9286972 4.30208451e-15 0.0154780802 84.9434371 0.0154780802 84.9434371 57.9286972"></polygon>
    </defs>
    <g id="Page-1" stroke="none" stroke-width="1" fill="none" fill-rule="evenodd">
        <g id="商品-首页(常规态)-copy-27" transform="translate(-284.000000, -257.000000)">
            <g id="潜水-(1)" transform="translate(284.000000, 257.000000)">
                <g id="Group-3">
                    <mask id="mask-2" fill="white">
                        <use xlink:href="#path-1"></use>
                    </mask>
                    <g id="Clip-2"></g>
                    <path d="M52.5083347,34.5525191 L53.8094053,33.2814416 L55.1106924,34.5525191 C55.4938063,34.9259164 56.1166822,34.9278426 56.5008794,34.5535892 C56.8831266,34.1790504 56.8842821,33.5712989 56.5000127,33.1959041 L55.1990144,31.9251833 L56.5000127,30.6543911 C56.8819711,30.2809938 56.8842821,29.6709594 56.5008794,29.296706 C56.1174766,28.9232374 55.4948895,28.9221673 55.1106924,29.2975621 L53.8094053,30.5685683 L52.5083347,29.2975621 C52.1252209,28.9243788 51.5015506,28.9221673 51.1181478,29.296706 C50.7361895,29.669818 50.7347451,30.2787109 51.1193033,30.6543911 L52.4203016,31.9251833 L51.1193033,33.1959041 C50.7370561,33.5704428 50.7347451,34.1790504 51.1181478,34.5535892 C51.5015506,34.9267724 52.1238488,34.9278426 52.5083347,34.5525191 Z M29.1823704,34.5525191 L30.4833687,33.2814416 L31.7844393,34.5525191 C32.167842,34.9259164 32.7904291,34.9278426 33.1734707,34.5535892 C33.5571623,34.1790504 33.5571623,33.5712989 33.1734707,33.1959041 L31.8724724,31.9251833 L33.1734707,30.6543911 C33.5560068,30.2809938 33.5580289,29.6709594 33.1734707,29.296706 C32.7915123,28.9232374 32.167842,28.9221673 31.7844393,29.2975621 L30.4833687,30.5685683 L29.1823704,29.2975621 C28.7989677,28.9243788 28.1752974,28.9221673 27.7921835,29.296706 C27.4087808,29.669818 27.4087808,30.2787109 27.7930501,30.6543911 L29.0943373,31.9251833 L27.7930501,33.1959041 C27.4096474,33.5704428 27.4087808,34.1790504 27.7921835,34.5535892 C28.1752974,34.9267724 28.7978845,34.9278426 29.1823704,34.5525191 Z M16.9511088,3.50924969 C16.9739295,3.69181058 17.0119881,3.88072079 17.0709898,4.07719311 C17.1654503,4.3915203 17.4582923,4.59555474 17.7776381,4.59555474 C17.8461725,4.59555474 17.9152846,4.58635178 17.9846856,4.56601968 C18.3753823,4.45479951 18.599401,4.05493481 18.4839975,3.67340467 C18.0261385,2.14457319 19.6776083,1.48074785 19.869418,1.40940713 C20.2494265,1.27064945 20.4428972,0.857372694 20.3021453,0.486186962 C20.1613934,0.113075031 19.7374044,-0.0769766298 19.3562404,0.0598548585 C18.7274427,0.286076261 17.8365675,0.830905289 17.3259898,1.68870603 C16.2498046,0.893899139 14.8130374,0.995345633 14.0130119,1.24503813 C13.6267927,1.36538991 13.4152676,1.76810824 13.5363042,2.14571464 C13.6597961,2.52303567 14.0722302,2.73399016 14.4596049,2.61663469 C14.6511257,2.55977614 16.3242608,2.10390898 16.9511088,3.50924969 Z M8.01585387,8.87043296 C8.03361937,9.00697909 8.06272302,9.14851907 8.10728122,9.29540959 C8.17863212,9.53111931 8.40120646,9.68414514 8.64378505,9.68414514 C8.69570943,9.68414514 8.74850042,9.67715375 8.80006372,9.66153014 C9.09629992,9.57820418 9.26637213,9.2780738 9.17920561,8.99242558 C8.83227273,7.84512423 10.0848131,7.34745141 10.2306202,7.29451661 C10.5189125,7.19028782 10.6658751,6.88123985 10.5592821,6.60172694 C10.4526168,6.32328413 10.1313212,6.18145879 9.84129567,6.28376138 C9.36487681,6.45398032 8.68841546,6.86197786 8.30075191,7.50547109 C7.48469414,6.90991882 6.39464316,6.98546863 5.78787171,7.17302337 C5.49560748,7.2638401 5.33506797,7.56454121 5.42700085,7.84819188 C5.51958369,8.13077245 5.83214104,8.28964822 6.12635514,8.20104305 C6.27136788,8.1583813 7.54051827,7.81644526 8.01585387,8.87043296 Z M70.9170093,55.3471956 C69.9971028,54.8046494 69.1632073,54.2090972 68.0525743,54.0956654 C66.8985387,53.9783813 65.8564401,54.4250455 64.8992693,54.9963419 C63.6521453,55.7409963 62.3310705,56.021294 60.9179907,55.4461451 C59.8418054,55.0086125 58.9404588,54.2578942 57.7720518,54.0313161 C56.49048,53.7826937 55.3095794,54.3364403 54.2934792,55.0270185 C53.2657519,55.7245166 52.5497876,55.7877958 51.4112787,55.2318376 C50.2064019,54.6432768 48.9355183,54.0864625 47.5473534,54.3896605 C46.2857859,54.6650357 45.2152336,55.4154686 43.9680374,55.7295105 C42.5998768,56.0742288 41.3098556,55.0799533 40.1560365,54.5538155 C39.0775404,54.0622066 37.8560535,53.9295843 36.7330714,54.3567724 C35.6297324,54.7770406 34.7608836,55.7554785 33.5362914,55.8530012 C32.0716483,55.9702854 30.8594053,55.0635449 29.5530629,54.6209471 C28.2043288,54.1639385 26.9385726,54.4415252 25.699537,55.0626888 C25.0084155,55.4093333 24.3245879,55.9909742 23.4918479,55.8816802 C22.6692184,55.7746691 22.0892396,55.0941501 21.3515378,54.7862435 C19.297311,53.9284428 17.8667545,55.3606076 16.0568394,55.9702854 C14.8130374,56.3894121 13.249384,54.9595301 12.1409898,54.5599508 C10.5107519,53.972246 8.98681818,54.459075 7.90926083,55.7459902 C6.91793118,56.9289619 8.6613339,58.1428954 9.66219626,56.9476531 C10.274384,56.2161255 10.6980841,56.024647 11.5951699,56.4292915 C12.5430246,56.8576212 13.3966355,57.4157909 14.3933093,57.7493801 C15.4745497,58.1113629 16.5499405,57.880647 17.5632243,57.4542435 C18.5556372,57.0362583 19.5811257,55.9848389 20.6781818,56.6569397 C21.6988318,57.2820271 22.536627,57.7482386 23.7922727,57.7900443 C25.0673449,57.832706 26.155446,57.0354022 27.2274427,56.4964231 C28.4559346,55.8806101 29.6173364,56.8230923 30.7412574,57.2413629 C32.1483432,57.7655744 33.7371283,57.9594785 35.1676848,57.4219262 C36.1228335,57.0627257 36.8834282,56.2938868 37.8591589,56.0143739 C38.9718139,55.6949815 40.5089635,56.9902435 41.5109813,57.3514416 C42.6980204,57.7797712 44.0013297,57.75523 45.193785,57.3821181 C46.510599,56.9699114 47.664418,55.9416064 49.1095624,56.3272743 C50.281147,56.6405314 51.1844435,57.4776433 52.4578547,57.5504108 C53.7340824,57.6217515 54.7377613,57.1504748 55.751045,56.4618942 C56.1818224,56.169326 56.6281266,55.8878155 57.17113,55.8641304 C57.6549873,55.8429422 58.1830416,56.243663 58.5746049,56.4649619 C59.8387001,57.1800098 61.1324044,57.6245338 62.6088912,57.6485043 C63.5206372,57.6624157 64.3452167,57.4556704 65.1718182,57.1128782 C65.8552846,56.8302977 66.4161257,56.3234219 67.1140357,56.070091 C68.2754376,55.6490381 69.3372515,56.7843542 70.2890782,57.2564157 C71.5632838,57.8889938 72.7940867,57.8050972 74.0982625,57.3291119 C74.7180331,57.1026052 75.3197494,56.836433 75.9476805,56.6274047 C76.1857816,56.5485732 76.4385429,56.4763764 76.6905098,56.4571857 C77.0019116,56.4345707 76.8312617,56.4120271 76.9971453,56.5814613 C78.0919626,57.7022952 79.8407094,56.4978499 78.7497918,55.3797983 C77.1728505,53.7704945 74.9448683,54.9656654 73.2085429,55.6002411 C72.2874809,55.9368979 71.7531436,55.8398745 70.9170093,55.3471956 Z M77.9531606,48.7478942 C76.8580544,49.1550357 76.2241291,49.0388216 75.2297664,48.4421993 C74.1355268,47.7853653 73.1456415,47.064182 71.8253611,46.9267798 C70.4538063,46.7835277 69.2148428,47.3252891 68.077706,48.0166519 C66.5960918,48.9181845 65.02565,49.2570529 63.3463042,48.5614809 C62.0681266,48.0322755 60.9958411,47.1223961 59.6087596,46.8490185 C58.0859813,46.548032 56.6822897,47.2179926 55.4743076,48.0534637 C54.2519541,48.8981378 53.4026041,48.9756138 52.0496092,48.301444 C50.6168862,47.5894637 49.1073237,46.9142239 47.456215,47.2812718 C45.957124,47.6140049 44.6851572,48.5238844 43.2024596,48.9031316 C41.577277,49.3191907 40.0440272,48.1167429 38.6716058,47.479385 C37.3909006,46.8835474 35.9394732,46.7236015 34.6043161,47.2419631 C33.2928462,47.7494096 32.2597749,48.9338081 30.805531,49.0533038 C29.0653059,49.1959852 27.6240612,48.0963395 26.0724681,47.5607847 C24.4698895,47.0081082 22.9645879,47.343695 21.4925786,48.0955547 C20.6719711,48.5143961 19.8589465,49.2194563 18.8684834,49.0876187 C17.8904418,48.9572079 17.201559,48.1331513 16.3242608,47.7608241 C13.8826593,46.7225314 12.1824427,48.4563961 10.0320221,49.1949151 C8.55351317,49.7017909 6.69535684,47.9709938 5.37962617,47.4877319 C3.44101954,46.7757515 1.63023789,47.3650972 0.35011045,48.9234637 C-0.826818182,50.3552718 1.24293543,51.6857048 2.43336873,50.2393432 C3.1606712,49.354861 3.66503823,49.1213629 4.731113,49.6120443 C5.85698386,50.1301205 6.87113424,50.8065018 8.05651232,51.2102903 C9.34313934,51.648893 10.619367,51.3705215 11.8230884,50.8533014 C13.001678,50.3474957 14.221215,49.0734219 15.5256075,49.8882755 C16.7375616,50.6451292 17.7330799,51.2094342 19.2259601,51.2593014 C20.7413721,51.31031 22.0342099,50.3455695 23.3084877,49.693444 C24.7680756,48.9482903 26.147791,50.0883149 27.483237,50.595262 C29.1552889,51.2297663 31.0436321,51.465262 32.7438488,50.8137073 C33.8781691,50.3789569 34.7823322,49.4487454 35.9417842,49.1101624 C37.2633645,48.7244945 39.0908284,50.2912079 40.2821283,50.7287405 C41.6931861,51.2470308 43.241096,51.2174957 44.6591589,50.7666224 C46.2234622,50.2678081 47.595017,49.0232694 49.3127103,49.4894809 C50.7048471,49.8681574 51.7790824,50.8831218 53.2914613,50.9698007 C54.8083178,51.0561943 56.0007009,50.4851833 57.2041334,49.6527798 C57.7161555,49.2991439 58.2465208,48.9579926 58.8919286,48.929599 C59.4668522,48.9042731 60.0945667,49.3896753 60.5608751,49.6577737 C62.0627825,50.5227798 63.6002209,51.0611882 65.3540229,51.0898672 C66.4364189,51.1071316 67.4164826,50.856369 68.3998683,50.4411661 C69.2120263,50.0983739 69.8769329,49.4858426 70.707723,49.1784354 C72.0888828,48.6687774 73.3495837,50.0434416 74.4807986,50.614738 C75.9953441,51.3797245 77.458904,51.2785633 79.0076083,50.7025584 C79.7442268,50.4280394 80.4590357,50.1058647 81.204898,49.8539606 C81.4875573,49.7577934 81.7891376,49.6700443 82.0873237,49.6477146 C82.4585939,49.6204625 82.255446,49.5937097 82.4523832,49.7985289 C83.7514316,51.1573555 85.8305013,49.8375523 84.5331138,48.4840049 C82.6647749,46.5326937 80.0167035,47.9809815 77.9531606,48.7478942 Z" id="Fill-1" fill="#CCCCCC" mask="url(#mask-2)"></path>
                </g>
                <path d="M66.5408895,44 C66.3355092,44 66.1271086,43.9519064 65.9330185,43.8500193 C65.2989717,43.5177106 65.0574197,42.7406612 65.3942549,42.1147324 C67.3605408,38.4550618 68.4004582,34.3153818 68.4004582,30.1433544 C68.4004582,16.0406123 56.7813715,4.56691367 42.5001079,4.56691367 C28.2186285,4.56691367 16.5994699,16.0406123 16.5994699,30.1433544 C16.5994699,34.3150968 17.6390996,38.4544918 19.6057451,42.1141624 C19.9422926,42.7403762 19.7009564,43.5174256 19.0669815,43.8494493 C18.4321436,44.182328 17.6458593,43.9435702 17.3095995,43.3175702 C15.1444053,39.2886123 14,34.7331189 14,30.1433544 C14,14.6248092 26.7848498,2 42.5001079,2 C58.2148625,2 71,14.6248092 71,30.1433544 C71,34.7334039 69.855307,39.2888973 67.690041,43.3178552 C67.4566151,43.752336 67.0068783,44 66.5408895,44" id="Fill-4" fill="#CCCCCC"></path>
            </g>
        </g>
    </g>
</svg>