<?xml version="1.0" encoding="UTF-8"?>
<svg width="18px" height="18px" viewBox="0 0 18 18" version="1.1" xmlns="http://www.w3.org/2000/svg" xmlns:xlink="http://www.w3.org/1999/xlink">
    <!-- Generator: Sketch 46.2 (44496) - http://www.bohemiancoding.com/sketch -->
    <title>帮助 (1)@2x</title>
    <desc>Created with Sketch.</desc>
    <defs></defs>
    <g id="Page-1" stroke="none" stroke-width="1" fill="none" fill-rule="evenodd">
        <g id="登录页面-copy" transform="translate(-355.000000, -546.000000)" fill="#FFFFFF">
            <g id="Group-3" transform="translate(355.000000, 546.000000)">
                <path d="M9.1236032,18 L8.8758529,18 C8.82493497,17.9943457 8.77411762,17.9845448 8.72314941,17.9836904 C8.19880789,17.974945 7.68035023,17.9107119 7.16795243,17.8044105 C6.03111225,17.5685119 4.97755116,17.1289569 4.01222267,16.4836598 C2.87930505,15.7263315 1.95963926,14.7634622 1.2628557,13.5923124 C0.559584814,12.4102561 0.149752066,11.1329307 0.0335586107,9.76108999 C-0.0684029693,8.55706977 0.0611171537,7.37948668 0.433911823,6.23107993 C0.971881738,4.57375844 1.91440402,3.18477884 3.25473991,2.0728111 C4.56882478,0.982606233 6.07607089,0.318586983 7.77082071,0.0861563719 C8.84135443,-0.0606551355 9.90499853,-0.0213512673 10.9589619,0.215678198 C12.8165988,0.633445144 14.3920624,1.54801399 15.6677765,2.95684657 C17.0192263,4.44931295 17.783825,6.20733174 17.9643637,8.21602579 C18.046285,9.12720203 17.9861641,10.0289293 17.7922736,10.9217352 C17.5459063,12.0563454 17.0933276,13.1040046 16.4374041,14.0615966 C15.628752,15.2421702 14.5973685,16.1818945 13.3439828,16.8740346 C12.2150381,17.4974684 11.0064602,17.8611046 9.7192801,17.9591381 C9.52081333,17.9742414 9.3221454,17.9864296 9.1236032,18 Z M9.15878057,4.31752939 C8.42895693,4.29868163 7.79845468,4.45371076 7.24097251,4.85501733 C6.61969835,5.3022873 6.24119585,5.89506201 6.17939028,6.66932811 C6.15356672,6.99255468 6.38628051,7.32058114 6.69918061,7.41791099 C7.03518865,7.52240298 7.33800574,7.40522016 7.51811691,7.09568963 C7.55922843,7.02507335 7.58527829,6.94568657 7.61854467,6.87047143 C7.73632224,6.6042405 7.84044626,6.33082229 7.97574965,6.07381419 C8.12847829,5.78370943 8.38211244,5.60563576 8.71052679,5.56660833 C8.89979061,5.54411667 9.09649726,5.53748225 9.2847553,5.5623613 C9.9048728,5.64431137 10.3166417,6.22524968 10.1944387,6.83212252 C10.1422384,7.09121643 9.98448078,7.29384245 9.80147798,7.47349932 C9.54382069,7.72648656 9.27459686,7.96766253 9.01528002,8.2190163 C8.77816591,8.44883335 8.54374229,8.68186709 8.39191885,8.98230043 C8.17575025,9.41004413 8.09204369,9.85841984 8.19342694,10.3306945 C8.24635644,10.5772986 8.47904509,10.7730892 8.72397918,10.8003305 C9.05470684,10.8370962 9.28980937,10.7345392 9.41238957,10.4835373 C9.46137136,10.3832169 9.49878661,10.2712864 9.51306877,10.1609893 C9.57527665,9.68024566 9.82483736,9.3148001 10.1789747,8.99984142 C10.4820935,8.73024302 10.7717851,8.44526484 11.0623819,8.1619704 C11.3317063,7.89945876 11.5514706,7.59794482 11.6614282,7.23601751 C11.9311298,6.3481371 11.604375,5.40572383 10.8512674,4.85961618 C10.3315022,4.48268605 9.74362013,4.32383711 9.15878057,4.31752939 Z M8.96619765,11.5721841 C8.45646518,11.5716312 8.03021298,12.0086229 8.03262686,12.5292484 C8.03504075,13.0532413 8.45983457,13.4859357 8.96936588,13.4835232 C9.47836915,13.4810855 9.89096781,13.0565585 9.89486523,12.5312839 C9.89873751,12.0068889 9.47836915,11.5727621 8.96619765,11.5721841 L8.96619765,11.5721841 Z" id="帮助-(1)"></path>
            </g>
        </g>
    </g>
</svg>