<svg width="14px" height="14px" viewBox="0 0 14 14" version="1.1" xmlns="http://www.w3.org/2000/svg" xmlns:xlink="http://www.w3.org/1999/xlink">
    <!-- Generator: Sketch 44.1 (41455) - http://www.bohemiancoding.com/sketch -->
    <desc>Created with Sketch.</desc>
    <defs></defs>
    <g id="Page-1" stroke="none" stroke-width="1" fill="none" fill-rule="evenodd">
        <g id="会员-copy-7" transform="translate(-265.000000, -337.000000)" fill-rule="nonzero" fill="#57AFFF">
            <g id="Group-24-Copy-2" transform="translate(250.000000, 154.000000)">
                <g id="Group-16" transform="translate(15.000000, 183.000000)">
                    <g id="提示">
                        <path d="M7.00003444,0 C3.13364513,0 0,3.13485851 0,7.00005153 C0,10.8651591 3.13364513,14.0000005 7.00003444,14.0000005 C10.8663383,14.0000005 14.0000005,10.8640141 14.0000005,7.00005153 C13.9999834,3.13485851 10.8663383,0 7.00003444,0 L7.00003444,0 Z M8.09785186,9.57487584 C7.56933134,10.3682035 7.03267604,10.9783793 6.12730736,10.9783793 C5.51014181,10.8780448 5.25698995,10.4358451 5.3911794,9.98547644 L6.55434839,6.1343142 C6.58232446,6.03985863 6.53566919,5.93952414 6.44934839,5.90915549 C6.36417261,5.87883811 6.19500023,5.99086204 6.04913842,6.14947289 L5.34684835,6.99535182 C5.32815206,6.85415553 5.34565206,6.61850366 5.34565206,6.52397974 C5.87302756,5.73063498 6.74100368,5.10531757 7.33014188,5.10531757 C7.88903105,5.16246601 8.15265899,5.61047628 8.05586212,6.1016726 L6.8844729,9.97154822 C6.86931421,10.0601932 6.91484155,10.146497 6.99535181,10.1768143 C7.08045923,10.2059867 7.26251735,10.0951762 7.40831081,9.93535193 L8.11179716,9.08954136 C8.12936554,9.2306522 8.09785186,9.47918979 8.09785186,9.57487584 L8.09785186,9.57487584 Z M7.94149687,4.54415544 C7.49582791,4.54415544 7.13647975,4.22098648 7.13647975,3.74267592 C7.13647975,3.26436536 7.49697293,2.9411964 7.94149687,2.9411964 C8.38482452,2.9411964 8.74765901,3.26436536 8.74765901,3.74267592 C8.74765901,4.22098648 8.38596954,4.54415544 7.94149687,4.54415544 L7.94149687,4.54415544 Z" id="Shape"></path>
                    </g>
                </g>
            </g>
        </g>
    </g>
</svg>