<svg width="58px" height="58px" viewBox="0 0 58 58" version="1.1" xmlns="http://www.w3.org/2000/svg" xmlns:xlink="http://www.w3.org/1999/xlink">
    <!-- Generator: Sketch 44.1 (41455) - http://www.bohemiancoding.com/sketch -->
    <desc>Created with Sketch.</desc>
    <defs>
        <polygon id="path-1" points="0.00270967742 0.0418558682 0.00270967742 32.6148717 27.9830647 32.6148717 27.9830647 0.0418558682"></polygon>
    </defs>
    <g id="Page-1" stroke="none" stroke-width="1" fill="none" fill-rule="evenodd">
        <g id="会员-copy-5" transform="translate(-421.000000, -233.000000)">
            <g id="Group-4" transform="translate(290.000000, 203.000000)">
                <g id="Group-5" transform="translate(131.000000, 30.000000)">
                    <circle id="Oval" fill="#3E87F9" cx="29" cy="29" r="29"></circle>
                    <g id="沙漏-(1)" transform="translate(15.000000, 13.000000)">
                        <mask id="mask-2" fill="white">
                            <use xlink:href="#path-1"></use>
                        </mask>
                        <g id="Clip-2"></g>
                        <path d="M26.6068645,30.1231338 L25.4561548,30.1231338 C25.2532903,26.2985765 24.3080645,23.4171352 22.9341677,21.2553974 L22.9156516,21.2125903 C21.4729742,18.9518751 19.564729,17.4761386 17.5566323,16.5770528 C19.564729,15.6617049 21.4729742,14.2020947 22.9156516,11.9440522 L22.9341677,11.8985724 C24.3544452,9.64782292 25.3305613,6.60661359 25.4785548,2.5332766 L26.6066839,2.5332766 C27.3770903,2.5332766 27.9828839,1.98104187 27.9828839,1.28720384 C27.9828839,0.593592313 27.3770903,0.0418558682 26.6066839,0.0418558682 L1.37511613,0.0418558682 C0.614103226,0.0418558682 0,0.593592313 0,1.28702265 C0,1.98104187 0.614103226,2.5330954 1.37511613,2.5330954 L2.50487097,2.5330954 C2.66943871,6.6064324 3.6254129,9.64746054 5.04799355,11.89821 L5.07603871,11.9440522 C6.51785806,14.2020947 8.41675484,15.6613878 10.4328,16.5767358 C8.41639355,17.4757763 6.51785806,18.9518751 5.07603871,21.2124091 L5.04799355,21.2553974 C3.68556774,23.4171352 2.73754194,26.2985765 2.53503871,30.1229526 L1.37511613,30.1229526 C0.614103226,30.1229526 0,30.674825 0,31.3513137 C0,32.0620933 0.614103226,32.6148717 1.37511613,32.6148717 L26.6068645,32.6148717 C27.377271,32.6148717 27.9830645,32.0620933 27.9830645,31.3513137 C27.9834258,30.6753686 27.377271,30.1231338 26.6068645,30.1231338 Z M4.35824516,28.137245 C6.00925161,27.2494839 9.41260645,26.6319286 13.3747871,26.5979547 L13.3747871,14.684615 L13.3474645,14.6745134 L13.3176581,14.6651366 L13.3088065,14.6651366 C11.7311871,14.2118339 10.4250323,13.4918133 9.39250968,12.5476102 C8.24405806,11.5344173 7.40572903,10.2713576 6.81971613,8.88232258 C6.66409032,8.49144132 6.86009032,8.0645024 7.28966452,7.92240082 C7.69751613,7.76263281 8.18602581,7.95886616 8.34088387,8.35097049 C8.85725806,9.53385175 9.56782581,10.6187069 10.5418194,11.4813274 C11.3903548,12.2468277 12.4730065,12.8507481 13.7763161,13.2246424 L13.8535871,13.2416294 L13.9118,13.259477 L13.989929,13.2948552 L14.0700452,13.259477 L14.1663742,13.2416294 L14.205529,13.2246424 C15.5312387,12.8503857 16.5902258,12.2468277 17.448471,11.4813274 C18.4146968,10.6183898 19.1275677,9.53385175 19.6414581,8.35097049 C19.808329,7.95918325 20.2862258,7.7629499 20.7147613,7.92240082 C21.1439742,8.0645024 21.337129,8.49112423 21.1796065,8.88232258 C20.5972516,10.2713576 19.741671,11.5340549 18.6083935,12.5476102 C17.5571742,13.4914509 16.2720194,14.212151 14.6834258,14.6651366 L14.6643677,14.6651366 L14.6431871,14.6745134 L14.6082774,14.6863816 L14.6082774,26.6061084 C18.8426452,26.7006012 22.3557419,27.4641084 23.6308258,28.4939712 C12.0871935,31.4150034 4.35824516,28.137245 4.35824516,28.137245 Z" id="Fill-1" fill="#FFFFFF" mask="url(#mask-2)"></path>
                    </g>
                </g>
            </g>
        </g>
    </g>
</svg>