<svg width="11px" height="11px" viewBox="0 0 11 11" version="1.1" xmlns="http://www.w3.org/2000/svg" xmlns:xlink="http://www.w3.org/1999/xlink">
    <!-- Generator: Sketch 44.1 (41455) - http://www.bohemiancoding.com/sketch -->
    <desc>Created with Sketch.</desc>
    <defs></defs>
    <g id="Page-1" stroke="none" stroke-width="1" fill="none" fill-rule="evenodd">
        <g id="会员" transform="translate(-60.000000, -249.000000)" stroke="#FFFFFF" stroke-width="0.3" fill="#FFFFFF">
            <g id="Group-9" transform="translate(20.000000, 170.000000)">
                <g id="Group-Copy-3" transform="translate(37.000000, 77.000000)">
                    <path d="M12.8664358,3.50577542 C12.8530941,3.30310217 12.6793214,3.127915 12.478292,3.11447141 L9.32642653,3.00081892 C9.12539709,2.98738807 8.97324879,3.14075968 8.98657769,3.34342019 C8.99993208,3.54608071 9.17369207,3.72125514 9.37472151,3.73472421 L11.628963,3.81601014 L9.89382246,5.56521862 C9.27026928,5.03727421 8.46734932,4.71852735 7.59017742,4.71852735 C5.60736906,4.71852735 4,6.34264036 4,8.34609196 C4,10.3495308 5.60736906,11.9736311 7.59017742,11.9736311 C9.57299853,11.9736311 11.1803421,10.3495308 11.1803421,8.34609196 C11.1803421,7.50936552 10.8971984,6.74102934 10.4261886,6.12730082 L12.1708224,4.36852255 L12.2512036,6.63448731 C12.2645453,6.83713508 12.438318,7.01236048 12.6393474,7.02579133 C12.8403896,7.03924766 12.9925379,6.88586331 12.9791835,6.6832028 L12.8664358,3.50577542 Z M7.59016468,11.225696 C6.02294799,11.225696 4.74794779,9.93391366 4.74794779,8.34610471 C4.74794779,6.75827027 6.02296073,5.46648788 7.59016468,5.46648788 C9.15736862,5.46648788 10.4323688,6.75827027 10.4323688,8.34610471 C10.4323688,9.93391366 9.15738136,11.225696 7.59016468,11.225696 L7.59016468,11.225696 Z" id="男"></path>
                </g>
            </g>
        </g>
    </g>
</svg>