<svg width="300px" height="129px" viewBox="0 0 300 129" version="1.1" xmlns="http://www.w3.org/2000/svg" xmlns:xlink="http://www.w3.org/1999/xlink">
    <!-- Generator: Sketch 44.1 (41455) - http://www.bohemiancoding.com/sketch -->
    <desc>Created with Sketch.</desc>
    <defs>
        <linearGradient x1="74.305291%" y1="113.156997%" x2="33.8586533%" y2="-7.91599282%" id="linearGradient-1">
            <stop stop-color="#F72152" offset="0%"></stop>
            <stop stop-color="#FF6145" offset="100%"></stop>
        </linearGradient>
        <path d="M5,2.66442684e-15 L295,2.66442684e-15 L295,-1.77635684e-15 C297.761424,-3.41679267e-14 300,2.23857625 300,5 L300,58 C255.281538,70.6666667 205.281538,77 150,77 C94.7184623,77 44.7184623,70.6666667 2.84217094e-14,58 L2.84217094e-14,5 L2.84217094e-14,5 C2.80835326e-14,2.23857625 2.23857625,5.07243986e-16 5,0 Z" id="path-2"></path>
        <path d="M4.71697879,6.25393118 C4.66435427,3.30425138 7.00827262,0.913063445 9.96364843,0.913063445 L10.1548029,0.913063445 C13.1050831,0.913063445 15.4539384,3.31314401 15.4014725,6.25393118 L15.0741826,24.5990016 C15.0215581,27.5486814 12.5970669,29.9398694 9.64169272,29.9398694 L10.4767586,29.9398694 C7.52910182,29.9398694 5.0967346,27.5397888 5.04426874,24.5990016 L4.71697879,6.25393118 Z" id="path-4"></path>
        <path d="M3.36511309,6.04979005 C3.31248857,3.10011025 5.65640691,0.708922314 8.61178273,0.708922314 L8.80293721,0.708922314 C11.7532174,0.708922314 14.1020727,3.10900288 14.0496068,6.04979005 L13.7223169,24.3948605 C13.6696924,27.3445403 11.2452012,29.7357282 8.28982702,29.7357282 L9.12489291,29.7357282 C6.17723612,29.7357282 3.7448689,27.3356477 3.69240303,24.3948605 L3.36511309,6.04979005 Z" id="path-6"></path>
        <path d="M7.27646658,6.55094989 C7.22076339,3.42870599 9.70180718,0.897627211 12.8300803,0.897627211 L13.0324178,0.897627211 C16.1552972,0.897627211 18.6418003,3.42503466 18.5860316,6.55094989 L18.2395943,25.9692557 C18.1838911,29.0914996 15.6175607,31.6225783 12.4892894,31.6225783 L13.3732088,31.6225783 C10.2531063,31.6225783 7.67867255,29.0951709 7.62290385,25.9692557 L7.27646658,6.55094989 Z" id="path-8"></path>
        <filter x="-10.8%" y="-11.1%" width="121.7%" height="123.5%" filterUnits="objectBoundingBox" id="filter-10">
            <feOffset dx="0" dy="0" in="SourceAlpha" result="shadowOffsetOuter1"></feOffset>
            <feGaussianBlur stdDeviation="3" in="shadowOffsetOuter1" result="shadowBlurOuter1"></feGaussianBlur>
            <feColorMatrix values="0 0 0 0 0.483843537   0 0 0 0 0.262193171   0 0 0 0 0.014728744  0 0 0 0.477100317 0" type="matrix" in="shadowBlurOuter1" result="shadowMatrixOuter1"></feColorMatrix>
            <feMerge>
                <feMergeNode in="shadowMatrixOuter1"></feMergeNode>
                <feMergeNode in="SourceGraphic"></feMergeNode>
            </feMerge>
        </filter>
        <polygon id="path-11" points="11 0.128128595 80.5712251 0.128128595 79.5963002 5.8450418 82.521075 12.1507876 78.6213753 18.4088125 80.5712251 23.5797531 78.6213753 26.3425612 79.5963002 29.1548748 80.5712251 38.9583 78.6662734 45.299074 81.5461501 52.0589203 78.6662734 56.9891576 79.9628973 61.8950012 77.6464503 64.648211 79.7903226 68.7410114 79.5963002 71.4751619 11 71.4751619"></polygon>
        <filter x="-12.5%" y="-12.3%" width="125.0%" height="124.7%" filterUnits="objectBoundingBox" id="filter-13">
            <feOffset dx="0" dy="0" in="SourceAlpha" result="shadowOffsetOuter1"></feOffset>
            <feGaussianBlur stdDeviation="3" in="shadowOffsetOuter1" result="shadowBlurOuter1"></feGaussianBlur>
            <feColorMatrix values="0 0 0 0 0.483843537   0 0 0 0 0.262193171   0 0 0 0 0.014728744  0 0 0 0.387737772 0" type="matrix" in="shadowBlurOuter1" result="shadowMatrixOuter1"></feColorMatrix>
            <feMerge>
                <feMergeNode in="shadowMatrixOuter1"></feMergeNode>
                <feMergeNode in="SourceGraphic"></feMergeNode>
            </feMerge>
        </filter>
        <polygon id="path-14" points="71.3645683 0.257188478 3.30796563 0.129365813 2.32362676 5.90148187 5.27664338 12.2681163 1.33928789 18.5865691 3.30796563 23.8074406 1.33928789 26.5969266 2.32362676 29.4363959 3.30796563 39.3344836 1.38461957 45.7364845 4.29230451 52.5616043 1.38461957 57.5394482 2.69376376 62.4926629 0.354949015 65.2724579 2.5195227 69.4047786 2.32362676 72.1653302 71.3645683 72.2931529"></polygon>
    </defs>
    <g id="Page-1" stroke="none" stroke-width="1" fill="none" fill-rule="evenodd">
        <g id="选择付款方式-同线上-copy-21" transform="translate(-298.000000, -133.000000)">
            <g id="图文-copy-4" transform="translate(298.000000, 133.000000)">
                <g id="Group-7">
                    <g id="复制成功图">
                        <g id="人民币-(2)-copy-2-+-人民币-(2)-+-收银-(1)-Mask">
                            <mask id="mask-3" fill="white">
                                <use xlink:href="#path-2"></use>
                            </mask>
                            <use id="Mask" fill="url(#linearGradient-1)" xlink:href="#path-2"></use>
                            <path d="M58.0045943,18.1657056 C57.4195167,18.1224843 56.9699338,17.8786918 56.6557639,17.4344912 C56.3416349,16.9902905 56.1519098,16.4972824 56.0869555,15.95563 C56.1519098,15.4138145 56.3416349,14.9696138 56.6557639,14.6229465 C56.9699338,14.2762384 57.4195167,14.0812941 58.0045943,14.038032 L64.2775932,14.038032 L64.2775932,11.9902401 L58.0045943,11.9578649 C57.4195167,11.9144805 56.9699338,11.7086493 56.6557639,11.3402898 C56.3416349,10.9718895 56.1519098,10.5059559 56.0869555,9.94257047 C56.1519098,9.40091805 56.3416349,8.95671739 56.6557639,8.61000928 C56.9699338,8.26334194 57.4195167,8.06835686 58.0045943,8.02497247 L62.6849703,8.02497247 L58.3295694,0.354335833 C58.1128921,0.0944372673 57.9071017,-0.2360017 57.7121574,-0.636899518 C57.5170092,-1.03771579 57.4303628,-1.47661572 57.452055,-1.95319156 C57.5604344,-2.55996134 57.7770709,-3.05296943 58.1020868,-3.4320935 C58.427062,-3.81129913 59.0338317,-4.05513242 59.9221923,-4.16343029 C60.4423156,-4.12000513 60.9082085,-3.94137074 61.3198708,-3.62720091 C61.7316555,-3.31290877 62.0674767,-2.97166448 62.3273753,-2.6033865 L67.2678538,6.43230884 L72.6956318,-2.66834075 C72.9557343,-3.03670028 73.2915963,-3.3617162 73.7033402,-3.64347006 C74.1149618,-3.92506082 74.5808547,-4.09847603 75.1008557,-4.16343029 C75.4259939,-4.1417381 75.7238538,-4.09847603 75.9947616,-4.03339946 C76.265547,-3.9684452 76.5039165,-3.86014734 76.7097477,-3.70838354 C76.9155788,-3.55666051 77.0889941,-3.33998323 77.2298302,-3.05843325 C77.3707479,-2.77663862 77.4736635,-2.40823831 77.538577,-1.95319156 C77.538577,-1.32489269 77.3218997,-0.729009788 76.8885451,-0.165624397 L71.8506965,8.02497247 L76.628565,8.02497247 C77.1919096,8.06835686 77.6361103,8.26334194 77.9611262,8.61000928 C78.2861014,8.95671739 78.4704035,9.40091805 78.5136247,9.94257047 C78.4704035,10.5059559 78.2808822,10.982654 77.9448571,11.3727873 C77.6089951,11.7627167 77.1593714,11.9795163 76.5960267,12.0227784 L70.3881452,12.0553167 L70.3881452,14.038032 L76.628565,14.038032 C77.1919096,14.0812941 77.6361103,14.2979306 77.9611262,14.6880638 C78.2861014,15.0779932 78.4704035,15.5438453 78.5136247,16.0857016 C78.4704035,16.6490462 78.2861421,17.1203621 77.9611262,17.4994862 C77.6361103,17.8787326 77.1919096,18.0899868 76.628565,18.1333712 L70.3881452,18.1008329 L70.3881452,21.5461403 C70.3013357,23.3879787 69.2937904,24.3088775 67.3653055,24.3088775 C66.4119908,24.3088775 65.6697671,24.0813949 65.1389608,23.6261851 C64.6079913,23.1711383 64.3209368,22.477926 64.2775932,21.5461403 L64.2775932,18.1657056 L58.0045943,18.1657056 Z" id="人民币-(2)-copy-2" fill="#B7001D" opacity="0.100000001" mask="url(#mask-3)" transform="translate(67.300290, 10.072724) rotate(34.000000) translate(-67.300290, -10.072724) "></path>
                            <path d="M57.5000282,68.036383 C57.0526992,68.0033376 56.7089645,67.8169427 56.4687617,67.4773231 C56.22859,67.1377034 56.0835331,66.7607674 56.0338714,66.3466397 C56.0835331,65.9323873 56.22859,65.5927677 56.4687617,65.3277184 C56.7089645,65.0626381 57.0526992,64.9135907 57.5000282,64.8805141 L62.2961346,64.8805141 L62.2961346,63.314847 L57.5000282,63.2900942 C57.0526992,63.256924 56.7089645,63.099553 56.4687617,62.8179187 C56.22859,62.5362533 56.0835331,62.1800174 56.0338714,61.7492735 C56.0835331,61.3351458 56.22859,60.9955261 56.4687617,60.7304457 C56.7089645,60.4653965 57.0526992,60.316318 57.5000282,60.2831479 L61.0784731,60.2831479 L57.7484923,54.4184586 C57.5828288,54.2197497 57.4254889,53.9671081 57.2764416,53.6605962 C57.1272384,53.3541467 57.0609917,53.0185798 57.0775768,52.6542073 C57.1604397,52.1902932 57.3260721,51.8133572 57.5745674,51.5234927 C57.8230316,51.2335659 58.2869456,51.0471399 58.9661537,50.9643393 C59.3638211,50.9975406 59.7200258,51.1341179 60.0347678,51.3743207 C60.3496034,51.614617 60.6063601,51.87552 60.8050691,52.1570919 L64.5823789,59.0654553 L68.7322602,52.1074303 C68.9311251,51.825796 69.1879129,51.5773007 69.5027173,51.3618819 C69.8174282,51.1465879 70.1736329,51.0140009 70.5712067,50.9643393 C70.8197956,50.9809243 71.0475284,51.0140009 71.2546546,51.0637561 C71.4616873,51.1134178 71.6439359,51.1962184 71.8013069,51.3122514 C71.9586779,51.4282533 72.0912649,51.5939169 72.1989431,51.8091797 C72.3066836,52.0246297 72.3853691,52.3062951 72.4349996,52.6542073 C72.4349996,53.1345817 72.2693361,53.590172 71.938009,54.020916 L68.0862534,60.2831479 L71.7392376,60.2831479 C72.1699504,60.316318 72.50957,60.4653965 72.7580654,60.7304457 C73.0065295,60.9955261 73.1474402,61.3351458 73.1804856,61.7492735 C73.1474402,62.1800174 73.0025391,62.5444835 72.7456266,62.8427652 C72.4888387,63.140891 72.1450728,63.306648 71.71436,63.3397246 L66.96804,63.3646022 L66.96804,64.8805141 L71.7392376,64.8805141 C72.1699504,64.9135907 72.50957,65.0792231 72.7580654,65.3775048 C73.0065295,65.6756306 73.1474402,66.0318041 73.1804856,66.4460877 C73.1474402,66.8768005 73.0065607,67.2371514 72.7580654,67.5270159 C72.50957,67.8169739 72.1699504,67.9784912 71.7392376,68.0116613 L66.96804,67.9867837 L66.96804,70.6209402 C66.9016686,72.0291427 66.1313362,72.7332284 64.6568869,72.7332284 C63.9280172,72.7332284 63.36054,72.5593035 62.9547048,72.2112666 C62.548745,71.8633545 62.3292735,71.3333496 62.2961346,70.6209402 L62.2961346,68.036383 L57.5000282,68.036383 Z" id="人民币-(2)" fill="#B3001D" opacity="0.100000001" mask="url(#mask-3)" transform="translate(64.607179, 61.848784) rotate(-40.000000) translate(-64.607179, -61.848784) "></path>
                            <g id="收银-(1)" opacity="0.100000001" mask="url(#mask-3)" fill="#B3001D">
                                <g transform="translate(8.500000, 35.456742) rotate(23.000000) translate(-8.500000, -35.456742) translate(-1.000000, 25.956742)">
                                    <path d="M17.7924573,3.69638049 L14.3556817,3.69638049 L14.3556817,2.15395122 C14.3570024,1.87052683 14.2450646,1.59831707 14.0447537,1.39779756 C13.8444427,1.19727805 13.5723488,1.08503902 13.2889244,1.08605854 C13.0055,1.08503902 12.7334061,1.19727805 12.5330951,1.39779756 C12.3327841,1.59831707 12.2208463,1.87052683 12.2221671,2.15395122 L12.2221671,3.69638049 L11.1554098,3.69638049 L11.1554098,1.0856878 C11.156522,0.802379268 11.0444915,0.530354878 10.8442037,0.329997561 C10.6439159,0.129640244 10.3719378,0.0175402439 10.0886524,0.0185365854 C9.80522805,0.0175402439 9.53311098,0.129756098 9.3328,0.33027561 C9.1325122,0.530795122 9.02057439,0.803004878 9.02189512,1.08642927 L9.02189512,3.69600976 L7.95550854,3.69600976 L7.95550854,2.15395122 C7.95682927,1.87052683 7.84489146,1.59831707 7.64458049,1.39779756 C7.44426951,1.19727805 7.17217561,1.08503902 6.88875122,1.08605854 C6.60532683,1.08503902 6.33323293,1.19727805 6.13292195,1.39779756 C5.93261098,1.59831707 5.82067317,1.87052683 5.8219939,2.15395122 L5.8219939,3.69638049 L4.75523659,3.69638049 L4.75523659,3.2218439 C4.75655732,2.93848902 4.64466585,2.66632561 4.44444756,2.46582927 C4.24422927,2.26530976 3.97222805,2.15304756 3.68885,2.15395122 C3.40542561,2.15293171 3.13333171,2.26517073 2.93302073,2.46569024 C2.73270976,2.66620976 2.62079512,2.93841951 2.62209268,3.2218439 L2.62209268,3.69638049 L0.963114634,3.69638049 C0.370523171,3.69638049 0.0148060976,4.17091707 0.0148060976,4.64545366 L0.0148060976,14.2546341 C0.0148060976,14.7291707 0.488971951,15.2037073 0.963114634,15.2037073 L3.80729878,15.2037073 C4.39991341,17.339122 6.77030244,19 9.61488049,19 C12.3406159,19 14.8294537,17.339122 15.4220451,15.2037073 L18.0297256,15.2037073 C18.6219463,15.2037073 18.9776634,14.7291707 18.9776634,14.2546341 L18.9776634,4.64508293 C18.7407659,4.05209756 18.2666232,3.69600976 17.7924573,3.69600976 L17.7924573,3.69638049 Z M16.7257,13.305561 L15.3036195,13.305561 L15.3036195,12.7122049 C15.3048244,12.42885 15.1928634,12.1567329 14.9925524,11.9562829 C14.7922646,11.7558329 14.5202171,11.6436634 14.2368622,11.6446829 C13.9534146,11.6436634 13.6813207,11.7559024 13.4810098,11.956422 C13.2806988,12.1569415 13.1687841,12.4291512 13.1701049,12.7125756 L13.1701049,13.305561 L1.67417805,13.305561 L1.67417805,5.5941561 L16.7260939,5.5941561 L16.7260939,13.305561 L16.7257,13.305561 L16.7257,13.305561 Z" id="Fill-1"></path>
                                    <path d="M8.42967439,9.74653659 L8.42967439,10.1026244 L7.00757073,10.1026244 C6.77030244,10.1026244 6.53303415,10.1026244 6.41497927,10.2210732 C6.29615976,10.3398927 6.17771098,10.4583415 6.17771098,10.6956098 C6.17771098,10.932878 6.17771098,11.0516976 6.29615976,11.1701463 C6.41497927,11.2889659 6.65187683,11.2889659 6.88875122,11.2889659 L8.31122561,11.2889659 L8.31122561,12.5937561 C8.31122561,12.7125756 8.31122561,12.8310244 8.54812317,12.9498439 C8.66654878,13.0682927 8.90381707,13.0682927 9.14071463,13.0682927 C9.3776122,13.0682927 9.61488049,13.0682927 9.7333061,12.9494732 C9.85175488,12.8310244 9.97020366,12.7125756 9.97020366,12.5937561 L9.97020366,11.2885951 L11.6295524,11.2885951 C11.7480012,11.2885951 11.9852695,11.2885951 11.9852695,11.1701463 C12.1037183,11.0513268 12.1037183,10.932878 12.1037183,10.6956098 C12.1037183,10.339522 11.8668207,10.1022537 11.5111268,10.1022537 L9.85214878,10.1022537 L9.85214878,9.74653659 L11.8668207,6.89931707 C11.9852695,6.66204878 12.1037183,6.54322927 12.1037183,6.42478049 C12.1037183,6.30596098 11.9852695,6.1875122 11.7480012,6.06869268 C11.5111268,5.9502439 11.2742293,5.9502439 11.1557805,5.9502439 C10.9185122,5.9502439 10.8000634,6.06906341 10.6812439,6.30633171 L9.02226585,8.67901463 L7.24446829,6.30633171 C7.12601951,6.1875122 7.00757073,6.06906341 6.77030244,6.06906341 C6.53342805,6.06906341 6.41497927,6.06906341 6.17808171,6.1875122 C6.0592622,6.30633171 5.94081341,6.42478049 5.94081341,6.5436 C5.94081341,6.66204878 5.94081341,6.78086829 6.0592622,6.89931707 L8.42967439,9.74653659" id="Fill-2"></path>
                                </g>
                            </g>
                        </g>
                        <path d="M270.885408,8.34733335 L268.915955,10.9732906 L269.920773,10.9732906 C270.216599,10.9732906 270.456668,11.2133601 270.456668,11.5091858 C270.456668,11.8050115 270.216599,12.045081 269.920773,12.045081 L268.112083,12.045081 L268.045081,12.1343086 L268.045081,12.8489533 L269.920773,12.8489533 C270.216599,12.8489533 270.456668,13.0890522 270.456668,13.3848779 C270.456668,13.6806742 270.216599,13.9207732 269.920773,13.9207732 L268.045081,13.9207732 L268.045081,15.7964653 C268.045081,16.0922616 267.805011,16.3323605 267.509186,16.3323605 C267.21336,16.3323605 266.973291,16.0922616 266.973291,15.7964653 L266.973291,13.9207732 L265.097598,13.9207732 C264.801773,13.9207732 264.561703,13.6806742 264.561703,13.3848779 C264.561703,13.0890522 264.801773,12.8489533 265.097598,12.8489533 L266.973291,12.8489533 L266.973291,12.1343086 L266.906289,12.045081 L265.097598,12.045081 C264.801773,12.045081 264.561703,11.8050115 264.561703,11.5091858 C264.561703,11.2133601 264.801773,10.9732906 265.097598,10.9732906 L266.102417,10.9732906 L264.132963,8.34733335 C263.955303,8.11044317 264.003288,7.77443416 264.239883,7.59706827 C264.477833,7.4188781 264.813018,7.46789291 264.990149,7.70395881 L267.442184,10.9732906 L267.576452,10.9732906 L270.028223,7.70422376 C270.205618,7.46789291 270.541097,7.41914305 270.778488,7.59733321 C271.015084,7.77443416 271.063068,8.11044317 270.885408,8.34733335 Z M275.279843,11.5091858 C275.279843,15.8007339 271.800734,19.2798431 267.509186,19.2798431 C263.217638,19.2798431 259.738528,15.8007339 259.738528,11.5091858 C259.738528,7.21763773 263.217638,3.73852849 267.509186,3.73852849 C271.800734,3.73852849 275.279843,7.21763773 275.279843,11.5091858 Z M274.003309,11.5091858 C274.003309,7.92262667 271.095745,5.01506246 267.509186,5.01506246 C263.922627,5.01506246 261.015062,7.92262667 261.015062,11.5091858 C261.015062,15.0957449 263.922627,18.0033091 267.509186,18.0033091 C271.095745,18.0033091 274.003309,15.0957449 274.003309,11.5091858 L274.003309,11.5091858 Z" id="人民币-(1)-copy-3" fill="#E71A46" opacity="0.229999989" transform="translate(267.509186, 11.509186) rotate(28.000000) translate(-267.509186, -11.509186) "></path>
                    </g>
                    <g id="Group-32" transform="translate(73.000000, 7.000000)">
                        <g id="Group-21" transform="translate(0.731692, 0.000000)">
                            <g id="Rectangle-28" transform="translate(157.800332, 6.331500)">
                                <mask id="mask-5" fill="white">
                                    <use xlink:href="#path-4"></use>
                                </mask>
                                <use id="Mask" fill="#F8AC89" transform="translate(10.059222, 15.426466) rotate(16.000000) translate(-10.059222, -15.426466) " xlink:href="#path-4"></use>
                                <rect fill="#FFE2D4" opacity="0.5" mask="url(#mask-5)" transform="translate(16.648685, 7.831770) rotate(-23.000000) translate(-16.648685, -7.831770) " x="12.4937422" y="3.66969871" width="8.30988547" height="8.32414194" rx="4.15494273"></rect>
                            </g>
                            <g id="Rectangle-28" transform="translate(150.689594, 0.000000)">
                                <mask id="mask-7" fill="white">
                                    <use xlink:href="#path-6"></use>
                                </mask>
                                <use id="Mask" fill="#FAB18F" transform="translate(8.707356, 15.222325) rotate(-10.000000) translate(-8.707356, -15.222325) " xlink:href="#path-6"></use>
                                <rect fill="#FFE2D4" opacity="0.600000024" mask="url(#mask-7)" transform="translate(11.118111, 5.457457) rotate(-23.000000) translate(-11.118111, -5.457457) " x="6.96316806" y="1.29538625" width="8.30988547" height="8.32414194" rx="4.15494273"></rect>
                            </g>
                            <g id="Rectangle-28" transform="translate(139.628446, 0.000000)">
                                <mask id="mask-9" fill="white">
                                    <use xlink:href="#path-8"></use>
                                </mask>
                                <use id="Mask" fill="#FFB796" transform="translate(12.931249, 16.260103) rotate(-27.000000) translate(-12.931249, -16.260103) " xlink:href="#path-8"></use>
                                <rect fill="#FFE2D4" opacity="0.600000024" mask="url(#mask-9)" transform="translate(11.908193, 5.457457) rotate(-23.000000) translate(-11.908193, -5.457457) " x="7.75325008" y="1.29538625" width="8.30988547" height="8.32414194" rx="4.15494273"></rect>
                            </g>
                            <path d="M152.627309,58.7781584 C151.763647,58.8880078 150.883387,58.9446271 149.989914,58.9446271 C144.936189,58.9446271 140.305161,57.1331817 136.709575,54.1235982 L136.784421,54.0302798 C135.702843,53.0802727 135.020063,51.6864046 135.020063,50.1329181 C135.020063,47.2702285 137.338602,44.9495599 140.198665,44.9495599 C141.773,44.9495599 143.183253,45.6527237 144.13304,46.762394 C145.798911,47.9076683 147.816213,48.5779107 149.989914,48.5779107 C155.71004,48.5779107 160.347118,43.9365737 160.347118,38.2111943 C160.347118,32.4858149 155.71004,27.8444779 149.989914,27.8444779 C146.338286,27.8444779 143.128034,29.7359728 141.283781,32.5934914 C140.46607,34.379176 138.664572,35.6195152 136.573643,35.6195152 C133.71358,35.6195152 131.395041,33.2988467 131.395041,30.436157 C131.395041,29.2021995 131.825832,28.068951 132.545092,27.1788632 L132.476464,27.1341337 C136.148001,21.3307322 142.619416,17.4777615 149.989914,17.4777615 C159.099806,17.4777615 166.836185,23.3638723 169.609962,31.5437092 L228.248353,21.9730094 L225.612492,47.0515439 L152.627309,58.9446271 L152.627309,58.7781584 Z" id="Combined-Shape" fill="#FFC0A3" transform="translate(179.821697, 38.211194) rotate(-6.000000) translate(-179.821697, -38.211194) "></path>
                            <g id="Combined-Shape" filter="url(#filter-10)" transform="translate(42.922659, 74.657959) rotate(-1.000000) translate(-42.922659, -74.657959) translate(1.422659, 34.157959)">
                                <mask id="mask-12" fill="white">
                                    <use xlink:href="#path-11"></use>
                                </mask>
                                <use id="Mask" fill="#FFE3AE" xlink:href="#path-11"></use>
                                <path d="M143.310301,62.190274 L143.310301,9.41301649 C140.883524,9.41301649 138.916232,7.4439179 138.916232,5.0149117 L20.276368,5.0149117 C20.276368,7.4439179 18.3090763,9.41301649 15.8822989,9.41301649 L15.8822989,62.190274 C18.3090763,62.190274 20.276368,64.1593726 20.276368,66.5883788 L138.916232,66.5883788 C138.916232,64.1593726 140.883524,62.190274 143.310301,62.190274 Z" fill="#FFFFF7" mask="url(#mask-12)"></path>
                                <path d="M29.0691981,25.9764309 L27.7476661,25.9764309 L27.7476661,15.9241413 L25.8975213,15.9241413 L26.7059879,14.6210667 L29.0691981,14.6210667 L29.0691981,25.9764309 Z M35.6390999,14.3418364 C36.862171,14.3418364 37.8312847,14.8563389 38.5464703,15.8853593 C39.2616559,16.9143797 39.6192433,18.3880802 39.6192433,20.3065052 C39.6192433,22.2249301 39.2564735,23.6960452 38.5309229,24.7198947 C37.8053723,25.7437441 36.8336673,26.2556611 35.6157788,26.2556611 C34.3978903,26.2556611 33.4546887,25.7515004 32.7861456,24.7431639 C32.1176025,23.7348273 31.783336,22.250785 31.783336,20.2909924 C31.783336,18.3311998 32.1176025,16.8497429 32.7861456,15.8465773 C33.4546887,14.8434117 34.4056639,14.3418364 35.6390999,14.3418364 Z M35.6701948,25.0301505 C36.5201255,25.0301505 37.1808849,24.6190656 37.6524928,23.7968835 C38.1241007,22.9747014 38.3599011,21.8086682 38.3599011,20.2987488 C38.3599011,18.7888294 38.116327,17.6305525 37.6291716,16.8238832 C37.1420162,16.017214 36.4864393,15.6138854 35.6624211,15.6138854 C34.8384029,15.6138854 34.1983732,16.017214 33.7423129,16.8238832 C33.2862525,17.6305525 33.0582257,18.7991712 33.0582257,20.3297744 C33.0582257,23.4633741 33.9288734,25.0301505 35.6701948,25.0301505 Z M46.4734412,14.3418364 C47.6965122,14.3418364 48.6656259,14.8563389 49.3808115,15.8853593 C50.0959971,16.9143797 50.4535845,18.3880802 50.4535845,20.3065052 C50.4535845,22.2249301 50.0908147,23.6960452 49.3652641,24.7198947 C48.6397135,25.7437441 47.6680085,26.2556611 46.45012,26.2556611 C45.2322315,26.2556611 44.2890299,25.7515004 43.6204868,24.7431639 C42.9519438,23.7348273 42.6176773,22.250785 42.6176773,20.2909924 C42.6176773,18.3311998 42.9519438,16.8497429 43.6204868,15.8465773 C44.2890299,14.8434117 45.2400051,14.3418364 46.4734412,14.3418364 Z M46.504536,25.0301505 C47.3544667,25.0301505 48.0152261,24.6190656 48.486834,23.7968835 C48.9584419,22.9747014 49.1942423,21.8086682 49.1942423,20.2987488 C49.1942423,18.7888294 48.9506683,17.6305525 48.4635129,16.8238832 C47.9763575,16.017214 47.3207805,15.6138854 46.4967623,15.6138854 C45.6727441,15.6138854 45.0327145,16.017214 44.5766541,16.8238832 C44.1205937,17.6305525 43.8925669,18.7991712 43.8925669,20.3297744 C43.8925669,23.4633741 44.7632146,25.0301505 46.504536,25.0301505 Z" id="100" stroke="#FCE0AB" fill="#FCE0AB" opacity="0.699999988" mask="url(#mask-12)" transform="translate(38.175553, 20.298749) rotate(-360.000000) translate(-38.175553, -20.298749) "></path>
                                <path d="M25.8975213,62.841845 L135.767372,62.841845" id="Path-8" stroke="#D2DFF0" opacity="0.200000003" mask="url(#mask-12)"></path>
                                <path d="M25.8975213,9.11875858 L135.767372,9.11875858" id="Path-8-Copy" stroke="#D2DFF0" opacity="0.200000003" mask="url(#mask-12)"></path>
                                <g id="Group-5" transform="translate(0.895590, 48.964181)">
                                    <circle id="Oval-2" fill="#FA3C4D" cx="16" cy="16" r="16"></circle>
                                    <path d="M22.5000518,9.49944455 C21.8334542,8.83351848 20.7533609,8.83351848 20.0867169,9.49944455 L15.9999942,13.5863198 L11.9140142,9.49944455 C11.2473702,8.83351848 10.1665806,8.83351848 9.49998301,9.49944455 C8.83408178,10.1661134 8.83408178,11.2469434 9.49998301,11.9128695 L13.5867058,15.9997447 L9.49998301,20.0866199 C8.833339,20.7532423 8.833339,21.8341187 9.49998301,22.4999983 C10.1665806,23.1666672 11.2473702,23.1666672 11.9132715,22.4999983 L15.9999942,18.4138659 L20.0867169,22.4999983 C20.7533609,23.1666672 21.8341506,23.1666672 22.5000518,22.4999983 C23.1666494,21.8341187 23.1666494,20.7532423 22.5000518,20.0866199 L18.4133291,15.9997447 L22.5000518,11.9128695 C23.165953,11.2469434 23.165953,10.1661134 22.5000518,9.49944455 Z" id="失败" fill="#FFFFFF"></path>
                                </g>
                            </g>
                            <g id="Combined-Shape" filter="url(#filter-13)" transform="translate(119.553160, 71.745264) rotate(4.000000) translate(-119.553160, -71.745264) translate(83.553160, 35.245264)">
                                <mask id="mask-15" fill="white">
                                    <use xlink:href="#path-14"></use>
                                </mask>
                                <use id="Mask" fill="#FFE3AC" xlink:href="#path-14"></use>
                                <path d="M66.6528542,62.7907869 L66.6528542,9.50390913 C64.2026437,9.50390913 62.2163557,7.51579681 62.2163557,5.06333598 L-57.5691022,5.06333598 C-57.5691022,7.51579681 -59.5553902,9.50390913 -62.0056006,9.50390913 L-62.0056006,62.7907869 C-59.5553902,62.7907869 -57.5691022,64.7788992 -57.5691022,67.2313601 L62.2163557,67.2313601 C62.2163557,64.7788992 64.2026437,62.7907869 66.6528542,62.7907869 Z" fill="#FFFFF7" mask="url(#mask-15)"></path>
                                <path d="M-51.8936707,63.4486496 L59.03709,63.4486496" id="Path-8" stroke="#D2DFF0" opacity="0.200000003" mask="url(#mask-15)"></path>
                                <path d="M-51.8936707,9.20680985 L59.03709,9.20680985" id="Path-8-Copy" stroke="#D2DFF0" opacity="0.200000003" mask="url(#mask-15)"></path>
                                <path d="M37.9304528,59.6689914 L36.59616,59.6689914 L36.59616,49.5196363 L34.7281501,49.5196363 L35.5444233,48.2039792 L37.9304528,48.2039792 L37.9304528,59.6689914 Z M44.563794,47.9220526 C45.7986751,47.9220526 46.7771466,48.4415232 47.4992381,49.4804798 C48.2213296,50.5194365 48.5823699,52.0073672 48.5823699,53.9443166 C48.5823699,55.881266 48.2160971,57.3665862 47.4835405,58.400322 C46.750984,59.4340578 45.7698962,59.9509179 44.5402477,59.9509179 C43.3105991,59.9509179 42.3582899,59.441889 41.6832914,58.4238159 C41.0082928,57.4057428 40.6707986,55.9073705 40.6707986,53.928654 C40.6707986,51.9499375 41.0082928,50.4541756 41.6832914,49.4413234 C42.3582899,48.4284712 43.3184479,47.9220526 44.563794,47.9220526 Z M44.5951891,58.7135737 C45.4533268,58.7135737 46.1204665,58.2985194 46.5966283,57.4683982 C47.0727901,56.6382771 47.3108674,55.4609845 47.3108674,53.9364853 C47.3108674,52.4119861 47.0649414,51.2425247 46.5730819,50.4280662 C46.0812225,49.6136077 45.4193153,49.2063846 44.5873403,49.2063846 C43.7553654,49.2063846 43.1091556,49.6136077 42.6486914,50.4280662 C42.1882273,51.2425247 41.9579987,52.4224277 41.9579987,53.9678105 C41.9579987,57.1316685 42.8370534,58.7135737 44.5951891,58.7135737 Z M55.5027523,47.9220526 C56.7376333,47.9220526 57.7161049,48.4415232 58.4381964,49.4804798 C59.1602878,50.5194365 59.5213281,52.0073672 59.5213281,53.9443166 C59.5213281,55.881266 59.1550554,57.3665862 58.4224988,58.400322 C57.6899422,59.4340578 56.7088544,59.9509179 55.4792059,59.9509179 C54.2495574,59.9509179 53.2972482,59.441889 52.6222496,58.4238159 C51.9472511,57.4057428 51.6097569,55.9073705 51.6097569,53.928654 C51.6097569,51.9499375 51.9472511,50.4541756 52.6222496,49.4413234 C53.2972482,48.4284712 54.2574061,47.9220526 55.5027523,47.9220526 Z M55.5341474,58.7135737 C56.3922851,58.7135737 57.0594248,58.2985194 57.5355865,57.4683982 C58.0117483,56.6382771 58.2498256,55.4609845 58.2498256,53.9364853 C58.2498256,52.4119861 58.0038996,51.2425247 57.5120402,50.4280662 C57.0201808,49.6136077 56.3582735,49.2063846 55.5262986,49.2063846 C54.6943236,49.2063846 54.0481138,49.6136077 53.5876497,50.4280662 C53.1271856,51.2425247 52.8969569,52.4224277 52.8969569,53.9678105 C52.8969569,57.1316685 53.7760116,58.7135737 55.5341474,58.7135737 Z" id="100" stroke="#FCE0AB" fill="#FCE0AB" opacity="0.699999988" mask="url(#mask-15)" transform="translate(47.124739, 53.936485) rotate(-360.000000) translate(-47.124739, -53.936485) "></path>
                            </g>
                            <path d="M144.995194,49.3262192 C146.661065,50.4714935 148.678367,51.1417359 150.852069,51.1417359 C156.572195,51.1417359 161.209273,46.5003989 161.209273,40.7750195 C161.209273,40.6150719 161.205654,40.4559703 161.198493,40.2977924 L171.561097,40.2977924 C171.564677,40.4564346 171.566477,40.6155167 171.566477,40.7750195 C171.566477,52.2257782 162.29232,61.5084523 150.852069,61.5084523 C145.796643,61.5084523 141.164199,59.6957876 137.5681,56.6843848 L137.642935,56.5909049 C136.563466,55.6409691 135.882217,54.2484864 135.882217,52.6967434 C135.882217,49.8340537 138.200756,47.5133852 141.060819,47.5133852 C142.635155,47.5133852 144.045408,48.2165489 144.995194,49.3262192 Z" id="Combined-Shape-Copy" fill="#FFC0A3" transform="translate(153.724347, 50.903122) rotate(-5.000000) translate(-153.724347, -50.903122) "></path>
                        </g>
                    </g>
                </g>
            </g>
        </g>
    </g>
</svg>