<?xml version="1.0" encoding="UTF-8"?>
<svg width="20px" height="20px" viewBox="0 0 20 20" version="1.1" xmlns="http://www.w3.org/2000/svg" xmlns:xlink="http://www.w3.org/1999/xlink">
    <!-- Generator: Sketch 46.2 (44496) - http://www.bohemiancoding.com/sketch -->
    <title>POS@2x</title>
    <desc>Created with Sketch.</desc>
    <defs>
        <circle id="path-1" cx="10" cy="10" r="10"></circle>
        <polygon id="path-3" points="0.00168539326 20 20 20 20 0.00112359551 0.00168539326 0.00112359551"></polygon>
    </defs>
    <g id="Page-1" stroke="none" stroke-width="1" fill="none" fill-rule="evenodd">
        <g id="POS">
            <mask id="mask-2" fill="white">
                <use xlink:href="#path-1"></use>
            </mask>
            <use id="Mask" fill="#F2C367" xlink:href="#path-1"></use>
            <g id="银联-(1)" mask="url(#mask-2)">
                <g id="Group-5">
                    <mask id="mask-4" fill="white">
                        <use xlink:href="#path-3"></use>
                    </mask>
                    <g id="Clip-2"></g>
                    <path d="M15.341573,1.54603933 C12.4097378,13.6569569 10.9625468,19.8082772 11,20 C17,20 20,15.0966573 20,10 C20,6.44047753 18.141573,3.31679775 15.341573,1.54603933 Z" id="Fill-1" fill="#006A65" mask="url(#mask-4)"></path>
                    <path d="M11.2224719,19.2336798 L15.3392697,1.54384831 C13.7932303,0.566292135 11.9641011,0 10,0 C9.39101124,0 8.79553371,0.053988764 8.21573034,0.159550562 C8.17755618,0.26741573 8.1438764,0.37755618 8.11907303,0.48991573 L4.19098315,18.141573 C5.82921348,19.3123596 7.83367978,20 10,20 C10.3932584,20 10.7798315,19.9775 11.1617697,19.9326404 C11.1460955,19.7124157 11.1662921,19.4763764 11.2224719,19.2336798 Z" id="Fill-3" fill="#082F67" mask="url(#mask-4)"></path>
                    <path d="M8.15724719,0.28988764 C8.16626404,0.247219101 8.17755618,0.204522472 8.18876404,0.164044944 C3.53033708,1.01573034 0,5.0966573 0,10 C0,13.3617978 1.65839888,16.3348315 4.20230337,18.1482584 L8.15724719,0.28988764 Z" id="Fill-4" fill="#ED171F" mask="url(#mask-4)"></path>
                </g>
                <path d="M6.97977528,9.55724719 L8.5236236,9.55724719 L8.63367978,9.08311798 L7.08983146,9.08311798 L6.97977528,9.55724719 Z M7.13932584,8.86741573 C7.40904494,8.66516854 7.7236236,8.53483146 8.05839888,8.48983146 L8.77303371,8.48983146 L8.88308989,8.01800562 L7.33935393,8.01800562 L7.13932584,8.86741573 Z M11.8314326,8.01351124 L11.5483427,9.23817416 C11.8089326,9.03146067 12.1236517,8.89890449 12.4539045,8.85839888 L12.6516292,8.01120787 L11.8314326,8.01120787 L11.8314326,8.01351124 Z M11.211264,10.6763483 C11.4718539,10.4696348 11.786573,10.3392697 12.1191292,10.3010955 L12.3168539,9.45168539 L11.4966573,9.45168539 L11.211264,10.6763483 Z M10.966236,11.7280899 L11.7842697,11.7280899 L11.9797753,10.8853933 L11.1617697,10.8853933 L10.966236,11.7280899 Z M13.988764,7.41792135 L14.9168258,7.41792135 C14.9011236,7.5302809 14.9011236,7.64494382 14.9168258,7.75730337 C14.9168258,7.75730337 14.9505056,7.94384831 15.2674157,7.9483427 L15.1280618,8.54601124 L14.613427,8.54601124 C14.3775281,8.55280899 14.1617978,8.42247191 14.0539326,8.21342697 C13.9482865,7.96182584 13.9258989,7.68314607 13.988764,7.41792135 Z M3.51463483,8.21123596 L3.78205056,8.21123596 C3.78205056,8.21123596 4.17078652,8.18205056 4.41120787,7.41792135 L5.30789326,7.41792135 C5.25171348,7.5527809 5.18873596,7.68544944 5.11455056,7.81348315 L6.23376404,7.81348315 L6.09441011,8.40896067 L4.66511236,8.40896067 C4.42921348,8.65168539 4.11011236,8.80002809 3.77073034,8.82022472 L3.3752809,8.82022472 L3.51463483,8.21123596 Z M4.42702247,11.9887921 L5.26070225,11.9887921 L5.12353933,12.5820787 L3.82921348,12.5820787 C3.72134831,12.5842697 3.61351124,12.5550843 3.52132022,12.4966011 C3.38648876,12.388736 3.33261236,12.2067135 3.38648876,12.0426685 L3.63148876,10.9865449 L3.02252809,10.9865449 L3.16176966,10.388764 L3.77073034,10.388764 L3.96407303,9.55505618 L3.35508427,9.55505618 L3.49432584,8.95957865 L5.96174157,8.95957865 L5.82469101,9.55505618 L4.81345506,9.55505618 L4.62022472,10.388764 L5.63146067,10.388764 L5.49213483,10.9865449 L4.47867978,10.9865449 L4.28985955,11.7955618 C4.26297753,11.8696348 4.30115169,11.952809 4.37752809,11.9797753 C4.39101124,11.9864888 4.40671348,11.9887921 4.42702247,11.9887921 Z M9.16629213,10.8405056 C9.14160112,10.9617416 9.0719382,11.0696067 8.9730618,11.1437921 C8.83370787,11.233764 8.66969101,11.2764326 8.50564607,11.2629494 L8.10789326,11.2629494 L8.11688202,11.8651124 C8.12587079,11.9416011 8.1955618,11.9977809 8.27191011,11.9887921 L8.89890449,11.9887921 L8.76185393,12.5820787 L7.81567416,12.5820787 C7.81567416,12.5820787 7.40674157,12.6022753 7.31907303,12.4022472 C7.28317416,12.3145506 7.26519663,12.2180056 7.26969101,12.1213483 L7.24050562,10.3910674 L8.08988764,10.3910674 L8.0988764,10.8045225 L8.40676966,10.8045225 C8.46744382,10.8045225 8.52132022,10.7685112 8.54382022,10.7101404 L8.61800562,10.3932584 L9.26966292,10.3932584 L9.16629213,10.8405056 Z M8.61570225,10.1528371 L6.84044944,10.1528371 L6.45848315,11.7977528 C6.43367978,11.8719382 6.47185393,11.952809 6.54603933,11.9797753 C6.56185393,11.9842978 6.57752809,11.9864888 6.59323034,11.9864888 L7.15053371,11.9864888 L7.01129213,12.5820787 L6.02241573,12.5820787 C5.86969101,12.588764 5.7191573,12.5347753 5.60449438,12.433736 C5.51679775,12.3145506 5.49662921,12.1573315 5.55280899,12.0202809 L6.62252809,7.41573034 L7.47640449,7.41573034 L7.38654494,7.80230337 C7.66514045,7.59095506 7.99323034,7.45842697 8.33929775,7.41573034 L9.8741573,7.41573034 L9.39320225,9.48320225 C9.33932584,9.70109551 9.20898876,9.88983146 9.02474719,10.0180056 C8.90789326,10.1078652 8.76404494,10.1550562 8.61570225,10.1528371 Z M12.5010955,12.3235674 L12.4404213,12.5820787 L11.588736,12.5820787 L11.6494101,12.3235674 L9.67410112,12.3235674 L9.81126404,11.7303933 L10.1168539,11.7303933 L11.1169101,7.41573034 L11.9662921,7.41573034 L11.8786236,7.8 C12.1505337,7.59775281 12.4697191,7.46741573 12.8067978,7.41573034 L13.8898876,7.41573034 L13.7505618,8.01120787 L13.4988483,8.01120787 L12.633764,11.7325843 L12.8831742,11.7325843 L12.7461236,12.3235674 L12.5010955,12.3235674 Z M16.5033708,9.45168539 L15.433736,9.45168539 L15.3033989,10.0180056 L16.3730056,10.0180056 L16.2359551,10.6067978 L15.0786798,10.6067978 L14.8943258,10.9100562 L15.4067416,10.9100562 L15.5551124,11.7595787 C15.5639888,11.8539326 15.6201685,11.9392978 15.7033427,11.9887921 L15.9123596,11.9887921 L15.7730337,12.5842697 L15.319073,12.5842697 C15.1438483,12.5842697 14.9775,12.5123876 14.8584551,12.3865449 C14.7977809,12.2853652 14.7595787,12.1730056 14.7505899,12.0561517 L14.6269382,11.3483146 L14.1932865,12.0651685 C14.1213202,12.2 14.0269382,12.319073 13.9123876,12.4202247 C13.7685393,12.5347753 13.5865169,12.5932584 13.4044663,12.5842697 L12.7842978,12.5842697 L12.9213483,11.9909831 L13.235927,11.9909831 C13.3437921,11.9774719 13.4381461,11.9123034 13.4876404,11.8157584 L14.2246629,10.6067978 L13.2449438,10.6067978 L13.3819663,10.0180056 L14.4516854,10.0180056 L14.5820506,9.45168539 L13.5123315,9.45168539 L13.6494944,8.86292135 L16.6382022,8.86292135 L16.5033708,9.45168539 Z M16.5415449,8.21342697 C16.3594944,8.41797753 16.1010955,8.53932584 15.8269944,8.54601124 L15.3123876,8.54601124 L15.4516292,7.9483427 C15.6201685,7.95952247 15.7843258,7.88766854 15.8898876,7.75730337 C15.9572472,7.65162921 16.011236,7.53707865 16.0494101,7.41792135 L16.9774719,7.41792135 C16.8989326,7.71463483 16.7482584,7.98651685 16.5415449,8.21342697 Z" id="Fill-6" fill="#FFFFFF"></path>
            </g>
        </g>
    </g>
</svg>