<?xml version="1.0" encoding="UTF-8"?>
<svg width="22px" height="22px" viewBox="0 0 22 22" version="1.1" xmlns="http://www.w3.org/2000/svg" xmlns:xlink="http://www.w3.org/1999/xlink">
<!-- Generator: Sketch 44.1 (41455) - http://www.bohemiancoding.com/sketch -->
<desc>Created with Sketch.</desc>
<defs></defs>
<g id="Page-1" stroke="none" stroke-width="1" fill="none" fill-rule="evenodd">
    <g id="会员-copy-3" transform="translate(-698.000000, -104.000000)" fill="#CCCCCC">
        <g id="顶部搜索框" transform="translate(0.000000, 80.000000)">
            <g id="查询-copy" transform="translate(527.000000, 15.000000)">
                <path d="M182.062663,15.8667922 C182.297536,15.8667922 182.488148,15.7395605 182.488148,15.4413075 L182.488148,9.48452078 C182.488148,9.18626777 182.297536,9.05903601 182.062663,9.05903601 C181.827789,9.05903601 181.637178,9.18626777 181.637178,9.48452078 L181.637178,15.4413075 C181.637178,15.7395605 181.827789,15.8667922 182.062663,15.8667922 Z M182.472369,18.4197008 L171.441263,18.4197008 C171.23703,18.4197008 171,18.6567018 171,18.860964 L171,29.8920702 C171,30.0963029 171.237001,30.3333333 171.441263,30.3333333 L182.472369,30.3333333 C182.676602,30.3333333 182.913633,30.0963324 182.913633,29.8920702 L182.913633,18.860964 C182.913633,18.6567313 182.676632,18.4197008 182.472369,18.4197008 Z M172.701998,28.6313352 L181.211693,28.6313352 L181.211693,20.1216399 L172.701998,20.1216399 L172.701998,28.6313352 Z M175.680392,26.0784266 L178.2333,26.0784266 C178.404735,26.0784266 178.658785,25.8239926 178.658785,25.6529418 L178.658785,23.1000332 C178.658785,22.9289825 178.404735,22.6745485 178.2333,22.6745485 L175.680392,22.6745485 C175.508957,22.6745485 175.254907,22.9289825 175.254907,23.1000332 L175.254907,25.6529418 C175.254907,25.8239926 175.508957,26.0784266 175.680392,26.0784266 Z M191.423328,18.8451856 C190.953581,18.8451856 190.572358,19.2451413 190.572358,19.6961551 L190.572358,20.9726094 C190.572358,21.4236233 190.953581,21.8235789 191.423328,21.8235789 C191.893075,21.8235789 192.274297,21.4236233 192.274297,20.9726094 L192.274297,19.6961551 C192.274297,19.2451413 191.893075,18.8451856 191.423328,18.8451856 Z M171.425544,15.8667922 L172.701998,15.8667922 C172.991328,15.8667922 173.127483,15.7395605 173.127483,15.4413075 L173.127483,9.48452078 C173.127483,9.18626777 172.991328,9.05903601 172.701998,9.05903601 L171.425544,9.05903601 C171.136214,9.05903601 171.000059,9.18626777 171.000059,9.48452078 L171.000059,15.4413075 C171.000059,15.7395605 171.136214,15.8667922 171.425544,15.8667922 Z M191.423328,23.525518 L191.423328,23.525518 C190.953344,23.525518 190.572358,23.9065042 190.572358,24.3764875 L190.572358,28.6313352 L186.317511,28.6313352 C185.847527,28.6313352 185.466541,29.0123213 185.466541,29.4823047 C185.466541,29.9522881 185.847527,30.3332742 186.317511,30.3332742 L191.423328,30.3332742 C191.893311,30.3332742 192.274297,29.9522881 192.274297,29.4823047 L192.274297,24.3764875 C192.274297,23.9065042 191.893311,23.525518 191.423328,23.525518 Z M186.317511,15.4413075 L186.317511,9.48452078 C186.317511,9.18626777 186.198375,9.05903601 185.892026,9.05903601 L184.615572,9.05903601 C184.309223,9.05903601 184.190087,9.18626777 184.190087,9.48452078 L184.190087,15.4413075 C184.190087,15.7395605 184.309223,15.8667922 184.615572,15.8667922 L185.892026,15.8667922 C186.198375,15.8667922 186.317511,15.7395605 186.317511,15.4413075 Z M190.572358,15.8667922 L191.848813,15.8667922 C192.138142,15.8667922 192.274297,15.7395605 192.274297,15.4413075 L192.274297,9.48452078 C192.274297,9.18626777 192.138142,9.05903601 191.848813,9.05903601 L190.572358,9.05903601 C190.283029,9.05903601 190.146873,9.18626777 190.146873,9.48452078 L190.146873,15.4413075 C190.146873,15.7395605 190.283029,15.8667922 190.572358,15.8667922 Z M185.892026,19.6961551 L185.892026,24.8019723 C185.892026,25.2719557 186.273012,25.6529418 186.742995,25.6529418 C187.212979,25.6529418 187.593965,25.2719557 187.593965,24.8019723 L187.593965,19.6961551 C187.593965,19.2261717 187.212979,18.8451856 186.742995,18.8451856 C186.273012,18.8451856 185.892026,19.2261717 185.892026,19.6961551 Z M188.01945,15.8667922 L188.444934,15.8667922 C188.727468,15.8667922 188.870419,15.7395605 188.870419,15.4413075 L188.870419,9.48452078 C188.870419,9.18626777 188.727468,9.05903601 188.444934,9.05903601 L188.01945,9.05903601 C187.736916,9.05903601 187.593965,9.18626777 187.593965,9.48452078 L187.593965,15.4413075 C187.593965,15.7395605 187.736916,15.8667922 188.01945,15.8667922 Z M178.2333,15.8667922 L179.509754,15.8667922 C179.816103,15.8667922 179.935239,15.7395605 179.935239,15.4413075 L179.935239,9.48452078 C179.935239,9.18626777 179.816103,9.05903601 179.509754,9.05903601 L178.2333,9.05903601 C177.926951,9.05903601 177.807815,9.18626777 177.807815,9.48452078 L177.807815,15.4413075 C177.807815,15.7395605 177.926951,15.8667922 178.2333,15.8667922 Z M175.254907,15.8667922 L175.680392,15.8667922 C175.962925,15.8667922 176.105876,15.7395605 176.105876,15.4413075 L176.105876,9.48452078 C176.105876,9.18626777 175.962925,9.05903601 175.680392,9.05903601 L175.254907,9.05903601 C174.972373,9.05903601 174.829422,9.18626777 174.829422,9.48452078 L174.829422,15.4413075 C174.829422,15.7395605 174.972373,15.8667922 175.254907,15.8667922 L175.254907,15.8667922 Z" id="付款码"></path>
            </g>
        </g>
    </g>
</g>
</svg>