<?xml version="1.0" encoding="UTF-8"?>
<svg width="290px" height="348px" viewBox="0 0 290 348" version="1.1" xmlns="http://www.w3.org/2000/svg" xmlns:xlink="http://www.w3.org/1999/xlink">
    <!-- Generator: Sketch 46.2 (44496) - http://www.bohemiancoding.com/sketch -->
    <title>Group 2@2x</title>
    <desc>Created with Sketch.</desc>
    <defs>
        <filter x="-3.0%" y="-1.9%" width="106.1%" height="105.0%" filterUnits="objectBoundingBox" id="filter-1">
            <feOffset dx="0" dy="2" in="SourceAlpha" result="shadowOffsetOuter1"></feOffset>
            <feGaussianBlur stdDeviation="2.5" in="shadowOffsetOuter1" result="shadowBlurOuter1"></feGaussianBlur>
            <feColorMatrix values="0 0 0 0 0   0 0 0 0 0   0 0 0 0 0  0 0 0 0.1 0" type="matrix" in="shadowBlurOuter1" result="shadowMatrixOuter1"></feColorMatrix>
            <feMerge>
                <feMergeNode in="shadowMatrixOuter1"></feMergeNode>
                <feMergeNode in="SourceGraphic"></feMergeNode>
            </feMerge>
        </filter>
        <rect id="path-2" x="0" y="0" width="280" height="338" rx="20"></rect>
        <circle id="path-4" cx="15" cy="15" r="15"></circle>
        <linearGradient x1="50%" y1="6.06095186%" x2="58.579928%" y2="94.7838638%" id="linearGradient-6">
            <stop stop-color="#3996FF" offset="0%"></stop>
            <stop stop-color="#328DFF" offset="100%"></stop>
        </linearGradient>
        <circle id="path-7" cx="15" cy="15" r="15"></circle>
    </defs>
    <g id="Page-1" stroke="none" stroke-width="1" fill="none" fill-rule="evenodd">
        <g id="设置-收款二维码" transform="translate(-305.000000, -153.000000)">
            <g id="Group-2" transform="translate(310.000000, 156.000000)">
                <g id="Rectangle" filter="url(#filter-1)">
                    <mask id="mask-3" fill="white">
                        <use xlink:href="#path-2"></use>
                    </mask>
                    <use id="Mask" fill="#10A7F3" xlink:href="#path-2"></use>
                    <rect fill="#FFFFFF" mask="url(#mask-3)" x="0" y="97" width="289" height="271"></rect>
                </g>
                <text id="扫一扫付款" font-family="PingFangSC-Regular, PingFang SC" font-size="22" font-weight="normal" fill="#FFFFFF">
                    <tspan x="85" y="44">扫一扫付款</tspan>
                </text>
                <g id="Group-5" transform="translate(71.000000, 135.000000)" fill="#FFFFFF">
                    <rect id="Rectangle-16" x="0" y="0" width="139" height="139"></rect>
                </g>
                <g id="Group-6" transform="translate(105.000000, 290.000000)">
                    <g id="Combined-Shape">
                        <mask id="mask-5" fill="white">
                            <use xlink:href="#path-4"></use>
                        </mask>
                        <use id="Mask" fill="#0FD40F" xlink:href="#path-4"></use>
                        <path d="M12.6853819,16.9773801 C12.5972353,17.0233799 12.4976311,17.0502159 12.3925853,17.0502159 C12.1488642,17.0502159 11.9365758,16.9106956 11.8254125,16.7045247 L11.7824883,16.6079623 L10.0073904,12.5656938 C9.98826043,12.5219924 9.97599157,12.4721734 9.97599157,12.4238753 C9.97599157,12.2376117 10.1215956,12.0866337 10.3009643,12.0866337 C10.3737663,12.0866337 10.4411943,12.1111714 10.4956437,12.1533182 L12.5911178,13.7007831 C12.7436505,13.8050178 12.9268384,13.8655847 13.1238162,13.8655847 C13.2410632,13.8655847 13.3530039,13.8433453 13.4572047,13.8042404 L23.3115333,9.25381126 C21.5448173,7.09398482 18.6361172,5.68289685 15.3442096,5.68289685 C9.95679401,5.68289685 5.59033019,9.45846126 5.59033019,14.1154233 C5.59033019,16.6562604 6.90401083,18.9433383 8.96041382,20.4885049 C9.12521538,20.6111259 9.23326922,20.8119567 9.23326922,21.038035 C9.23326922,21.1131691 9.2179585,21.1821518 9.19957211,21.2534329 C9.03477055,21.8888112 8.77188571,22.9066872 8.75961685,22.9541741 C8.73893216,23.0339048 8.70746574,23.1174547 8.70746574,23.2010047 C8.70746574,23.3872345 8.85310354,23.5382124 9.03247225,23.5382124 C9.10297595,23.5382124 9.16046723,23.510599 9.2202568,23.475381 L11.3555793,22.196141 C11.5165278,22.1003561 11.685926,22.0405665 11.8737105,22.0405665 C11.9733486,22.0405665 12.0691673,22.0566884 12.1603895,22.0850453 C13.1559924,22.3824047 14.2313597,22.5479836 15.3442096,22.5479836 C20.7308477,22.5479836 25.0981227,18.7724192 25.0981227,14.1154233 C25.0981227,12.7044029 24.694974,11.3761213 23.98676,10.2080447 L12.7566629,16.9344898 L12.6853819,16.9773801" id="微信支付-(8)" fill="#FFFFFF" mask="url(#mask-5)"></path>
                    </g>
                    <g id="Combined-Shape" transform="translate(40.000000, 0.000000)">
                        <mask id="mask-8" fill="white">
                            <use xlink:href="#path-7"></use>
                        </mask>
                        <g id="Mask">
                            <use fill="#3197F2" xlink:href="#path-7"></use>
                            <use fill="url(#linearGradient-6)" xlink:href="#path-7"></use>
                        </g>
                        <path d="M18.0112087,18.376815 C15.9224918,20.9696513 13.2214734,22.5424429 10.4250313,22.5424429 C5.68830905,22.5424429 4.07936087,18.3634636 6.32181584,15.613081 C6.81218719,15.0202801 7.64184252,14.4461712 8.93536264,14.1257382 C10.9525118,13.6237267 14.1651069,14.4354901 17.1762521,15.4368429 C17.7381912,14.3927657 18.186152,13.2899424 18.5148334,12.147065 L9.23488676,12.147065 L9.23488676,11.2017879 L14.0193208,11.2017879 L14.0193208,9.50349339 L8.22498683,9.50349339 L8.22498683,8.55287572 L14.0193208,8.55287572 L14.0193208,6.12826664 C14.0193208,6.12826664 14.0193208,5.72238494 14.4301725,5.72238494 L16.7707017,5.72238494 L16.7707017,8.55287572 L22.50142,8.55287572 L22.50142,9.50082311 L16.7707017,9.50082311 L16.7707017,11.2017879 L21.4464589,11.2017879 C21.0223539,12.9668392 20.3543886,14.6651337 19.4637682,16.2432658 C20.8871705,16.7586287 22.1607153,17.2547552 23.1110708,17.5730624 C26.625,18.75 29.4866489,19.8364675 29.4813476,19.8364675 L28.426758,22.8586969 C28.426758,22.8586969 21.1336815,19.8908605 18.0112087,18.376815 Z M9.340913,15.5436539 C8.74451541,15.5997297 7.63123989,15.8694274 7.02689033,16.4114931 C5.20058835,18.0136577 6.29530928,20.9456189 9.98502241,20.9456189 C12.1320538,20.9456189 14.2764344,19.5624168 15.959601,17.3487594 C13.563408,16.1711684 11.5330055,15.3246914 9.340913,15.5436539 Z" fill="#FFFFFF" mask="url(#mask-8)"></path>
                    </g>
                </g>
            </g>
        </g>
    </g>
</svg>