
<svg width="30px" height="28px" viewBox="0 0 30 28" version="1.1" xmlns="http://www.w3.org/2000/svg" xmlns:xlink="http://www.w3.org/1999/xlink">
    <!-- Generator: Sketch 44.1 (41455) - http://www.bohemiancoding.com/sketch -->
    <desc>Created with Sketch.</desc>
    <defs></defs>
    <g id="Page-1" stroke="none" stroke-width="1" fill="none" fill-rule="evenodd">
        <g id="会员-copy" transform="translate(-855.000000, -515.000000)">
            <g id="Group-8-Copy" transform="translate(600.000000, 150.000000)">
                <g id="Group-7" transform="translate(155.000000, 365.000000)">
                    <g id="Group-6" transform="translate(100.000000, 0.000000)">
                        <path d="M0,0 L28.008383,0 C29.1083227,0 30,0.899897516 30,1.99124431 L30,28 L0,0 Z" id="Rectangle-20" fill="#F93434"></path>
                        <path d="M15.608,9.67 L15.608,10.885 L17.21,10.885 L17.21,9.67 L15.608,9.67 Z M15.608,11.488 L15.608,12.829 L17.21,12.829 L17.21,11.488 L15.608,11.488 Z M15.608,13.45 L15.608,13.864 L14.969,13.864 L14.969,8.59 C14.753,8.932 14.51,9.256 14.258,9.562 L14.042,8.878 C14.78,7.906 15.293,6.835 15.599,5.665 L16.229,5.791 C16.094,6.277 15.923,6.745 15.725,7.204 L17.354,7.204 C17.21,6.727 17.03,6.259 16.823,5.809 L17.444,5.638 C17.66,6.178 17.822,6.664 17.939,7.114 L17.696,7.204 L19.415,7.204 L19.415,7.834 L17.849,7.834 L17.849,9.058 L19.235,9.058 L19.235,9.67 L17.849,9.67 L17.849,10.885 L19.235,10.885 L19.235,11.488 L17.849,11.488 L17.849,12.829 L19.514,12.829 L19.514,13.45 L15.608,13.45 Z M17.21,7.834 L15.608,7.834 L15.608,9.058 L17.21,9.058 L17.21,7.834 Z M14.141,9.355 L14.141,10.012 C13.871,10.147 13.592,10.273 13.304,10.39 L13.304,12.991 C13.304,13.495 13.034,13.756 12.503,13.756 L11.675,13.756 L11.54,13.126 C11.792,13.153 12.044,13.171 12.278,13.171 C12.521,13.171 12.647,13.054 12.647,12.82 L12.647,10.651 C12.278,10.777 11.9,10.903 11.522,11.011 L11.36,10.363 C11.801,10.264 12.233,10.138 12.647,9.994 L12.647,7.924 L11.495,7.924 L11.495,7.294 L12.647,7.294 L12.647,5.629 L13.304,5.629 L13.304,7.294 L14.213,7.294 L14.213,7.924 L13.304,7.924 L13.304,9.742 C13.592,9.616 13.871,9.49 14.141,9.355 Z M20.603,6.304 L22.646,6.304 L22.646,5.656 L23.312,5.656 L23.312,6.304 L25.688,6.304 L25.688,5.656 L26.354,5.656 L26.354,6.304 L28.397,6.304 L28.397,6.898 L26.354,6.898 L26.354,7.555 L25.688,7.555 L25.688,6.898 L23.312,6.898 L23.312,7.546 L22.646,7.546 L22.646,6.898 L20.603,6.898 L20.603,6.304 Z M20.72,8.158 L23.258,8.158 C23.366,7.924 23.465,7.699 23.555,7.474 L24.185,7.582 C24.113,7.78 24.032,7.969 23.96,8.158 L28.352,8.158 L28.352,8.752 L23.663,8.752 C23.393,9.229 23.069,9.679 22.7,10.102 L22.7,13.918 L22.079,13.918 L22.079,10.732 C21.701,11.074 21.287,11.389 20.837,11.695 L20.432,11.173 C21.503,10.471 22.331,9.661 22.916,8.752 L20.72,8.752 L20.72,8.158 Z M25.814,10.768 C26.138,10.57 26.507,10.327 26.939,10.039 L23.978,10.039 L23.978,9.445 L27.857,9.445 L27.857,9.913 C27.443,10.237 26.975,10.588 26.462,10.948 L26.462,11.326 L28.442,11.326 L28.442,11.938 L26.462,11.938 L26.462,13.153 C26.462,13.639 26.219,13.882 25.742,13.882 L24.689,13.882 L24.5,13.252 C24.914,13.279 25.247,13.297 25.481,13.297 C25.697,13.297 25.814,13.189 25.814,12.973 L25.814,11.938 L23.33,11.938 L23.33,11.326 L25.814,11.326 L25.814,10.768 Z" id="推荐" fill="#FFFFFF" transform="translate(19.901000, 9.773500) rotate(41.000000) translate(-19.901000, -9.773500) "></path>
                    </g>
                </g>
            </g>
        </g>
    </g>
</svg>