
<svg width="63px" height="62px" viewBox="0 0 63 62" version="1.1" xmlns="http://www.w3.org/2000/svg" xmlns:xlink="http://www.w3.org/1999/xlink">
    <!-- Generator: Sketch 46.2 (44496) - http://www.bohemiancoding.com/sketch -->
    <desc>Created with Sketch.</desc>
    <defs>
        <rect id="path-1" x="6.25277607e-13" y="-6.82121026e-13" width="7" height="11" rx="1"></rect>
        <path d="M24.0566955,22.8728889 C28.4046723,17.8711138 27.874664,10.2916424 22.8728889,5.9436656 C17.8711138,1.59568884 10.2916424,2.12569711 5.9436656,7.12747221 C1.59568884,12.1292473 2.12569711,19.7087188 7.12747221,24.0566955 C12.1292473,28.4046723 19.7087188,27.874664 24.0566955,22.8728889 Z" id="path-3"></path>
        <filter x="-4.2%" y="-4.2%" width="108.3%" height="108.3%" filterUnits="objectBoundingBox" id="filter-4">
            <feOffset dx="1" dy="2" in="SourceAlpha" result="shadowOffsetInner1"></feOffset>
            <feComposite in="shadowOffsetInner1" in2="SourceAlpha" operator="arithmetic" k2="-1" k3="1" result="shadowInnerInner1"></feComposite>
            <feColorMatrix values="0 0 0 0 0.560784314   0 0 0 0 0.674509804   0 0 0 0 0.996078431  0 0 0 0.140087183 0" type="matrix" in="shadowInnerInner1"></feColorMatrix>
        </filter>
    </defs>
    <g id="Page-1" stroke="none" stroke-width="1" fill="none" fill-rule="evenodd">
        <g id="账本-copy-2" transform="translate(-423.000000, -375.000000)">
            <g id="Group-2" transform="translate(413.000000, 375.000000)">
                <g id="Group-11" transform="translate(10.000000, 0.000000)">
                    <rect id="Rectangle-11" fill="#FFD45F" x="60" y="17" width="3" height="4"></rect>
                    <rect id="Rectangle-5" fill="#F4B43E" x="58" y="20" width="5" height="2" rx="1"></rect>
                    <circle id="Oval-2" fill="#E7F3FF" cx="31" cy="31" r="31"></circle>
                    <rect id="Rectangle-8" fill="#FFD45F" x="44" y="9" width="19" height="11" rx="2"></rect>
                    <path d="M48.4516537,15.8344327 L49.4905719,15.8344327 L49.4905719,15.1695251 L48.4516537,15.1695251 C48.0145363,15.1695251 47.7959809,15.0248475 47.7959809,14.7354881 C47.7959809,14.4522853 48.0145363,14.310686 48.4516537,14.310686 L49.0380653,14.310686 L47.6574585,12.1451187 C47.54664,11.9727344 47.4743012,11.8496046 47.44044,11.7757256 C47.4065788,11.7018466 47.3896484,11.6202731 47.3896484,11.5310026 C47.3896484,11.3709315 47.4381308,11.2424147 47.535097,11.1454485 C47.6320632,11.0484824 47.7575017,11 47.9114162,11 C48.0684091,11 48.1953867,11.0477128 48.2923529,11.1431398 C48.3893191,11.2385669 48.5024446,11.3924791 48.6317329,11.6048813 L50.1231577,13.9412929 L51.4575904,11.7387863 C51.5068431,11.6525941 51.5591732,11.5625554 51.6145825,11.4686675 C51.6699917,11.3747797 51.723861,11.2947453 51.776192,11.228562 C51.8285229,11.1623787 51.8939356,11.1077399 51.9724321,11.0646438 C52.0509285,11.0215477 52.1440454,11 52.2517856,11 C52.4057002,11 52.5311387,11.0469432 52.6281049,11.1408311 C52.7250711,11.234719 52.7735535,11.3493837 52.7735535,11.4848285 C52.7735535,11.5925687 52.7543144,11.6910726 52.7158358,11.780343 C52.6773571,11.8696135 52.6165618,11.9819694 52.5334479,12.1174142 L51.2036326,14.310686 L51.7900442,14.310686 C52.2240833,14.310686 52.4410996,14.4522853 52.4410996,14.7354881 C52.4410996,15.0248475 52.2240833,15.1695251 51.7900442,15.1695251 L50.7465086,15.1695251 L50.7465086,15.8344327 L51.7900442,15.8344327 C52.2240833,15.8344327 52.4410996,15.9791103 52.4410996,16.2684697 C52.4410996,16.5516725 52.2240833,16.6932718 51.7900442,16.6932718 L50.7465086,16.6932718 L50.7465086,17.0626649 C50.7465086,17.6875581 50.538727,18 50.1231577,18 C49.7014317,18 49.4905719,17.6875581 49.4905719,17.0626649 L49.4905719,16.6932718 L48.4516537,16.6932718 C48.0145363,16.6932718 47.7959809,16.5516725 47.7959809,16.2684697 C47.7959809,15.9791103 48.0145363,15.8344327 48.4516537,15.8344327 Z" id="¥" fill="#F9B230"></path>
                    <rect id="Rectangle-10-Copy-2" fill="#839EEA" x="10" y="22" width="6" height="1.5" rx="0.75"></rect>
                    <circle id="Oval-4" fill="#FFD45F" opacity="0.699999988" cx="8.75" cy="22.75" r="1"></circle>
                    <circle id="Oval-4" fill="#FFD45F" opacity="0.699999988" cx="8.75" cy="26.75" r="1"></circle>
                    <circle id="Oval-4" fill="#FFD45F" opacity="0.699999988" cx="8.75" cy="30.75" r="1"></circle>
                    <rect id="Rectangle-10-Copy-2" fill="#839EEA" x="10" y="26" width="6" height="1.5" rx="0.75"></rect>
                    <rect id="Rectangle-10-Copy-2" fill="#839EEA" x="10" y="30" width="6" height="1.5" rx="0.75"></rect>
                    <rect id="Rectangle-10-Copy-2" fill="#839EEA" x="12" y="34" width="6" height="1.5" rx="0.75"></rect>
                    <g id="Group-10" transform="translate(31.797558, 33.077710) rotate(-42.000000) translate(-31.797558, -33.077710) translate(16.797558, 11.077710)">
                        <g id="Rectangle-9-+-Path-2-+-Rectangle-9-Copy-Mask" transform="translate(11.000000, 33.000000)">
                            <mask id="mask-2" fill="white">
                                <use xlink:href="#path-1"></use>
                            </mask>
                            <use id="Mask" fill="#FFCC43" xlink:href="#path-1"></use>
                            <rect id="Rectangle-9" fill="#F9C230" mask="url(#mask-2)" x="6.82121026e-13" y="1" width="7" height="1"></rect>
                            <polygon id="Path-2" fill="#F9C230" opacity="0.5" mask="url(#mask-2)" points="1.56142517 -0.516760998 1.14984302 11.8961597 -0.299439525 11.2640362 -0.185415562 -0.0711743657"></polygon>
                            <rect id="Rectangle-9-Copy" fill="#F9C230" mask="url(#mask-2)" x="5.1159077e-13" y="9" width="7" height="1"></rect>
                        </g>
                        <path d="M24.0567407,22.872934 C28.4047174,17.8711589 27.8747091,10.2916875 22.872934,5.94371074 C17.8711589,1.59573398 10.2916875,2.12574225 5.94371074,7.12751735 C1.59573398,12.1292925 2.12574225,19.7087639 7.12751735,24.0567407 C12.1292925,28.4047174 19.7087639,27.8747091 24.0567407,22.872934 Z M26.3208694,24.8411111 C20.8858985,31.09333 11.4115591,31.7558404 5.15934026,26.3208694 C-1.09287861,20.8858985 -1.75538896,11.4115591 3.679582,5.15934026 C9.11455295,-1.09287861 18.5888923,-1.75538896 24.8411111,3.679582 C31.09333,9.11455295 31.7558404,18.5888923 26.3208694,24.8411111 Z" id="Oval" fill="#8FACFE" fill-rule="nonzero"></path>
                        <g id="Path">
                            <use fill="#ECF4FA" fill-rule="evenodd" xlink:href="#path-3"></use>
                            <use fill="black" fill-opacity="1" filter="url(#filter-4)" xlink:href="#path-3"></use>
                        </g>
                        <rect id="Rectangle-6" fill="#8FACFE" x="13" y="28" width="3" height="5"></rect>
                    </g>
                    <rect id="Rectangle-10" fill="#8FACFE" x="14" y="21" width="17" height="1.5" rx="0.75"></rect>
                    <rect id="Rectangle-10-Copy" fill="#8FACFE" x="14" y="25" width="17" height="1.5" rx="0.75"></rect>
                    <rect id="Rectangle-10-Copy" fill="#8FACFE" x="14" y="29" width="17" height="1.5" rx="0.75"></rect>
                    <rect id="Rectangle-10-Copy" fill="#8FACFE" x="14" y="33" width="10" height="1.5" rx="0.75"></rect>
                    <path d="M36.0566955,35.8728889 C40.4046723,30.8711138 39.874664,23.2916424 34.8728889,18.9436656 C29.8711138,14.5956888 22.2916424,15.1256971 17.9436656,20.1274722 C13.5956888,25.1292473 14.1256971,32.7087188 19.1274722,37.0566955 C24.1292473,41.4046723 31.7087188,40.874664 36.0566955,35.8728889 Z" id="Path" fill="#FFFFFF" opacity="0.5"></path>
                    <circle id="Oval-3" fill="#FFFFFF" opacity="0.900000036" cx="33" cy="22" r="2"></circle>
                    <circle id="Oval-3-Copy" fill="#FFFFFF" cx="34.5" cy="26.5" r="1.5"></circle>
                </g>
            </g>
        </g>
    </g>
</svg>