<?xml version="1.0" encoding="UTF-8" standalone="no"?>
<svg width="40px" height="40px" viewBox="0 0 40 40" version="1.1" xmlns="http://www.w3.org/2000/svg" xmlns:xlink="http://www.w3.org/1999/xlink">
    <!-- Generator: Sketch 46.2 (44496) - http://www.bohemiancoding.com/sketch -->
    <title>采宝新LOGO2 Copy 4@2x</title>
    <desc>Created with Sketch.</desc>
    <defs>
        <circle id="path-1" cx="20" cy="20" r="20"></circle>
        <polygon id="path-3" points="0.00263414634 0.0351219512 0.00263414634 35.9999561 35.9648341 35.9999561 35.9648341 0.0351219512"></polygon>
    </defs>
    <g id="Page-1" stroke="none" stroke-width="1" fill="none" fill-rule="evenodd">
        <g id="采宝新LOGO2-Copy-4">
            <mask id="mask-2" fill="white">
                <use xlink:href="#path-1"></use>
            </mask>
            <use id="Mask" fill="#E7F3FF" xlink:href="#path-1"></use>
            <g id="门店详情-门店占位图" mask="url(#mask-2)">
                <g transform="translate(2.000000, 2.000000)">
                    <g id="Group-3" stroke-width="1" fill="none">
                        <mask id="mask-4" fill="white">
                            <use xlink:href="#path-3"></use>
                        </mask>
                        <g id="Clip-2"></g>
                    </g>
                    <polygon id="Fill-4" fill="#FFFFFF" points="6.25780976 28.3035073 29.6710244 28.3035073 29.6710244 5.75359024 6.25780976 5.75359024"></polygon>
                    <polygon id="Fill-5" fill="#6D9AED" points="8.37987805 13.378039 3.59657561 13.378039 6.25780976 7.94735122 10.1779902 7.94735122"></polygon>
                    <polygon id="Fill-6" fill="#83BFFF" points="13.1990488 13.378039 8.37987805 13.378039 10.1779902 7.94735122 14.0623463 7.94735122"></polygon>
                    <polygon id="Fill-7" fill="#6D9AED" points="17.9464829 13.378039 13.1990488 13.378039 14.0623463 7.94735122 17.9464829 7.94735122"></polygon>
                    <polygon id="Fill-8" fill="#83BFFF" points="22.7297854 13.378039 17.9464829 13.378039 17.9464829 7.94735122 21.8666634 7.94735122"></polygon>
                    <polygon id="Fill-9" fill="#6D9AED" points="27.5491317 13.378039 22.7297854 13.378039 21.8666634 7.94735122 25.7508439 7.94735122"></polygon>
                    <polygon id="Fill-10" fill="#83BFFF" points="32.3324341 13.378039 27.5491317 13.378039 25.7508439 7.94735122 29.6710244 7.94735122"></polygon>
                    <path d="M3.59657561,13.378039 L3.59657561,14.7448537 C3.59657561,15.7877122 4.63943415,16.6868341 6.00607317,16.6868341 C7.3728878,16.6868341 8.41570244,15.8237122 8.41570244,14.7448537 L8.41570244,13.3421707 L3.59657561,13.3421707 L3.59657561,13.378039 Z" id="Fill-11" fill="#4776D0"></path>
                    <path d="M8.37987805,13.378039 L8.37987805,14.7448537 C8.37987805,15.7877122 9.42273659,16.6868341 10.7895512,16.6868341 C12.1201463,16.6868341 13.1990488,15.8237122 13.1990488,14.7448537 L13.1990488,13.3421707 L8.37987805,13.3421707 L8.37987805,13.378039 Z" id="Fill-12" fill="#3D9AFF"></path>
                    <path d="M13.1990488,13.378039 L13.1990488,14.7448537 C13.1990488,15.7877122 14.242039,16.6868341 15.608678,16.6868341 C16.9394927,16.6868341 18.0183512,15.8237122 18.0183512,14.7448537 L18.0183512,13.3421707 L13.1990488,13.3421707 L13.1990488,13.378039 Z" id="Fill-13" fill="#4776D0"></path>
                    <path d="M17.9464829,13.378039 L17.9464829,14.7448537 C17.9464829,15.7877122 18.9895171,16.6868341 20.3561561,16.6868341 C21.6867951,16.6868341 22.7658293,15.8237122 22.7658293,14.7448537 L22.7658293,13.3421707 L17.9464829,13.3421707 L17.9464829,13.378039 Z" id="Fill-14" fill="#3D9AFF"></path>
                    <path d="M22.7297854,13.378039 L22.7297854,14.7448537 C22.7297854,15.7877122 23.7728195,16.6868341 25.1394585,16.6868341 C26.4700976,16.6868341 27.5491317,15.8237122 27.5491317,14.7448537 L27.5491317,13.3421707 L22.7297854,13.3421707 L22.7297854,13.378039 Z" id="Fill-15" fill="#4776D0"></path>
                    <path d="M27.5491317,13.378039 L27.5491317,14.7448537 C27.5491317,15.7877122 28.5921659,16.6868341 29.9588049,16.6868341 C31.2894,16.6868341 32.3684341,15.8237122 32.3684341,14.7448537 L32.3684341,13.3421707 L27.5491317,13.3421707 L27.5491317,13.378039 Z" id="Fill-16" fill="#3D9AFF"></path>
                    <polygon id="Fill-17" fill="#B1BCD5" points="5.10708293 30.2814878 30.7858829 30.2814878 30.7858829 28.2674634 5.10708293 28.2674634"></polygon>
                    <path d="M8.95521951,28.2674634 L14.2780829,28.2674634 L14.2780829,19.4921122 L8.95521951,19.4921122 L8.95521951,28.2674634 Z M16.9394927,26.3614829 L26.9735707,26.3614829 L26.9735707,19.4921122 L16.9394927,19.4921122 L16.9394927,26.3614829 Z" id="Fill-18" fill="#C0E1FF" opacity="0.600000024"></path>
                    <path d="M9.56660488,23.8798098 C9.56660488,24.0982683 9.74375122,24.2754585 9.96225366,24.2754585 C10.1807561,24.2754585 10.3579024,24.0982683 10.3579024,23.8798098 C10.3579024,23.6613073 10.1807561,23.484161 9.96225366,23.484161 C9.74375122,23.484161 9.56660488,23.6613073 9.56660488,23.8798098 Z" id="Fill-19" fill="#324A5E"></path>
                    <polygon id="Fill-20" fill="#FFCA80" points="6.25780976 7.98335122 29.7070244 7.98335122 29.7070244 5.75359024 6.25780976 5.75359024"></polygon>
                </g>
            </g>
        </g>
    </g>
</svg>