<svg width="58px" height="58px" viewBox="0 0 58 58" version="1.1" xmlns="http://www.w3.org/2000/svg" xmlns:xlink="http://www.w3.org/1999/xlink">
    <!-- Generator: Sketch 46.2 (44496) - http://www.bohemiancoding.com/sketch -->
    <desc>Created with Sketch.</desc>
    <defs></defs>
    <g id="Page-1" stroke="none" stroke-width="1" fill="none" fill-rule="evenodd">
        <g id="请求超时" transform="translate(-421.000000, -142.000000)">
            <g id="Group-4" transform="translate(290.000000, 105.000000)">
                <circle id="Oval-3" fill="#FF6D3C" cx="160" cy="66" r="29"></circle>
                <path d="M159.975737,46.25 C149.044918,46.25 140.25043,55.0444871 140.25043,65.9753068 C140.25043,76.9060659 149.044918,85.700553 159.975737,85.700553 C170.906496,85.700553 179.850004,76.7570448 179.700983,65.9753068 C179.700983,55.0444871 170.906496,46.25 159.975737,46.25 Z M152.72168,56.5349404 C154.261929,56.5349404 155.479207,57.7771466 155.479207,59.292467 C155.479207,60.8327153 154.237001,62.0499936 152.72168,62.0499936 C151.206117,62.0499936 149.963911,60.8080907 149.963911,59.292467 C149.963911,57.7771466 151.18125,56.5349404 152.72168,56.5349404 Z M167.627305,75.5895008 L167.552885,75.5895008 C167.080712,75.5895008 166.658516,75.3658782 166.385099,74.9931739 C164.869778,72.7076384 162.335692,71.2420522 159.478879,71.2420522 C156.621884,71.2420522 154.112908,72.7325055 152.597284,74.9931739 C152.349037,75.3658782 151.901731,75.5895008 151.454607,75.5895008 L151.330271,75.5895008 C150.212462,75.5895008 149.541715,74.297621 150.13786,73.3536996 C152.175088,70.2481539 155.578494,68.2111081 159.454012,68.2111081 C163.329591,68.2111081 166.732936,70.2481539 168.770224,73.3536996 C169.465777,74.3224881 168.770224,75.5895008 167.627305,75.5895008 Z M167.503151,62.0748608 C165.987588,62.0748608 164.745624,60.8327153 164.745624,59.3173342 C164.745624,57.7771466 165.987588,56.5598682 167.503151,56.5598682 C169.018472,56.5598682 170.260678,57.8020137 170.260678,59.3173342 C170.260678,60.8327153 169.043399,62.0748608 167.503151,62.0748608 Z" id="Fill-1-Copy" fill="#FFFFFF"></path>
            </g>
        </g>
    </g>
</svg>