<svg width="14px" height="14px" viewBox="0 0 14 14" version="1.1" xmlns="http://www.w3.org/2000/svg" xmlns:xlink="http://www.w3.org/1999/xlink">
    <!-- Generator: Sketch 44.1 (41455) - http://www.bohemiancoding.com/sketch -->
    <desc>Created with Sketch.</desc>
    <defs>
        <polygon id="path-1" points="0.00102439024 0.0136585366 0.00102439024 13.9999829 13.9863244 13.9999829 13.9863244 0.0136585366"></polygon>
    </defs>
    <g id="Page-1" stroke="none" stroke-width="1" fill="none" fill-rule="evenodd">
        <g id="会员-copy-5" transform="translate(-427.000000, -342.000000)">
            <g id="Group-4" transform="translate(290.000000, 203.000000)">
                <g id="Group-2" transform="translate(137.000000, 135.000000)">
                    <g id="时间" transform="translate(0.000000, 4.000000)">
                        <mask id="mask-2" fill="white">
                            <use xlink:href="#path-1"></use>
                        </mask>
                        <g id="Clip-2"></g>
                        <path d="M6.99320488,0.0136585366 C7.94349756,0.0136585366 8.8499122,0.198253659 9.71243171,0.567460976 C10.5750366,0.936668293 11.3183854,1.43332683 11.9425463,2.05750488 C12.5666561,2.68161463 13.0633829,3.42496341 13.432522,4.28755122 C13.8017293,5.1500878 13.9863244,6.05648537 13.9863244,7.00686341 C13.9863244,7.9571561 13.8017293,8.86357073 13.432522,9.72609024 C13.0633829,10.5886951 12.5666561,11.3320439 11.9425463,11.9562049 C11.3183854,12.5803146 10.5750366,13.0770415 9.71243171,13.4461805 C8.8499122,13.8153878 7.94349756,13.9999829 6.99320488,13.9999829 C6.0428439,13.9999829 5.13642927,13.8153878 4.27389268,13.4461805 C3.41130488,13.0770415 2.6679561,12.5803146 2.04384634,11.9562049 C1.41966829,11.3320439 0.923009756,10.5886951 0.553819512,9.72609024 C0.184595122,8.86357073 0,7.9571561 0,7.00686341 C0,6.05648537 0.184595122,5.1500878 0.553819512,4.28755122 C0.923009756,3.42496341 1.41966829,2.68161463 2.04384634,2.05750488 C2.6679561,1.43332683 3.41130488,0.936668293 4.27389268,0.567460976 C5.13642927,0.198253659 6.0428439,0.0136585366 6.99320488,0.0136585366 Z M6.99320488,1.28514878 C6.21837317,1.28514878 5.47748293,1.43660488 4.77055122,1.73958537 C4.06361951,2.04256585 3.45518293,2.44899268 2.94525854,2.95891707 C2.43533415,3.46884146 2.02890732,4.07727805 1.72592683,4.78420976 C1.42294634,5.49114146 1.27149024,6.23203171 1.27149024,7.00686341 C1.27149024,7.78160976 1.42294634,8.5225 1.72592683,9.22943171 C2.02890732,9.93636341 2.43533415,10.5448 2.94525854,11.0547244 C3.45518293,11.5646659 4.06361951,11.9710756 4.77055122,12.2740561 C5.47748293,12.5770366 6.21837317,12.7285098 6.99320488,12.7285098 C7.76795122,12.7285098 8.50884146,12.5770366 9.21577317,12.2740561 C9.92272195,11.9710756 10.5311415,11.5646659 11.0410659,11.0547244 C11.5510073,10.5448 11.9574171,9.93636341 12.2603976,9.22943171 C12.563378,8.5225 12.7148512,7.78160976 12.7148512,7.00686341 C12.7148512,6.23203171 12.563378,5.49114146 12.2603976,4.78420976 C11.9574171,4.07727805 11.5510073,3.46884146 11.0410659,2.95891707 C10.5311415,2.44899268 9.92272195,2.04256585 9.21577317,1.73958537 C8.50884146,1.43660488 7.76795122,1.28514878 6.99320488,1.28514878 Z M6.99320488,2.55662195 C7.16866585,2.55662195 7.31851707,2.61871707 7.44263902,2.74289024 C7.5668122,2.86708049 7.62890732,3.01686341 7.62890732,3.19240976 L7.62890732,6.74362927 L9.35235854,8.46207805 C9.47487561,8.58459512 9.53616829,8.73524878 9.53616829,8.9140561 C9.53616829,9.09284634 9.47487561,9.2435 9.35235854,9.36601707 C9.22984146,9.48853415 9.0791878,9.54982683 8.90039756,9.54982683 C8.72159024,9.54982683 8.57093659,9.48853415 8.44841951,9.36601707 L6.54122683,7.45882439 C6.41870976,7.33630732 6.35741707,7.18565366 6.35741707,7.00686341 L6.35741707,3.19240976 C6.35741707,3.01686341 6.4195122,2.86708049 6.54368537,2.74289024 C6.66787561,2.61871707 6.81765854,2.55662195 6.99320488,2.55662195 Z" id="Fill-1" fill="#666666" mask="url(#mask-2)"></path>
                    </g>
                </g>
            </g>
        </g>
    </g>
</svg>