<?xml version="1.0" encoding="UTF-8"?>
<svg width="24px" height="24px" viewBox="0 0 24 24" version="1.1" xmlns="http://www.w3.org/2000/svg" xmlns:xlink="http://www.w3.org/1999/xlink">
    <!-- Generator: Sketch 46.2 (44496) - http://www.bohemiancoding.com/sketch -->
    <title>Imported Layers@2x</title>
    <desc>Created with Sketch.</desc>
    <defs></defs>
    <g id="Page-1" stroke="none" stroke-width="1" fill="none" fill-rule="evenodd">
        <g id="选择付款方式-同线上-copy-25" transform="translate(-29.000000, -211.000000)">
            <g id="Group-5" transform="translate(14.000000, 149.000000)">
                <g id="Group-4-Copy-2" transform="translate(0.000000, 41.000000)">
                    <g id="Imported-Layers" transform="translate(15.000000, 21.000000)">
                        <path d="M20.2688571,3.64285714 C15.6608571,-0.966 8.16257143,-0.966 3.55457143,3.64285714 C-1.05428571,8.25085714 -1.05428571,15.7491429 3.55457143,20.3571429 C8.16257143,24.966 15.6608571,24.966 20.2688571,20.3571429 C24.8777143,15.7491429 24.8777143,8.25085714 20.2688571,3.64285714 L20.2688571,3.64285714 Z" id="Fill-1" fill="#EEEEEE"></path>
                        <path d="M18.8665714,7.75885714 C18.5511429,7.46228571 18.0042857,7.47942857 17.7068571,7.79571429 L10.3705714,15.606 L6.45257143,11.7462857 C6.14057143,11.4385714 5.59971429,11.4411429 5.29114286,11.7531429 C5.13685714,11.91 5.05371429,12.1165714 5.05457143,12.3368571 C5.05628571,12.5554286 5.14457143,12.7611429 5.30057143,12.9137143 L9.804,17.3511429 L9.83057143,17.3768571 C9.834,17.3802857 9.83742857,17.3837143 9.84085714,17.3862857 L9.84085714,17.388 C9.89314286,17.4342857 9.948,17.4625714 9.99857143,17.4891429 L10.0928571,17.544 C10.1905714,17.5817143 10.2908571,17.6005714 10.3928571,17.6005714 C10.5042857,17.6005714 10.6105714,17.5791429 10.7108571,17.5362857 C10.7545714,17.5182857 10.7845714,17.4942857 10.8274286,17.466 C10.866,17.4437143 10.9182857,17.4128571 10.968,17.3665714 L18.9017143,8.92028571 C19.0525714,8.76171429 19.1314286,8.55342857 19.1254286,8.33485714 C19.1194286,8.11457143 19.0268571,7.91057143 18.8665714,7.75885714" id="Fill-2" fill="#FFFFFF"></path>
                    </g>
                </g>
            </g>
        </g>
    </g>
</svg>