<svg width="12px" height="12px" viewBox="0 0 12 12" version="1.1" xmlns="http://www.w3.org/2000/svg" xmlns:xlink="http://www.w3.org/1999/xlink">
    <!-- Generator: Sketch 46.2 (44496) - http://www.bohemiancoding.com/sketch -->
    <desc>Created with Sketch.</desc>
    <defs></defs>
    <g id="Page-1" stroke="none" stroke-width="1" fill="none" fill-rule="evenodd">
        <g id="账本" transform="translate(-712.000000, -239.000000)" fill="#BBBBBB">
            <g id="Group-2-Copy" transform="translate(20.000000, 227.000000)">
                <g id="Group-10" transform="translate(692.000000, 11.000000)">
                    <path d="M11.6339622,6.24347479 L10.8380726,6.24347479 C10.6441673,6.24347479 10.4869496,6.40069247 10.4869496,6.59459783 L10.4869496,11.4869496 L1.49813565,11.4869496 L1.49813565,6.59459783 C1.49813565,6.40069247 1.34091797,6.24347479 1.14701261,6.24347479 L0.351123047,6.24347479 C0.157217685,6.24347479 8.8817842e-16,6.40069247 8.8817842e-16,6.59459783 L8.8817842e-16,12.6339622 C8.8817842e-16,12.8278675 0.157217685,12.9850852 0.351123047,12.9850852 L11.6339622,12.9850852 C11.8278675,12.9850852 11.9850852,12.8278675 11.9850852,12.6339622 L11.9850852,6.59459783 C11.9850852,6.40069247 11.8278675,6.24347479 11.6339622,6.24347479 L11.6339622,6.24347479 Z M6.74161044,6.24347479 L6.74161044,1.37453391 C6.74161044,1.16769798 6.57391246,1 6.36707653,1 L5.6180087,1 C5.41117276,1 5.24347479,1.16769798 5.24347479,1.37453391 L5.24347479,6.24347479 L2.99627131,6.24347479 L5.99254261,9.23974609 L8.98881392,6.24347479 L6.74161044,6.24347479 L6.74161044,6.24347479 Z" id="Shape-Copy"></path>
                </g>
            </g>
        </g>
    </g>
</svg>