<?xml version="1.0" encoding="UTF-8"?>
<svg width="20px" height="20px" viewBox="0 0 20 20" version="1.1" xmlns="http://www.w3.org/2000/svg" xmlns:xlink="http://www.w3.org/1999/xlink">
    <!-- Generator: Sketch 46.2 (44496) - http://www.bohemiancoding.com/sketch -->
    <title>会员@2x</title>
    <desc>Created with Sketch.</desc>
    <defs></defs>
    <g id="Page-1" stroke="none" stroke-width="1" fill="none" fill-rule="evenodd">
        <g id="会员">
            <circle id="Oval" fill="#F2C367" cx="10" cy="10" r="10"></circle>
            <path d="M16.0519014,7.99308668 C15.9844011,7.91599216 15.8280601,7.73303837 15.6220084,7.49217851 C15.0017373,6.76721382 13.9638933,5.55385828 13.486083,5.03885467 C13.2886572,4.82577323 13.0430809,4.56082917 12.5674047,4.54203526 C12.5327758,4.5408696 12.4273111,4.53694225 11.0936242,4.53694225 C9.57737815,4.53694225 7.43576797,4.54183799 7.43673636,4.54183799 C7.20997193,4.54183799 6.8642212,4.59328814 6.48323187,5.03923127 C6.20381578,5.36677988 5.76981611,5.86788531 5.33054411,6.37507008 C4.77092287,7.02116487 4.20308826,7.67705114 3.93618949,7.99482619 C3.47225944,8.53212068 3.4607105,9.2815641 3.90586457,9.95113335 L3.93541837,9.99028137 C4.46098459,10.6025184 5.60407813,11.9168375 6.95420964,13.4690933 L9.05278031,15.8828746 C9.44040491,16.3293916 9.74643376,16.3896648 9.99473587,16.3896648 C10.2555732,16.3896648 10.5502504,16.3282259 10.9366914,15.8830718 L13.1072457,13.3861167 C14.3841921,11.9180031 15.4654701,10.6749145 16.0579628,9.98497316 C16.4536035,9.50757533 16.5663132,8.61335776 16.0519014,7.99308668 Z M12.4444372,8.77665684 L9.98621763,11.9249074 L7.53117222,8.76810273 C7.50608377,8.72866778 7.49851599,8.72866778 7.46293666,8.72866778 L6.26518294,8.72866778 L6.26518294,9.28215589 L6.29392975,9.28215589 C6.52037138,9.28215589 6.60431636,9.34104829 6.6972279,9.46503794 C6.70633793,9.47748354 6.71706194,9.49166864 6.73843823,9.51810207 C7.27833302,10.2521589 9.39435263,12.8237338 9.99159757,13.6246452 C10.5886273,12.8231599 12.7033019,10.2498096 13.2503879,9.50796986 C13.2636226,9.49226043 13.2739341,9.47827259 13.2830441,9.46600633 C13.3765295,9.34144282 13.4606897,9.28213796 13.6861271,9.28213796 L13.7133317,9.28213796 L13.7133317,8.72769939 L12.519864,8.72769939 C12.4862214,8.72769939 12.4761251,8.72769939 12.4444372,8.77665684 L12.4444372,8.77665684 Z" id="会员-(2)" fill="#FFFFFF"></path>
        </g>
    </g>
</svg>