<svg width="18px" height="18px" viewBox="0 0 18 18" version="1.1" xmlns="http://www.w3.org/2000/svg" xmlns:xlink="http://www.w3.org/1999/xlink">
    <!-- Generator: Sketch 44.1 (41455) - http://www.bohemiancoding.com/sketch -->
    <desc>Created with Sketch.</desc>
    <defs></defs>
    <g id="Page-1" stroke="none" stroke-width="1" fill="none" fill-rule="evenodd">
        <g id="选择付款方式-同线上-copy-14" transform="translate(-383.000000, -345.000000)">
            <g id="图文-copy" transform="translate(300.000000, 133.000000)">
                <g id="Group-8" transform="translate(83.000000, 212.000000)">
                    <g id="Group-10-Copy-3">
                        <g id="Group-9">
                            <circle id="Oval-2" fill="#FFFFFF" cx="9" cy="9" r="6"></circle>
                            <path d="M8.98449877,0.031002457 C13.9465504,0.031002457 17.9689975,4.05344963 17.9689975,9.01550123 C17.9689975,13.9775528 13.9465504,18 8.98449877,18 C4.02244717,18 0,13.9775528 0,9.01550123 C0,4.05344963 4.02244717,0.031002457 8.98449877,0.031002457 Z M8.98449877,12.093059 C8.23309828,12.093059 7.62388452,12.7020737 7.62388452,13.4536732 C7.62388452,14.2050737 8.23309828,14.8142875 8.98449877,14.8142875 C9.73589926,14.8142875 10.345113,14.2050737 10.345113,13.4536732 C10.345113,12.7020737 9.73589926,12.093059 8.98449877,12.093059 Z M8.94538084,11.0293342 C9.59262899,11.0293342 10.1172383,10.5045479 10.1172383,9.85747666 L10.1172383,4.38857248 C10.1172383,3.74132432 9.59262899,3.21671499 8.94538084,3.21671499 C8.29813268,3.21671499 7.77350123,3.74150123 7.77350123,4.38857248 L7.77350123,9.85747666 C7.77350123,10.5047248 8.29813268,11.0293342 8.94538084,11.0293342 L8.94538084,11.0293342 Z" id="感叹号-(1)-(2)" fill="#FF6B31"></path>
                        </g>
                    </g>
                </g>
            </g>
        </g>
    </g>
</svg>