<?xml version="1.0" encoding="UTF-8"?>
<svg width="24px" height="24px" viewBox="0 0 24 24" version="1.1" xmlns="http://www.w3.org/2000/svg" xmlns:xlink="http://www.w3.org/1999/xlink">
    <!-- Generator: Sketch 46.2 (44496) - http://www.bohemiancoding.com/sketch -->
    <title>Combined Shape@2x</title>
    <desc>Created with Sketch.</desc>
    <defs>
        <circle id="path-1" cx="12" cy="12" r="12"></circle>
    </defs>
    <g id="Page-1" stroke="none" stroke-width="1" fill="none" fill-rule="evenodd">
        <g id="选择付款方式-同线上-copy-25" transform="translate(-156.000000, -292.000000)">
            <g id="Group-5" transform="translate(14.000000, 149.000000)">
                <g id="Group-4" transform="translate(0.000000, 122.000000)">
                    <g id="Combined-Shape" transform="translate(142.000000, 21.000000)">
                        <mask id="mask-2" fill="white">
                            <use xlink:href="#path-1"></use>
                        </mask>
                        <use id="Mask" fill="#28CB28" xlink:href="#path-1"></use>
                        <path d="M10.1483055,13.5819041 C10.0777883,13.6187039 9.99810488,13.6401727 9.91406826,13.6401727 C9.71909139,13.6401727 9.54926062,13.5285565 9.46032997,13.3636197 L9.42599068,13.2863699 L8.00591231,10.0525551 C7.99060834,10.0175939 7.98079326,9.97773869 7.98079326,9.93910023 C7.98079326,9.79008934 8.09727646,9.66930697 8.24077143,9.66930697 C8.29901303,9.66930697 8.35295545,9.68893715 8.39651498,9.72265454 L10.0728942,10.9606265 C10.1949204,11.0440142 10.3414707,11.0924678 10.4990529,11.0924678 C10.5928506,11.0924678 10.6824031,11.0746762 10.7657638,11.0433923 L18.6492266,7.40304901 C17.2358539,5.67518785 14.9088938,4.54631748 12.2753676,4.54631748 C7.96543521,4.54631748 4.47226415,7.56676901 4.47226415,11.2923387 C4.47226415,13.3250083 5.52320867,15.1546706 7.16833106,16.3908039 C7.3001723,16.4889007 7.38661538,16.6495654 7.38661538,16.830428 C7.38661538,16.8905352 7.3743668,16.9457215 7.35965769,17.0027463 C7.22781644,17.5110489 7.01750857,18.3253498 7.00769348,18.3633393 C6.99114573,18.4271238 6.96597259,18.4939638 6.96597259,18.5608037 C6.96597259,18.7097876 7.08248283,18.8305699 7.2259778,18.8305699 C7.28238076,18.8305699 7.32837378,18.8084792 7.37620544,18.7803048 L9.08446345,17.7569128 C9.21322227,17.6802848 9.34874079,17.6324532 9.49896843,17.6324532 C9.57867884,17.6324532 9.65533387,17.6453507 9.72831163,17.6680363 C10.5247939,17.9059237 11.3850877,18.0383869 12.2753676,18.0383869 C16.5846782,18.0383869 20.0784982,15.0179353 20.0784982,11.2923387 C20.0784982,10.1635224 19.7559792,9.10089708 19.189408,8.16643576 L10.2053303,13.5475918 L10.1483055,13.5819041" id="微信支付-(8)" fill="#FFFFFF" mask="url(#mask-2)"></path>
                    </g>
                </g>
            </g>
        </g>
    </g>
</svg>