<?xml version="1.0" encoding="UTF-8"?>
<svg width="20px" height="20px" viewBox="0 0 20 20" version="1.1" xmlns="http://www.w3.org/2000/svg" xmlns:xlink="http://www.w3.org/1999/xlink">
    <!-- Generator: Sketch 46.2 (44496) - http://www.bohemiancoding.com/sketch -->
    <title>翼支付@2x</title>
    <desc>Created with Sketch.</desc>
    <defs>
        <circle id="path-1" cx="10" cy="10" r="10"></circle>
    </defs>
    <g id="Page-1" stroke="none" stroke-width="1" fill="none" fill-rule="evenodd">
        <g id="翼支付">
            <mask id="mask-2" fill="white">
                <use xlink:href="#path-1"></use>
            </mask>
            <use id="Mask" fill="#F44A5B" xlink:href="#path-1"></use>
            <g id="翼支付-(1)" mask="url(#mask-2)" fill="#FFFFFF">
                <g transform="translate(4.166667, 5.833333)">
                    <path d="M4.23406766,1.12485273 L4.11034528,1.97640445 L4.10693068,1.99600216 L4.19358567,2.01425647 C6.26313757,2.94257902 8.57736463,2.2185704 8.67308728,0.86597342 L6.43864808,0.86597342 L6.34580886,1.25081537 L7.35827609,1.25081537 C7.22548604,1.71938218 6.24572311,2.04029454 5.58127963,2.01548132 L5.72658989,1.3083046 C5.83991671,0.516533764 5.68049277,0.121497845 4.50678049,0.121497845 L1.71591303,0.121497845 L1.62994096,0.53174569 L3.75966572,0.53174569 C4.16414422,0.501954023 4.32288524,0.698563218 4.23406766,1.12485273" id="Fill-3"></path>
                    <path d="M9.4479362,0.0756645115 L6.5027667,0.0756645115 L6.41614965,0.486030891 L8.62137504,0.486030891 C8.96568068,0.486030891 9.10989067,0.683983477 9.05389121,1.07913793 L8.81297212,2.2928125 L10.4183279,2.2928125 L10.6338272,1.26164152 C10.7418804,0.633132184 10.6478271,0.106997126 9.4479362,0.0756645115 Z M3.95812994,0.86597342 L1.72429777,0.86597342 L1.63145856,1.25081537 L2.64381196,1.25081537 C2.40763537,1.93140086 0.758648527,1.91377874 0.0534954203,1.77331537 C1.75222162,2.80654095 3.86104144,2.23686422 3.95812994,0.86597342 Z M1.19051971,5.10389727 L9.96088519,5.10389727 L10.403114,2.56488865 L1.63411436,2.56488865 L1.19051971,5.10389727 L1.19051971,5.10389727 Z M6.80666622,3.06269397 L8.6494886,3.06269397 L8.55274156,3.61056034 L6.70969154,3.61056034 L6.80666622,3.06269397 L6.80666622,3.06269397 Z M6.63908517,4.08943966 L8.48145227,4.08943966 L8.40469962,4.60542026 L6.56161166,4.60542026 L6.63908517,4.08943966 L6.63908517,4.08943966 Z M3.23836993,3.06269397 L5.17312096,3.06269397 L5.07732242,3.61056034 L3.14112967,3.61056034 L3.23836993,3.06269397 L3.23836993,3.06269397 Z M3.07003008,4.08943966 L5.00603314,4.08943966 L4.92305832,4.64975216 L2.98549973,4.64975216 L3.07003008,4.08943966 L3.07003008,4.08943966 Z M10.430317,6.94043103 L8.39145856,6.94043103 L8.47970703,6.39185345 L10.1320705,6.39185345 L10.2229748,5.74275862 L8.58282799,5.74275862 L8.64102797,5.3824533 L6.87317506,5.3824533 L6.81448186,5.74275862 L4.48978336,5.74275862 L4.54991828,5.3824533 L2.85202676,5.3824533 L2.79534438,5.74275862 L0.855129984,5.74275862 L0.76559155,6.39185345 L2.6885053,6.39185345 L2.59760102,6.94043103 L0.399432471,6.94043103 L0.307162356,7.58818247 L2.40471399,7.58818247 C2.39727775,7.60126078 2.38802038,7.61137572 2.38043238,7.62307112 C2.26236306,7.78167026 1.69572894,8.44605603 0.537799704,8.36237069 C0.52785942,8.36114583 0.517881196,8.36019756 0.507902972,8.35956537 C0.365855559,8.34735632 0.224718705,8.32590158 0.0852512123,8.2953592 L0.0173006466,8.54795618 C0.0173006466,8.54795618 0.71395519,9.05812859 2.11143768,8.74515805 C2.15396844,8.73279095 2.19737181,8.72267601 2.24217897,8.70880747 C3.01482736,8.51235632 3.78493377,8.14711207 4.12036144,7.58826149 L6.56240841,7.58826149 C6.99139615,9.65550287 10.3431688,9.05070043 10.3431688,9.05070043 C10.3431688,9.05070043 8.3455132,8.48698994 8.2953565,7.58826149 L10.3388816,7.58826149 L10.430317,6.94043103 L10.430317,6.94043103 Z M6.62303655,6.94043103 L4.29560637,6.94043103 L4.38499304,6.39185345 L6.70961566,6.39185345 L6.62303655,6.94043103 L6.62303655,6.94043103 Z" id="Fill-4"></path>
                </g>
            </g>
        </g>
    </g>
</svg>